<svg width="1363" height="163" viewBox="0 0 1363 163" fill="none" xmlns="http://www.w3.org/2000/svg">
<path d="M0 15C0 6.71573 6.71573 0 15 0H37V163H15C6.71573 163 0 156.284 0 148V15Z" fill="#424242"/>
<rect width="1097" height="163" transform="translate(37)" fill="#F0F0F0"/>
<path d="M101.906 53.9219L94.3945 51.2383V48.0859L104.602 52.375V54.6367L101.906 53.9219ZM94.3945 56.1719L101.918 53.4297L104.602 52.7852V55.0352L94.3945 59.3242V56.1719ZM123.867 58.2578V61H115.277V58.2578H123.867ZM116.414 43.9375V61H112.898V43.9375H116.414ZM132.516 58.1406V52.4922C132.516 52.0859 132.449 51.7383 132.316 51.4492C132.184 51.1523 131.977 50.9219 131.695 50.7578C131.422 50.5938 131.066 50.5117 130.629 50.5117C130.254 50.5117 129.93 50.5781 129.656 50.7109C129.383 50.8359 129.172 51.0195 129.023 51.2617C128.875 51.4961 128.801 51.7734 128.801 52.0938H125.426C125.426 51.5547 125.551 51.043 125.801 50.5586C126.051 50.0742 126.414 49.6484 126.891 49.2812C127.367 48.9062 127.934 48.6133 128.59 48.4023C129.254 48.1914 129.996 48.0859 130.816 48.0859C131.801 48.0859 132.676 48.25 133.441 48.5781C134.207 48.9062 134.809 49.3984 135.246 50.0547C135.691 50.7109 135.914 51.5312 135.914 52.5156V57.9414C135.914 58.6367 135.957 59.207 136.043 59.6523C136.129 60.0898 136.254 60.4727 136.418 60.8008V61H133.008C132.844 60.6562 132.719 60.2266 132.633 59.7109C132.555 59.1875 132.516 58.6641 132.516 58.1406ZM132.961 53.2773L132.984 55.1875H131.098C130.652 55.1875 130.266 55.2383 129.938 55.3398C129.609 55.4414 129.34 55.5859 129.129 55.7734C128.918 55.9531 128.762 56.1641 128.66 56.4062C128.566 56.6484 128.52 56.9141 128.52 57.2031C128.52 57.4922 128.586 57.7539 128.719 57.9883C128.852 58.2148 129.043 58.3945 129.293 58.5273C129.543 58.6523 129.836 58.7148 130.172 58.7148C130.68 58.7148 131.121 58.6133 131.496 58.4102C131.871 58.207 132.16 57.957 132.363 57.6602C132.574 57.3633 132.684 57.082 132.691 56.8164L133.582 58.2461C133.457 58.5664 133.285 58.8984 133.066 59.2422C132.855 59.5859 132.586 59.9102 132.258 60.2148C131.93 60.5117 131.535 60.7578 131.074 60.9531C130.613 61.1406 130.066 61.2344 129.434 61.2344C128.629 61.2344 127.898 61.0742 127.242 60.7539C126.594 60.4258 126.078 59.9766 125.695 59.4062C125.32 58.8281 125.133 58.1719 125.133 57.4375C125.133 56.7734 125.258 56.1836 125.508 55.668C125.758 55.1523 126.125 54.7188 126.609 54.3672C127.102 54.0078 127.715 53.7383 128.449 53.5586C129.184 53.3711 130.035 53.2773 131.004 53.2773H132.961ZM146.016 57.9648V48.3203H149.391V61H146.215L146.016 57.9648ZM146.391 55.3633L147.387 55.3398C147.387 56.1836 147.289 56.9688 147.094 57.6953C146.898 58.4141 146.605 59.0391 146.215 59.5703C145.824 60.0938 145.332 60.5039 144.738 60.8008C144.145 61.0898 143.445 61.2344 142.641 61.2344C142.023 61.2344 141.453 61.1484 140.93 60.9766C140.414 60.7969 139.969 60.5195 139.594 60.1445C139.227 59.7617 138.938 59.2734 138.727 58.6797C138.523 58.0781 138.422 57.3555 138.422 56.5117V48.3203H141.797V56.5352C141.797 56.9102 141.84 57.2266 141.926 57.4844C142.02 57.7422 142.148 57.9531 142.312 58.1172C142.477 58.2812 142.668 58.3984 142.887 58.4688C143.113 58.5391 143.363 58.5742 143.637 58.5742C144.332 58.5742 144.879 58.4336 145.277 58.1523C145.684 57.8711 145.969 57.4883 146.133 57.0039C146.305 56.5117 146.391 55.9648 146.391 55.3633ZM155.273 51.0273V61H151.898V48.3203H155.062L155.273 51.0273ZM154.781 54.2148H153.867C153.867 53.2773 153.988 52.4336 154.23 51.6836C154.473 50.9258 154.812 50.2812 155.25 49.75C155.688 49.2109 156.207 48.8008 156.809 48.5195C157.418 48.2305 158.098 48.0859 158.848 48.0859C159.441 48.0859 159.984 48.1719 160.477 48.3438C160.969 48.5156 161.391 48.7891 161.742 49.1641C162.102 49.5391 162.375 50.0352 162.562 50.6523C162.758 51.2695 162.855 52.0234 162.855 52.9141V61H159.457V52.9023C159.457 52.3398 159.379 51.9023 159.223 51.5898C159.066 51.2773 158.836 51.0586 158.531 50.9336C158.234 50.8008 157.867 50.7344 157.43 50.7344C156.977 50.7344 156.582 50.8242 156.246 51.0039C155.918 51.1836 155.645 51.4336 155.426 51.7539C155.215 52.0664 155.055 52.4336 154.945 52.8555C154.836 53.2773 154.781 53.7305 154.781 54.2148ZM170.66 58.5977C171.074 58.5977 171.441 58.5195 171.762 58.3633C172.082 58.1992 172.332 57.9727 172.512 57.6836C172.699 57.3867 172.797 57.0391 172.805 56.6406H175.98C175.973 57.5312 175.734 58.3242 175.266 59.0195C174.797 59.707 174.168 60.25 173.379 60.6484C172.59 61.0391 171.707 61.2344 170.73 61.2344C169.746 61.2344 168.887 61.0703 168.152 60.7422C167.426 60.4141 166.82 59.9609 166.336 59.3828C165.852 58.7969 165.488 58.1172 165.246 57.3438C165.004 56.5625 164.883 55.7266 164.883 54.8359V54.4961C164.883 53.5977 165.004 52.7617 165.246 51.9883C165.488 51.207 165.852 50.5273 166.336 49.9492C166.82 49.3633 167.426 48.9062 168.152 48.5781C168.879 48.25 169.73 48.0859 170.707 48.0859C171.746 48.0859 172.656 48.2852 173.438 48.6836C174.227 49.082 174.844 49.6523 175.289 50.3945C175.742 51.1289 175.973 52 175.98 53.0078H172.805C172.797 52.5859 172.707 52.2031 172.535 51.8594C172.371 51.5156 172.129 51.2422 171.809 51.0391C171.496 50.8281 171.109 50.7227 170.648 50.7227C170.156 50.7227 169.754 50.8281 169.441 51.0391C169.129 51.2422 168.887 51.5234 168.715 51.8828C168.543 52.2344 168.422 52.6367 168.352 53.0898C168.289 53.5352 168.258 54.0039 168.258 54.4961V54.8359C168.258 55.3281 168.289 55.8008 168.352 56.2539C168.414 56.707 168.531 57.1094 168.703 57.4609C168.883 57.8125 169.129 58.0898 169.441 58.293C169.754 58.4961 170.16 58.5977 170.66 58.5977ZM181.23 43V61H177.855V43H181.23ZM180.75 54.2148H179.824C179.832 53.332 179.949 52.5195 180.176 51.7773C180.402 51.0273 180.727 50.3789 181.148 49.832C181.57 49.2773 182.074 48.8477 182.66 48.543C183.254 48.2383 183.91 48.0859 184.629 48.0859C185.254 48.0859 185.82 48.1758 186.328 48.3555C186.844 48.5273 187.285 48.8086 187.652 49.1992C188.027 49.582 188.316 50.0859 188.52 50.7109C188.723 51.3359 188.824 52.0938 188.824 52.9844V61H185.426V52.9609C185.426 52.3984 185.344 51.957 185.18 51.6367C185.023 51.3086 184.793 51.0781 184.488 50.9453C184.191 50.8047 183.824 50.7344 183.387 50.7344C182.902 50.7344 182.488 50.8242 182.145 51.0039C181.809 51.1836 181.539 51.4336 181.336 51.7539C181.133 52.0664 180.984 52.4336 180.891 52.8555C180.797 53.2773 180.75 53.7305 180.75 54.2148ZM202.98 50.8867V53.6289H194.074V50.8867H202.98ZM195.117 43.9375V61H191.602V43.9375H195.117ZM205.488 43.9375V61H201.984V43.9375H205.488ZM215.836 57.9648V48.3203H219.211V61H216.035L215.836 57.9648ZM216.211 55.3633L217.207 55.3398C217.207 56.1836 217.109 56.9688 216.914 57.6953C216.719 58.4141 216.426 59.0391 216.035 59.5703C215.645 60.0938 215.152 60.5039 214.559 60.8008C213.965 61.0898 213.266 61.2344 212.461 61.2344C211.844 61.2344 211.273 61.1484 210.75 60.9766C210.234 60.7969 209.789 60.5195 209.414 60.1445C209.047 59.7617 208.758 59.2734 208.547 58.6797C208.344 58.0781 208.242 57.3555 208.242 56.5117V48.3203H211.617V56.5352C211.617 56.9102 211.66 57.2266 211.746 57.4844C211.84 57.7422 211.969 57.9531 212.133 58.1172C212.297 58.2812 212.488 58.3984 212.707 58.4688C212.934 58.5391 213.184 58.5742 213.457 58.5742C214.152 58.5742 214.699 58.4336 215.098 58.1523C215.504 57.8711 215.789 57.4883 215.953 57.0039C216.125 56.5117 216.211 55.9648 216.211 55.3633ZM221.789 43H225.164V58.0938L224.824 61H221.789V43ZM233.191 54.5312V54.7773C233.191 55.7227 233.09 56.5898 232.887 57.3789C232.691 58.168 232.387 58.8516 231.973 59.4297C231.559 60 231.043 60.4453 230.426 60.7656C229.816 61.0781 229.098 61.2344 228.27 61.2344C227.496 61.2344 226.824 61.0781 226.254 60.7656C225.691 60.4531 225.219 60.0117 224.836 59.4414C224.453 58.8711 224.145 58.2031 223.91 57.4375C223.676 56.6719 223.5 55.8359 223.383 54.9297V54.3906C223.5 53.4844 223.676 52.6484 223.91 51.8828C224.145 51.1172 224.453 50.4492 224.836 49.8789C225.219 49.3086 225.691 48.8672 226.254 48.5547C226.816 48.2422 227.48 48.0859 228.246 48.0859C229.082 48.0859 229.809 48.2461 230.426 48.5664C231.051 48.8789 231.566 49.3242 231.973 49.9023C232.387 50.4727 232.691 51.1523 232.887 51.9414C233.09 52.7227 233.191 53.5859 233.191 54.5312ZM229.816 54.7773V54.5312C229.816 54.0156 229.777 53.5312 229.699 53.0781C229.629 52.6172 229.504 52.2148 229.324 51.8711C229.145 51.5195 228.898 51.2422 228.586 51.0391C228.281 50.8359 227.887 50.7344 227.402 50.7344C226.941 50.7344 226.551 50.8125 226.23 50.9688C225.91 51.125 225.645 51.3438 225.434 51.625C225.23 51.9062 225.078 52.2422 224.977 52.6328C224.875 53.0156 224.812 53.4375 224.789 53.8984V55.4336C224.812 56.0508 224.914 56.5977 225.094 57.0742C225.281 57.543 225.562 57.9141 225.938 58.1875C226.32 58.4531 226.816 58.5859 227.426 58.5859C227.902 58.5859 228.297 58.4922 228.609 58.3047C228.922 58.1172 229.164 57.8516 229.336 57.5078C229.516 57.1641 229.641 56.7617 229.711 56.3008C229.781 55.832 229.816 55.3242 229.816 54.7773Z" fill="#888888"/>
<path d="M109.219 107.422H100.734V101.07H109.219C110.375 101.07 111.312 100.875 112.031 100.484C112.75 100.094 113.273 99.5547 113.602 98.8672C113.945 98.1641 114.117 97.375 114.117 96.5C114.117 95.5625 113.945 94.6953 113.602 93.8984C113.273 93.1016 112.75 92.4609 112.031 91.9766C111.312 91.4766 110.375 91.2266 109.219 91.2266H103.828V119H95.6016V84.875H109.219C111.953 84.875 114.305 85.375 116.273 86.375C118.258 87.375 119.781 88.75 120.844 90.5C121.906 92.2344 122.438 94.2188 122.438 96.4531C122.438 98.6562 121.906 100.578 120.844 102.219C119.781 103.859 118.258 105.141 116.273 106.062C114.305 106.969 111.953 107.422 109.219 107.422ZM134.461 99.9219V119H126.562V93.6406H133.945L134.461 99.9219ZM141.961 93.4531L141.82 100.789C141.508 100.758 141.086 100.719 140.555 100.672C140.023 100.625 139.578 100.602 139.219 100.602C138.297 100.602 137.5 100.711 136.828 100.93C136.172 101.133 135.625 101.445 135.188 101.867C134.766 102.273 134.453 102.789 134.25 103.414C134.062 104.039 133.977 104.766 133.992 105.594L132.562 104.656C132.562 102.953 132.727 101.406 133.055 100.016C133.398 98.6094 133.883 97.3984 134.508 96.3828C135.133 95.3516 135.891 94.5625 136.781 94.0156C137.672 93.4531 138.672 93.1719 139.781 93.1719C140.172 93.1719 140.555 93.1953 140.93 93.2422C141.32 93.2891 141.664 93.3594 141.961 93.4531ZM142.852 106.578V106.086C142.852 104.227 143.117 102.516 143.648 100.953C144.18 99.375 144.961 98.0078 145.992 96.8516C147.023 95.6953 148.297 94.7969 149.812 94.1562C151.328 93.5 153.078 93.1719 155.062 93.1719C157.062 93.1719 158.82 93.5 160.336 94.1562C161.867 94.7969 163.148 95.6953 164.18 96.8516C165.211 98.0078 165.992 99.375 166.523 100.953C167.055 102.516 167.32 104.227 167.32 106.086V106.578C167.32 108.422 167.055 110.133 166.523 111.711C165.992 113.273 165.211 114.641 164.18 115.812C163.148 116.969 161.875 117.867 160.359 118.508C158.844 119.148 157.094 119.469 155.109 119.469C153.125 119.469 151.367 119.148 149.836 118.508C148.305 117.867 147.023 116.969 145.992 115.812C144.961 114.641 144.18 113.273 143.648 111.711C143.117 110.133 142.852 108.422 142.852 106.578ZM150.75 106.086V106.578C150.75 107.531 150.82 108.422 150.961 109.25C151.102 110.078 151.336 110.805 151.664 111.43C151.992 112.039 152.438 112.516 153 112.859C153.562 113.203 154.266 113.375 155.109 113.375C155.938 113.375 156.625 113.203 157.172 112.859C157.734 112.516 158.18 112.039 158.508 111.43C158.836 110.805 159.07 110.078 159.211 109.25C159.352 108.422 159.422 107.531 159.422 106.578V106.086C159.422 105.164 159.352 104.297 159.211 103.484C159.07 102.656 158.836 101.93 158.508 101.305C158.18 100.664 157.734 100.164 157.172 99.8047C156.609 99.4453 155.906 99.2656 155.062 99.2656C154.234 99.2656 153.539 99.4453 152.977 99.8047C152.43 100.164 151.992 100.664 151.664 101.305C151.336 101.93 151.102 102.656 150.961 103.484C150.82 104.297 150.75 105.164 150.75 106.086ZM184.195 93.6406V99.125H168.914V93.6406H184.195ZM172.125 87.3359H180.023V110.727C180.023 111.398 180.102 111.922 180.258 112.297C180.414 112.656 180.68 112.914 181.055 113.07C181.445 113.211 181.961 113.281 182.602 113.281C183.055 113.281 183.43 113.273 183.727 113.258C184.023 113.227 184.305 113.188 184.57 113.141V118.789C183.898 119.008 183.195 119.172 182.461 119.281C181.727 119.406 180.945 119.469 180.117 119.469C178.43 119.469 176.984 119.203 175.781 118.672C174.594 118.141 173.688 117.305 173.062 116.164C172.438 115.023 172.125 113.539 172.125 111.711V87.3359ZM185.648 106.578V106.086C185.648 104.227 185.914 102.516 186.445 100.953C186.977 99.375 187.758 98.0078 188.789 96.8516C189.82 95.6953 191.094 94.7969 192.609 94.1562C194.125 93.5 195.875 93.1719 197.859 93.1719C199.859 93.1719 201.617 93.5 203.133 94.1562C204.664 94.7969 205.945 95.6953 206.977 96.8516C208.008 98.0078 208.789 99.375 209.32 100.953C209.852 102.516 210.117 104.227 210.117 106.086V106.578C210.117 108.422 209.852 110.133 209.32 111.711C208.789 113.273 208.008 114.641 206.977 115.812C205.945 116.969 204.672 117.867 203.156 118.508C201.641 119.148 199.891 119.469 197.906 119.469C195.922 119.469 194.164 119.148 192.633 118.508C191.102 117.867 189.82 116.969 188.789 115.812C187.758 114.641 186.977 113.273 186.445 111.711C185.914 110.133 185.648 108.422 185.648 106.578ZM193.547 106.086V106.578C193.547 107.531 193.617 108.422 193.758 109.25C193.898 110.078 194.133 110.805 194.461 111.43C194.789 112.039 195.234 112.516 195.797 112.859C196.359 113.203 197.062 113.375 197.906 113.375C198.734 113.375 199.422 113.203 199.969 112.859C200.531 112.516 200.977 112.039 201.305 111.43C201.633 110.805 201.867 110.078 202.008 109.25C202.148 108.422 202.219 107.531 202.219 106.578V106.086C202.219 105.164 202.148 104.297 202.008 103.484C201.867 102.656 201.633 101.93 201.305 101.305C200.977 100.664 200.531 100.164 199.969 99.8047C199.406 99.4453 198.703 99.2656 197.859 99.2656C197.031 99.2656 196.336 99.4453 195.773 99.8047C195.227 100.164 194.789 100.664 194.461 101.305C194.133 101.93 193.898 102.656 193.758 103.484C193.617 104.297 193.547 105.164 193.547 106.086ZM226.992 93.6406V99.125H211.711V93.6406H226.992ZM214.922 87.3359H222.82V110.727C222.82 111.398 222.898 111.922 223.055 112.297C223.211 112.656 223.477 112.914 223.852 113.07C224.242 113.211 224.758 113.281 225.398 113.281C225.852 113.281 226.227 113.273 226.523 113.258C226.82 113.227 227.102 113.188 227.367 113.141V118.789C226.695 119.008 225.992 119.172 225.258 119.281C224.523 119.406 223.742 119.469 222.914 119.469C221.227 119.469 219.781 119.203 218.578 118.672C217.391 118.141 216.484 117.305 215.859 116.164C215.234 115.023 214.922 113.539 214.922 111.711V87.3359ZM237.914 116.023L244.477 93.6406H252.961L242.766 122.773C242.547 123.414 242.258 124.102 241.898 124.836C241.539 125.586 241.047 126.297 240.422 126.969C239.797 127.641 238.992 128.188 238.008 128.609C237.039 129.031 235.836 129.242 234.398 129.242C233.633 129.242 233.07 129.203 232.711 129.125C232.367 129.062 231.836 128.945 231.117 128.773V123.125C231.32 123.125 231.492 123.125 231.633 123.125C231.789 123.125 231.961 123.125 232.148 123.125C232.992 123.125 233.664 123.039 234.164 122.867C234.68 122.695 235.07 122.445 235.336 122.117C235.617 121.789 235.836 121.391 235.992 120.922L237.914 116.023ZM236.25 93.6406L241.242 111.383L242.109 119.75H236.812L227.789 93.6406H236.25ZM262.992 98.5156V128.75H255.094V93.6406H262.453L262.992 98.5156ZM278.555 106.016V106.508C278.555 108.352 278.344 110.062 277.922 111.641C277.5 113.219 276.875 114.594 276.047 115.766C275.219 116.938 274.188 117.852 272.953 118.508C271.734 119.148 270.32 119.469 268.711 119.469C267.195 119.469 265.891 119.133 264.797 118.461C263.703 117.789 262.789 116.859 262.055 115.672C261.32 114.484 260.727 113.125 260.273 111.594C259.82 110.062 259.461 108.445 259.195 106.742V106.109C259.461 104.281 259.82 102.586 260.273 101.023C260.727 99.4453 261.32 98.0703 262.055 96.8984C262.789 95.7266 263.695 94.8125 264.773 94.1562C265.867 93.5 267.172 93.1719 268.688 93.1719C270.297 93.1719 271.711 93.4766 272.93 94.0859C274.164 94.6953 275.195 95.5703 276.023 96.7109C276.867 97.8359 277.5 99.1875 277.922 100.766C278.344 102.344 278.555 104.094 278.555 106.016ZM270.656 106.508V106.016C270.656 105.031 270.586 104.133 270.445 103.32C270.305 102.492 270.078 101.773 269.766 101.164C269.469 100.555 269.07 100.086 268.57 99.7578C268.07 99.4297 267.453 99.2656 266.719 99.2656C265.875 99.2656 265.164 99.3984 264.586 99.6641C264.023 99.9141 263.57 100.305 263.227 100.836C262.898 101.352 262.664 102 262.523 102.781C262.398 103.547 262.344 104.445 262.359 105.477V107.398C262.328 108.586 262.445 109.633 262.711 110.539C262.977 111.43 263.438 112.125 264.094 112.625C264.75 113.125 265.641 113.375 266.766 113.375C267.516 113.375 268.141 113.203 268.641 112.859C269.141 112.5 269.539 112.008 269.836 111.383C270.133 110.742 270.344 110.008 270.469 109.18C270.594 108.352 270.656 107.461 270.656 106.508ZM290.414 93.6406V119H282.492V93.6406H290.414ZM282.023 87.1016C282.023 85.9766 282.43 85.0547 283.242 84.3359C284.055 83.6172 285.109 83.2578 286.406 83.2578C287.703 83.2578 288.758 83.6172 289.57 84.3359C290.383 85.0547 290.789 85.9766 290.789 87.1016C290.789 88.2266 290.383 89.1484 289.57 89.8672C288.758 90.5859 287.703 90.9453 286.406 90.9453C285.109 90.9453 284.055 90.5859 283.242 89.8672C282.43 89.1484 282.023 88.2266 282.023 87.1016ZM303.047 99.0547V119H295.148V93.6406H302.555L303.047 99.0547ZM302.109 105.453L300.258 105.5C300.258 103.562 300.492 101.836 300.961 100.32C301.43 98.7891 302.094 97.4922 302.953 96.4297C303.812 95.3672 304.836 94.5625 306.023 94.0156C307.227 93.4531 308.562 93.1719 310.031 93.1719C311.203 93.1719 312.273 93.3438 313.242 93.6875C314.227 94.0312 315.07 94.5859 315.773 95.3516C316.492 96.1172 317.039 97.1328 317.414 98.3984C317.805 99.6484 318 101.195 318 103.039V119H310.055V103.016C310.055 102 309.914 101.227 309.633 100.695C309.352 100.148 308.945 99.7734 308.414 99.5703C307.883 99.3672 307.234 99.2656 306.469 99.2656C305.656 99.2656 304.969 99.4219 304.406 99.7344C303.844 100.047 303.391 100.484 303.047 101.047C302.719 101.594 302.477 102.242 302.32 102.992C302.18 103.742 302.109 104.562 302.109 105.453ZM338.32 93.6406H345.492V118.016C345.492 120.359 344.953 122.344 343.875 123.969C342.797 125.609 341.289 126.852 339.352 127.695C337.43 128.555 335.18 128.984 332.602 128.984C331.461 128.984 330.297 128.836 329.109 128.539C327.922 128.258 326.812 127.836 325.781 127.273C324.75 126.711 323.883 126.016 323.18 125.188L326.484 120.547C327.125 121.266 327.93 121.875 328.898 122.375C329.867 122.891 331.008 123.148 332.32 123.148C333.461 123.148 334.414 122.945 335.18 122.539C335.961 122.133 336.555 121.539 336.961 120.758C337.367 119.992 337.57 119.062 337.57 117.969V99.6406L338.32 93.6406ZM321.469 106.625V106.133C321.469 104.211 321.703 102.461 322.172 100.883C322.656 99.2891 323.344 97.9219 324.234 96.7812C325.141 95.625 326.234 94.7344 327.516 94.1094C328.797 93.4844 330.242 93.1719 331.852 93.1719C333.586 93.1719 335.008 93.5078 336.117 94.1797C337.242 94.8359 338.141 95.7578 338.812 96.9453C339.5 98.1328 340.031 99.5234 340.406 101.117C340.797 102.695 341.125 104.398 341.391 106.227V106.812C341.125 108.531 340.758 110.156 340.289 111.688C339.836 113.203 339.242 114.547 338.508 115.719C337.773 116.891 336.852 117.812 335.742 118.484C334.648 119.141 333.336 119.469 331.805 119.469C330.211 119.469 328.773 119.148 327.492 118.508C326.227 117.867 325.141 116.969 324.234 115.812C323.344 114.656 322.656 113.297 322.172 111.734C321.703 110.172 321.469 108.469 321.469 106.625ZM329.367 106.133V106.625C329.367 107.578 329.453 108.461 329.625 109.273C329.812 110.086 330.094 110.805 330.469 111.43C330.844 112.039 331.305 112.516 331.852 112.859C332.414 113.203 333.07 113.375 333.82 113.375C334.961 113.375 335.883 113.133 336.586 112.648C337.289 112.164 337.797 111.477 338.109 110.586C338.422 109.695 338.555 108.648 338.508 107.445V105.594C338.539 104.562 338.469 103.656 338.297 102.875C338.125 102.078 337.852 101.414 337.477 100.883C337.117 100.352 336.633 99.9531 336.023 99.6875C335.43 99.4062 334.711 99.2656 333.867 99.2656C333.133 99.2656 332.484 99.4375 331.922 99.7812C331.359 100.125 330.891 100.609 330.516 101.234C330.141 101.844 329.852 102.57 329.648 103.414C329.461 104.242 329.367 105.148 329.367 106.133Z" fill="black"/>
<path d="M1134 0H1348C1356.28 0 1363 6.71573 1363 15V148C1363 156.284 1356.28 163 1348 163H1134V0Z" fill="#326789"/>
<path fill-rule="evenodd" clip-rule="evenodd" d="M1202.75 46.5018C1202.75 45.3973 1203.65 44.5018 1204.75 44.5018H1292.25C1293.35 44.5018 1294.25 45.3973 1294.25 46.5018V116.498C1294.25 117.603 1293.35 118.498 1292.25 118.498H1204.75C1203.65 118.498 1202.75 117.603 1202.75 116.498V46.5018ZM1206.75 48.5018V52.9963H1290.25V48.5018H1206.75ZM1290.25 56.9963H1235.19V114.498H1290.25V56.9963ZM1231.19 114.498V56.9963H1206.75V114.498H1231.19Z" fill="white"/>
<path fill-rule="evenodd" clip-rule="evenodd" d="M1209.72 62.3022C1209.72 61.1976 1210.62 60.3022 1211.72 60.3022H1225.72C1226.83 60.3022 1227.72 61.1976 1227.72 62.3022V81.6974C1227.72 82.802 1226.83 83.6974 1225.72 83.6974H1211.72C1210.62 83.6974 1209.72 82.802 1209.72 81.6974V62.3022ZM1213.72 64.3022V79.6974H1223.72V64.3022H1213.72ZM1239.33 63.1982C1239.33 62.0936 1240.22 61.1982 1241.33 61.1982H1284.25C1285.36 61.1982 1286.25 62.0936 1286.25 63.1982V109.407C1286.25 110.511 1285.36 111.407 1284.25 111.407H1241.33C1240.22 111.407 1239.33 110.511 1239.33 109.407V63.1982ZM1243.33 65.1982V107.407H1282.25V65.1982H1243.33ZM1209.56 93.4381C1209.56 92.3336 1210.46 91.4381 1211.56 91.4381H1220.48C1221.59 91.4381 1222.48 92.3336 1222.48 93.4381C1222.48 94.5427 1221.59 95.4381 1220.48 95.4381H1211.56C1210.46 95.4381 1209.56 94.5427 1209.56 93.4381ZM1209.56 100.438C1209.56 99.3335 1210.46 98.4381 1211.56 98.4381H1226.1C1227.21 98.4381 1228.1 99.3335 1228.1 100.438C1228.1 101.543 1227.21 102.438 1226.1 102.438H1211.56C1210.46 102.438 1209.56 101.543 1209.56 100.438ZM1209.56 107.438C1209.56 106.334 1210.46 105.438 1211.56 105.438H1220.48C1221.59 105.438 1222.48 106.334 1222.48 107.438C1222.48 108.543 1221.59 109.438 1220.48 109.438H1211.56C1210.46 109.438 1209.56 108.543 1209.56 107.438Z" fill="white"/>
</svg>
