<svg width="1363" height="297" viewBox="0 0 1363 297" fill="none" xmlns="http://www.w3.org/2000/svg">
<path d="M0 15C0 6.71573 6.71573 0 15 0H37V297H15C6.71573 297 0 290.284 0 282V15Z" fill="#326789"/>
<path d="M37 0H1066V297H37V0Z" fill="#F0F0F0"/>
<path d="M105.691 53.7832L98.7305 75H93.123L102.633 49.4062H106.201L105.691 53.7832ZM111.475 75L104.496 53.7832L103.934 49.4062H107.537L117.1 75H111.475ZM111.158 65.4727V69.6035H97.6406V65.4727H111.158ZM124.5 48V75H119.42V48H124.5ZM134.027 55.9805V75H128.947V55.9805H134.027ZM128.631 51.0234C128.631 50.2852 128.889 49.6758 129.404 49.1953C129.92 48.7148 130.611 48.4746 131.479 48.4746C132.334 48.4746 133.02 48.7148 133.535 49.1953C134.062 49.6758 134.326 50.2852 134.326 51.0234C134.326 51.7617 134.062 52.3711 133.535 52.8516C133.02 53.332 132.334 53.5723 131.479 53.5723C130.611 53.5723 129.92 53.332 129.404 52.8516C128.889 52.3711 128.631 51.7617 128.631 51.0234ZM157.898 53.7832L150.938 75H145.33L154.84 49.4062H158.408L157.898 53.7832ZM163.682 75L156.703 53.7832L156.141 49.4062H159.744L169.307 75H163.682ZM163.365 65.4727V69.6035H149.848V65.4727H163.365ZM176.707 48V75H171.627V48H176.707ZM207.24 59.8301V63.9434H193.881V59.8301H207.24ZM195.445 49.4062V75H190.172V49.4062H195.445ZM211.002 49.4062V75H205.746V49.4062H211.002ZM225.539 70.7109V62.2383C225.539 61.6289 225.439 61.1074 225.24 60.6738C225.041 60.2285 224.73 59.8828 224.309 59.6367C223.898 59.3906 223.365 59.2676 222.709 59.2676C222.146 59.2676 221.66 59.3672 221.25 59.5664C220.84 59.7539 220.523 60.0293 220.301 60.3926C220.078 60.7441 219.967 61.1602 219.967 61.6406H214.904C214.904 60.832 215.092 60.0645 215.467 59.3379C215.842 58.6113 216.387 57.9727 217.102 57.4219C217.816 56.8594 218.666 56.4199 219.65 56.1035C220.646 55.7871 221.76 55.6289 222.99 55.6289C224.467 55.6289 225.779 55.875 226.928 56.3672C228.076 56.8594 228.979 57.5977 229.635 58.582C230.303 59.5664 230.637 60.7969 230.637 62.2734V70.4121C230.637 71.4551 230.701 72.3105 230.83 72.9785C230.959 73.6348 231.146 74.209 231.393 74.7012V75H226.277C226.031 74.4844 225.844 73.8398 225.715 73.0664C225.598 72.2812 225.539 71.4961 225.539 70.7109ZM226.207 63.416L226.242 66.2812H223.412C222.744 66.2812 222.164 66.3574 221.672 66.5098C221.18 66.6621 220.775 66.8789 220.459 67.1602C220.143 67.4297 219.908 67.7461 219.756 68.1094C219.615 68.4727 219.545 68.8711 219.545 69.3047C219.545 69.7383 219.645 70.1309 219.844 70.4824C220.043 70.8223 220.33 71.0918 220.705 71.291C221.08 71.4785 221.52 71.5723 222.023 71.5723C222.785 71.5723 223.447 71.4199 224.01 71.1152C224.572 70.8105 225.006 70.4355 225.311 69.9902C225.627 69.5449 225.791 69.123 225.803 68.7246L227.139 70.8691C226.951 71.3496 226.693 71.8477 226.365 72.3633C226.049 72.8789 225.645 73.3652 225.152 73.8223C224.66 74.2676 224.068 74.6367 223.377 74.9297C222.686 75.2109 221.865 75.3516 220.916 75.3516C219.709 75.3516 218.613 75.1113 217.629 74.6309C216.656 74.1387 215.883 73.4648 215.309 72.6094C214.746 71.7422 214.465 70.7578 214.465 69.6562C214.465 68.6602 214.652 67.7754 215.027 67.002C215.402 66.2285 215.953 65.5781 216.68 65.0508C217.418 64.5117 218.338 64.1074 219.439 63.8379C220.541 63.5566 221.818 63.416 223.271 63.416H226.207ZM245.771 70.8516V48H250.869V75H246.281L245.771 70.8516ZM233.748 65.7188V65.3496C233.748 63.8965 233.912 62.5781 234.24 61.3945C234.568 60.1992 235.049 59.1738 235.682 58.3184C236.314 57.4629 237.094 56.8008 238.02 56.332C238.945 55.8633 240 55.6289 241.184 55.6289C242.297 55.6289 243.27 55.8633 244.102 56.332C244.945 56.8008 245.66 57.4688 246.246 58.3359C246.844 59.1914 247.324 60.2051 247.688 61.377C248.051 62.5371 248.314 63.8086 248.479 65.1914V66C248.314 67.3242 248.051 68.5547 247.688 69.6914C247.324 70.8281 246.844 71.8242 246.246 72.6797C245.66 73.5234 244.945 74.1797 244.102 74.6484C243.258 75.1172 242.273 75.3516 241.148 75.3516C239.965 75.3516 238.91 75.1113 237.984 74.6309C237.07 74.1504 236.297 73.4766 235.664 72.6094C235.043 71.7422 234.568 70.7227 234.24 69.5508C233.912 68.3789 233.748 67.1016 233.748 65.7188ZM238.811 65.3496V65.7188C238.811 66.5039 238.869 67.2363 238.986 67.916C239.115 68.5957 239.32 69.1992 239.602 69.7266C239.895 70.2422 240.27 70.6465 240.727 70.9395C241.195 71.2207 241.764 71.3613 242.432 71.3613C243.299 71.3613 244.014 71.168 244.576 70.7812C245.139 70.3828 245.566 69.8379 245.859 69.1465C246.164 68.4551 246.34 67.6582 246.387 66.7559V64.4531C246.352 63.7148 246.246 63.0527 246.07 62.4668C245.906 61.8691 245.66 61.3594 245.332 60.9375C245.016 60.5156 244.617 60.1875 244.137 59.9531C243.668 59.7188 243.111 59.6016 242.467 59.6016C241.811 59.6016 241.248 59.7539 240.779 60.0586C240.311 60.3516 239.93 60.7559 239.637 61.2715C239.355 61.7871 239.145 62.3965 239.004 63.0996C238.875 63.791 238.811 64.541 238.811 65.3496ZM260.168 55.9805V75H255.088V55.9805H260.168ZM254.771 51.0234C254.771 50.2852 255.029 49.6758 255.545 49.1953C256.061 48.7148 256.752 48.4746 257.619 48.4746C258.475 48.4746 259.16 48.7148 259.676 49.1953C260.203 49.6758 260.467 50.2852 260.467 51.0234C260.467 51.7617 260.203 52.3711 259.676 52.8516C259.16 53.332 258.475 53.5723 257.619 53.5723C256.752 53.5723 256.061 53.332 255.545 52.8516C255.029 52.3711 254.771 51.7617 254.771 51.0234ZM290.807 70.8867V75H277.184V70.8867H290.807ZM278.906 49.4062V75H273.633V49.4062H278.906ZM289.031 59.8301V63.8379H277.184V59.8301H289.031ZM290.789 49.4062V53.5371H277.184V49.4062H290.789ZM298.91 48V75H293.83V48H298.91ZM310.951 71.3965C311.572 71.3965 312.123 71.2793 312.604 71.0449C313.084 70.7988 313.459 70.459 313.729 70.0254C314.01 69.5801 314.156 69.0586 314.168 68.4609H318.932C318.92 69.7969 318.562 70.9863 317.859 72.0293C317.156 73.0605 316.213 73.875 315.029 74.4727C313.846 75.0586 312.521 75.3516 311.057 75.3516C309.58 75.3516 308.291 75.1055 307.189 74.6133C306.1 74.1211 305.191 73.4414 304.465 72.5742C303.738 71.6953 303.193 70.6758 302.83 69.5156C302.467 68.3438 302.285 67.0898 302.285 65.7539V65.2441C302.285 63.8965 302.467 62.6426 302.83 61.4824C303.193 60.3105 303.738 59.291 304.465 58.4238C305.191 57.5449 306.1 56.8594 307.189 56.3672C308.279 55.875 309.557 55.6289 311.021 55.6289C312.58 55.6289 313.945 55.9277 315.117 56.5254C316.301 57.123 317.227 57.9785 317.895 59.0918C318.574 60.1934 318.92 61.5 318.932 63.0117H314.168C314.156 62.3789 314.021 61.8047 313.764 61.2891C313.518 60.7734 313.154 60.3633 312.674 60.0586C312.205 59.7422 311.625 59.584 310.934 59.584C310.195 59.584 309.592 59.7422 309.123 60.0586C308.654 60.3633 308.291 60.7852 308.033 61.3242C307.775 61.8516 307.594 62.4551 307.488 63.1348C307.395 63.8027 307.348 64.5059 307.348 65.2441V65.7539C307.348 66.4922 307.395 67.2012 307.488 67.8809C307.582 68.5605 307.758 69.1641 308.016 69.6914C308.285 70.2188 308.654 70.6348 309.123 70.9395C309.592 71.2441 310.201 71.3965 310.951 71.3965ZM326.807 48V75H321.744V48H326.807ZM326.086 64.8223H324.697C324.709 63.498 324.885 62.2793 325.225 61.166C325.564 60.041 326.051 59.0684 326.684 58.248C327.316 57.416 328.072 56.7715 328.951 56.3145C329.842 55.8574 330.826 55.6289 331.904 55.6289C332.842 55.6289 333.691 55.7637 334.453 56.0332C335.227 56.291 335.889 56.7129 336.439 57.2988C337.002 57.873 337.436 58.6289 337.74 59.5664C338.045 60.5039 338.197 61.6406 338.197 62.9766V75H333.1V62.9414C333.1 62.0977 332.977 61.4355 332.73 60.9551C332.496 60.4629 332.15 60.1172 331.693 59.918C331.248 59.707 330.697 59.6016 330.041 59.6016C329.314 59.6016 328.693 59.7363 328.178 60.0059C327.674 60.2754 327.27 60.6504 326.965 61.1309C326.66 61.5996 326.438 62.1504 326.297 62.7832C326.156 63.416 326.086 64.0957 326.086 64.8223ZM352.312 70.7109V62.2383C352.312 61.6289 352.213 61.1074 352.014 60.6738C351.814 60.2285 351.504 59.8828 351.082 59.6367C350.672 59.3906 350.139 59.2676 349.482 59.2676C348.92 59.2676 348.434 59.3672 348.023 59.5664C347.613 59.7539 347.297 60.0293 347.074 60.3926C346.852 60.7441 346.74 61.1602 346.74 61.6406H341.678C341.678 60.832 341.865 60.0645 342.24 59.3379C342.615 58.6113 343.16 57.9727 343.875 57.4219C344.59 56.8594 345.439 56.4199 346.424 56.1035C347.42 55.7871 348.533 55.6289 349.764 55.6289C351.24 55.6289 352.553 55.875 353.701 56.3672C354.85 56.8594 355.752 57.5977 356.408 58.582C357.076 59.5664 357.41 60.7969 357.41 62.2734V70.4121C357.41 71.4551 357.475 72.3105 357.604 72.9785C357.732 73.6348 357.92 74.209 358.166 74.7012V75H353.051C352.805 74.4844 352.617 73.8398 352.488 73.0664C352.371 72.2812 352.312 71.4961 352.312 70.7109ZM352.98 63.416L353.016 66.2812H350.186C349.518 66.2812 348.938 66.3574 348.445 66.5098C347.953 66.6621 347.549 66.8789 347.232 67.1602C346.916 67.4297 346.682 67.7461 346.529 68.1094C346.389 68.4727 346.318 68.8711 346.318 69.3047C346.318 69.7383 346.418 70.1309 346.617 70.4824C346.816 70.8223 347.104 71.0918 347.479 71.291C347.854 71.4785 348.293 71.5723 348.797 71.5723C349.559 71.5723 350.221 71.4199 350.783 71.1152C351.346 70.8105 351.779 70.4355 352.084 69.9902C352.4 69.5449 352.564 69.123 352.576 68.7246L353.912 70.8691C353.725 71.3496 353.467 71.8477 353.139 72.3633C352.822 72.8789 352.418 73.3652 351.926 73.8223C351.434 74.2676 350.842 74.6367 350.15 74.9297C349.459 75.2109 348.639 75.3516 347.689 75.3516C346.482 75.3516 345.387 75.1113 344.402 74.6309C343.43 74.1387 342.656 73.4648 342.082 72.6094C341.52 71.7422 341.238 70.7578 341.238 69.6562C341.238 68.6602 341.426 67.7754 341.801 67.002C342.176 66.2285 342.727 65.5781 343.453 65.0508C344.191 64.5117 345.111 64.1074 346.213 63.8379C347.314 63.5566 348.592 63.416 350.045 63.416H352.98ZM361.312 48H366.375V70.6406L365.865 75H361.312V48ZM378.416 65.2969V65.666C378.416 67.084 378.264 68.3848 377.959 69.5684C377.666 70.752 377.209 71.7773 376.588 72.6445C375.967 73.5 375.193 74.168 374.268 74.6484C373.354 75.1172 372.275 75.3516 371.033 75.3516C369.873 75.3516 368.865 75.1172 368.01 74.6484C367.166 74.1797 366.457 73.5176 365.883 72.6621C365.309 71.8066 364.846 70.8047 364.494 69.6562C364.143 68.5078 363.879 67.2539 363.703 65.8945V65.0859C363.879 63.7266 364.143 62.4727 364.494 61.3242C364.846 60.1758 365.309 59.1738 365.883 58.3184C366.457 57.4629 367.166 56.8008 368.01 56.332C368.854 55.8633 369.85 55.6289 370.998 55.6289C372.252 55.6289 373.342 55.8691 374.268 56.3496C375.205 56.8184 375.979 57.4863 376.588 58.3535C377.209 59.209 377.666 60.2285 377.959 61.4121C378.264 62.584 378.416 63.8789 378.416 65.2969ZM373.354 65.666V65.2969C373.354 64.5234 373.295 63.7969 373.178 63.1172C373.072 62.4258 372.885 61.8223 372.615 61.3066C372.346 60.7793 371.977 60.3633 371.508 60.0586C371.051 59.7539 370.459 59.6016 369.732 59.6016C369.041 59.6016 368.455 59.7188 367.975 59.9531C367.494 60.1875 367.096 60.5156 366.779 60.9375C366.475 61.3594 366.246 61.8633 366.094 62.4492C365.941 63.0234 365.848 63.6562 365.812 64.3477V66.6504C365.848 67.5762 366 68.3965 366.27 69.1113C366.551 69.8145 366.973 70.3711 367.535 70.7812C368.109 71.1797 368.854 71.3789 369.768 71.3789C370.482 71.3789 371.074 71.2383 371.543 70.957C372.012 70.6758 372.375 70.2773 372.633 69.7617C372.902 69.2461 373.09 68.6426 373.195 67.9512C373.301 67.248 373.354 66.4863 373.354 65.666Z" fill="#888888"/>
<path d="M122.34 132.617V140H102.215V132.617H122.34ZM105.633 100.188V140H96.0352V100.188H105.633ZM141.316 132.562V120.367C141.316 119.529 141.198 118.809 140.961 118.207C140.724 117.605 140.35 117.141 139.84 116.812C139.329 116.466 138.646 116.293 137.789 116.293C137.096 116.293 136.504 116.411 136.012 116.648C135.52 116.885 135.146 117.241 134.891 117.715C134.635 118.189 134.508 118.79 134.508 119.52H125.293C125.293 118.152 125.594 116.885 126.195 115.719C126.815 114.534 127.69 113.504 128.82 112.629C129.969 111.754 131.336 111.079 132.922 110.605C134.526 110.113 136.312 109.867 138.281 109.867C140.633 109.867 142.729 110.259 144.57 111.043C146.43 111.827 147.897 113.003 148.973 114.57C150.048 116.12 150.586 118.07 150.586 120.422V132.535C150.586 134.467 150.695 135.935 150.914 136.938C151.133 137.922 151.443 138.788 151.844 139.535V140H142.602C142.164 139.089 141.836 137.977 141.617 136.664C141.417 135.333 141.316 133.966 141.316 132.562ZM142.438 121.926L142.492 126.848H138.418C137.561 126.848 136.832 126.966 136.23 127.203C135.647 127.44 135.173 127.768 134.809 128.188C134.462 128.589 134.207 129.044 134.043 129.555C133.897 130.065 133.824 130.603 133.824 131.168C133.824 131.715 133.952 132.207 134.207 132.645C134.48 133.064 134.845 133.392 135.301 133.629C135.757 133.866 136.267 133.984 136.832 133.984C137.853 133.984 138.719 133.793 139.43 133.41C140.159 133.009 140.715 132.526 141.098 131.961C141.48 131.396 141.672 130.867 141.672 130.375L143.695 134.148C143.331 134.878 142.911 135.616 142.438 136.363C141.982 137.111 141.408 137.803 140.715 138.441C140.04 139.061 139.211 139.572 138.227 139.973C137.242 140.355 136.048 140.547 134.645 140.547C132.822 140.547 131.145 140.173 129.613 139.426C128.1 138.678 126.888 137.639 125.977 136.309C125.065 134.96 124.609 133.41 124.609 131.66C124.609 130.129 124.883 128.762 125.43 127.559C125.995 126.355 126.842 125.335 127.973 124.496C129.103 123.658 130.543 123.02 132.293 122.582C134.043 122.145 136.103 121.926 138.473 121.926H142.438ZM172.98 132.809V110.414H182.223V140H173.582L172.98 132.809ZM173.855 126.793L176.262 126.738C176.262 128.725 176.025 130.566 175.551 132.262C175.077 133.939 174.375 135.397 173.445 136.637C172.534 137.876 171.404 138.842 170.055 139.535C168.724 140.21 167.184 140.547 165.434 140.547C163.975 140.547 162.635 140.346 161.414 139.945C160.211 139.526 159.172 138.879 158.297 138.004C157.422 137.111 156.738 135.971 156.246 134.586C155.772 133.182 155.535 131.505 155.535 129.555V110.414H164.75V129.609C164.75 130.266 164.832 130.831 164.996 131.305C165.16 131.779 165.397 132.18 165.707 132.508C166.017 132.818 166.4 133.055 166.855 133.219C167.329 133.365 167.867 133.438 168.469 133.438C169.854 133.438 170.939 133.146 171.723 132.562C172.507 131.979 173.053 131.186 173.363 130.184C173.691 129.181 173.855 128.051 173.855 126.793ZM196.359 116.73V140H187.145V110.414H195.785L196.359 116.73ZM195.266 124.195L193.105 124.25C193.105 121.99 193.379 119.975 193.926 118.207C194.473 116.421 195.247 114.908 196.25 113.668C197.253 112.428 198.447 111.49 199.832 110.852C201.236 110.195 202.794 109.867 204.508 109.867C205.875 109.867 207.124 110.068 208.254 110.469C209.402 110.87 210.387 111.517 211.207 112.41C212.046 113.303 212.684 114.488 213.121 115.965C213.577 117.423 213.805 119.228 213.805 121.379V140H204.535V121.352C204.535 120.167 204.371 119.264 204.043 118.645C203.715 118.007 203.241 117.569 202.621 117.332C202.001 117.095 201.245 116.977 200.352 116.977C199.404 116.977 198.602 117.159 197.945 117.523C197.289 117.888 196.76 118.398 196.359 119.055C195.977 119.693 195.694 120.449 195.512 121.324C195.348 122.199 195.266 123.156 195.266 124.195ZM231.414 133.438C232.271 133.438 233 133.283 233.602 132.973C234.221 132.645 234.686 132.189 234.996 131.605C235.324 131.004 235.479 130.284 235.461 129.445H244.129C244.147 131.669 243.6 133.62 242.488 135.297C241.395 136.956 239.9 138.25 238.004 139.18C236.126 140.091 234.003 140.547 231.633 140.547C229.318 140.547 227.294 140.173 225.562 139.426C223.831 138.66 222.382 137.603 221.215 136.254C220.066 134.887 219.201 133.292 218.617 131.469C218.052 129.646 217.77 127.668 217.77 125.535V124.906C217.77 122.773 218.052 120.796 218.617 118.973C219.201 117.132 220.066 115.536 221.215 114.188C222.382 112.82 223.822 111.763 225.535 111.016C227.267 110.25 229.281 109.867 231.578 109.867C234.039 109.867 236.208 110.332 238.086 111.262C239.982 112.191 241.467 113.54 242.543 115.309C243.618 117.077 244.147 119.219 244.129 121.734H235.461C235.479 120.841 235.342 120.039 235.051 119.328C234.759 118.617 234.303 118.052 233.684 117.633C233.082 117.195 232.307 116.977 231.359 116.977C230.411 116.977 229.646 117.186 229.062 117.605C228.479 118.025 228.033 118.608 227.723 119.355C227.431 120.085 227.23 120.923 227.121 121.871C227.03 122.819 226.984 123.831 226.984 124.906V125.535C226.984 126.629 227.03 127.659 227.121 128.625C227.23 129.573 227.44 130.411 227.75 131.141C228.06 131.852 228.507 132.417 229.09 132.836C229.673 133.237 230.448 133.438 231.414 133.438ZM257.09 98V140H247.875V98H257.09ZM255.996 124.195L253.836 124.25C253.836 122.172 254.091 120.258 254.602 118.508C255.112 116.758 255.841 115.236 256.789 113.941C257.737 112.647 258.876 111.645 260.207 110.934C261.538 110.223 263.014 109.867 264.637 109.867C266.095 109.867 267.426 110.077 268.629 110.496C269.85 110.915 270.898 111.59 271.773 112.52C272.667 113.449 273.35 114.661 273.824 116.156C274.316 117.651 274.562 119.474 274.562 121.625V140H265.293V121.57C265.293 120.367 265.12 119.438 264.773 118.781C264.445 118.107 263.971 117.642 263.352 117.387C262.732 117.113 261.975 116.977 261.082 116.977C260.007 116.977 259.132 117.159 258.457 117.523C257.783 117.888 257.263 118.398 256.898 119.055C256.552 119.693 256.315 120.449 256.188 121.324C256.06 122.199 255.996 123.156 255.996 124.195ZM306.938 115.992V123.375H286.512V115.992H306.938ZM289.711 100.188V140H280.113V100.188H289.711ZM313.391 100.188V140H303.82V100.188H313.391ZM336.332 132.809V110.414H345.574V140H336.934L336.332 132.809ZM337.207 126.793L339.613 126.738C339.613 128.725 339.376 130.566 338.902 132.262C338.428 133.939 337.727 135.397 336.797 136.637C335.885 137.876 334.755 138.842 333.406 139.535C332.076 140.21 330.535 140.547 328.785 140.547C327.327 140.547 325.987 140.346 324.766 139.945C323.562 139.526 322.523 138.879 321.648 138.004C320.773 137.111 320.09 135.971 319.598 134.586C319.124 133.182 318.887 131.505 318.887 129.555V110.414H328.102V129.609C328.102 130.266 328.184 130.831 328.348 131.305C328.512 131.779 328.749 132.18 329.059 132.508C329.368 132.818 329.751 133.055 330.207 133.219C330.681 133.365 331.219 133.438 331.82 133.438C333.206 133.438 334.29 133.146 335.074 132.562C335.858 131.979 336.405 131.186 336.715 130.184C337.043 129.181 337.207 128.051 337.207 126.793ZM350.742 98H359.957V132.727L359 140H350.742V98ZM378.113 124.879V125.453C378.113 127.695 377.885 129.737 377.43 131.578C376.974 133.419 376.272 135.014 375.324 136.363C374.376 137.694 373.182 138.724 371.742 139.453C370.302 140.182 368.598 140.547 366.629 140.547C364.842 140.547 363.311 140.164 362.035 139.398C360.759 138.615 359.693 137.539 358.836 136.172C357.979 134.786 357.286 133.191 356.758 131.387C356.229 129.564 355.81 127.613 355.5 125.535V124.852C355.81 122.792 356.229 120.859 356.758 119.055C357.286 117.232 357.979 115.637 358.836 114.27C359.693 112.884 360.75 111.809 362.008 111.043C363.284 110.259 364.806 109.867 366.574 109.867C368.561 109.867 370.275 110.241 371.715 110.988C373.173 111.736 374.376 112.784 375.324 114.133C376.272 115.482 376.974 117.068 377.43 118.891C377.885 120.714 378.113 122.71 378.113 124.879ZM368.898 125.453V124.879C368.898 123.803 368.835 122.792 368.707 121.844C368.579 120.896 368.352 120.057 368.023 119.328C367.695 118.599 367.23 118.025 366.629 117.605C366.027 117.186 365.243 116.977 364.277 116.977C363.293 116.977 362.464 117.141 361.789 117.469C361.133 117.797 360.604 118.271 360.203 118.891C359.82 119.492 359.547 120.24 359.383 121.133C359.219 122.008 359.146 123.001 359.164 124.113V126.273C359.128 127.786 359.264 129.081 359.574 130.156C359.884 131.232 360.422 132.052 361.188 132.617C361.953 133.182 363.001 133.465 364.332 133.465C365.316 133.465 366.109 133.273 366.711 132.891C367.331 132.508 367.796 131.961 368.105 131.25C368.415 130.539 368.625 129.691 368.734 128.707C368.844 127.723 368.898 126.638 368.898 125.453Z" fill="black"/>
<rect x="93" y="178" width="917" height="77" rx="10" fill="#D3D3D3"/>
<rect x="111" y="196" width="98" height="41" rx="3" fill="#424242"/>
<rect x="111" y="196" width="98" height="41" rx="3" stroke="#424242" stroke-width="4"/>
<path d="M137.078 210.203V223H133.993V210.203H137.078ZM142.053 215.529V217.902H136.199V215.529H142.053ZM142.554 210.203V212.585H136.199V210.203H142.554ZM146.825 209.5V223H143.854V209.5H146.825ZM154.208 220.688V213.49H157.179V223H154.401L154.208 220.688ZM154.489 218.755L155.263 218.737C155.263 219.376 155.187 219.968 155.034 220.513C154.882 221.052 154.656 221.521 154.357 221.919C154.064 222.317 153.701 222.628 153.268 222.851C152.84 223.067 152.345 223.176 151.782 223.176C151.313 223.176 150.883 223.111 150.49 222.982C150.104 222.848 149.77 222.64 149.488 222.358C149.207 222.071 148.987 221.705 148.829 221.26C148.677 220.809 148.601 220.27 148.601 219.643V213.49H151.562V219.66C151.562 219.871 151.589 220.053 151.642 220.205C151.694 220.357 151.771 220.486 151.87 220.592C151.97 220.691 152.093 220.768 152.239 220.82C152.392 220.867 152.564 220.891 152.758 220.891C153.203 220.891 153.552 220.797 153.804 220.609C154.056 220.422 154.231 220.167 154.331 219.845C154.437 219.522 154.489 219.159 154.489 218.755ZM163.823 213.49V215.547H158.093V213.49H163.823ZM159.297 211.126H162.259V219.897C162.259 220.149 162.288 220.346 162.347 220.486C162.405 220.621 162.505 220.718 162.646 220.776C162.792 220.829 162.985 220.855 163.226 220.855C163.396 220.855 163.536 220.853 163.647 220.847C163.759 220.835 163.864 220.82 163.964 220.803V222.921C163.712 223.003 163.448 223.064 163.173 223.105C162.897 223.152 162.604 223.176 162.294 223.176C161.661 223.176 161.119 223.076 160.668 222.877C160.223 222.678 159.883 222.364 159.648 221.937C159.414 221.509 159.297 220.952 159.297 220.267V211.126ZM170.011 213.49V215.547H164.28V213.49H170.011ZM165.484 211.126H168.446V219.897C168.446 220.149 168.476 220.346 168.534 220.486C168.593 220.621 168.692 220.718 168.833 220.776C168.979 220.829 169.173 220.855 169.413 220.855C169.583 220.855 169.724 220.853 169.835 220.847C169.946 220.835 170.052 220.82 170.151 220.803V222.921C169.899 223.003 169.636 223.064 169.36 223.105C169.085 223.152 168.792 223.176 168.481 223.176C167.849 223.176 167.307 223.076 166.855 222.877C166.41 222.678 166.07 222.364 165.836 221.937C165.602 221.509 165.484 220.952 165.484 220.267V211.126ZM175.794 223.176C175.021 223.176 174.329 223.056 173.72 222.815C173.11 222.569 172.595 222.232 172.173 221.805C171.757 221.377 171.438 220.885 171.215 220.328C170.998 219.771 170.89 219.183 170.89 218.562V218.228C170.89 217.53 170.986 216.886 171.18 216.294C171.373 215.696 171.66 215.175 172.041 214.729C172.422 214.284 172.899 213.938 173.474 213.692C174.048 213.44 174.716 213.314 175.478 213.314C176.151 213.314 176.755 213.423 177.288 213.64C177.821 213.856 178.272 214.167 178.642 214.571C179.017 214.976 179.301 215.465 179.494 216.039C179.693 216.613 179.793 217.258 179.793 217.973V219.177H172.023V217.322H176.901V217.094C176.907 216.777 176.852 216.508 176.734 216.285C176.623 216.062 176.459 215.893 176.242 215.775C176.025 215.658 175.762 215.6 175.451 215.6C175.129 215.6 174.862 215.67 174.651 215.811C174.446 215.951 174.285 216.145 174.168 216.391C174.057 216.631 173.978 216.909 173.931 217.226C173.884 217.542 173.86 217.876 173.86 218.228V218.562C173.86 218.913 173.907 219.232 174.001 219.52C174.101 219.807 174.241 220.053 174.423 220.258C174.61 220.457 174.833 220.612 175.091 220.724C175.354 220.835 175.653 220.891 175.987 220.891C176.392 220.891 176.79 220.814 177.183 220.662C177.575 220.51 177.912 220.258 178.193 219.906L179.538 221.506C179.345 221.781 179.069 222.048 178.712 222.306C178.36 222.563 177.938 222.774 177.446 222.938C176.954 223.097 176.403 223.176 175.794 223.176ZM183.985 215.846V223H181.023V213.49H183.792L183.985 215.846ZM186.798 213.42L186.745 216.171C186.628 216.159 186.47 216.145 186.271 216.127C186.071 216.109 185.904 216.101 185.77 216.101C185.424 216.101 185.125 216.142 184.873 216.224C184.627 216.3 184.422 216.417 184.258 216.575C184.1 216.728 183.982 216.921 183.906 217.155C183.836 217.39 183.804 217.662 183.81 217.973L183.273 217.621C183.273 216.982 183.335 216.402 183.458 215.881C183.587 215.354 183.769 214.899 184.003 214.519C184.237 214.132 184.521 213.836 184.855 213.631C185.189 213.42 185.564 213.314 185.98 213.314C186.127 213.314 186.271 213.323 186.411 213.341C186.558 213.358 186.687 213.385 186.798 213.42Z" fill="white"/>
<rect x="229" y="196" width="104" height="41" rx="3" fill="#424242"/>
<rect x="229" y="196" width="104" height="41" rx="3" stroke="#424242" stroke-width="4"/>
<path d="M260.812 220.627V223H254.343V220.627H260.812ZM255.441 210.203V223H252.356V210.203H255.441ZM266.911 220.609V216.689C266.911 216.42 266.873 216.188 266.797 215.995C266.721 215.802 266.601 215.652 266.437 215.547C266.272 215.436 266.053 215.38 265.777 215.38C265.555 215.38 265.364 215.418 265.206 215.494C265.048 215.57 264.928 215.685 264.846 215.837C264.764 215.989 264.723 216.183 264.723 216.417H261.761C261.761 215.978 261.857 215.57 262.051 215.195C262.25 214.814 262.531 214.483 262.895 214.202C263.264 213.921 263.703 213.704 264.213 213.552C264.729 213.394 265.303 213.314 265.936 213.314C266.691 213.314 267.365 213.44 267.957 213.692C268.555 213.944 269.026 214.322 269.372 214.826C269.718 215.324 269.891 215.951 269.891 216.707V220.601C269.891 221.222 269.926 221.693 269.996 222.016C270.066 222.332 270.166 222.61 270.295 222.851V223H267.324C267.184 222.707 267.078 222.35 267.008 221.928C266.943 221.5 266.911 221.061 266.911 220.609ZM267.271 217.19L267.289 218.772H265.979C265.704 218.772 265.47 218.811 265.276 218.887C265.089 218.963 264.937 219.068 264.819 219.203C264.708 219.332 264.626 219.479 264.573 219.643C264.526 219.807 264.503 219.979 264.503 220.161C264.503 220.337 264.544 220.495 264.626 220.636C264.714 220.771 264.831 220.876 264.978 220.952C265.124 221.028 265.288 221.066 265.47 221.066C265.798 221.066 266.076 221.005 266.305 220.882C266.539 220.753 266.718 220.598 266.841 220.416C266.964 220.234 267.025 220.064 267.025 219.906L267.676 221.119C267.559 221.354 267.424 221.591 267.271 221.831C267.125 222.071 266.94 222.294 266.718 222.499C266.501 222.698 266.234 222.862 265.918 222.991C265.602 223.114 265.218 223.176 264.767 223.176C264.181 223.176 263.642 223.056 263.149 222.815C262.663 222.575 262.273 222.241 261.98 221.813C261.688 221.38 261.541 220.882 261.541 220.319C261.541 219.827 261.629 219.388 261.805 219.001C261.986 218.614 262.259 218.286 262.622 218.017C262.985 217.747 263.448 217.542 264.011 217.401C264.573 217.261 265.235 217.19 265.997 217.19H267.271ZM274.522 215.846V223H271.561V213.49H274.329L274.522 215.846ZM277.335 213.42L277.282 216.171C277.165 216.159 277.007 216.145 276.808 216.127C276.608 216.109 276.441 216.101 276.307 216.101C275.961 216.101 275.662 216.142 275.41 216.224C275.164 216.3 274.959 216.417 274.795 216.575C274.637 216.728 274.52 216.921 274.443 217.155C274.373 217.39 274.341 217.662 274.347 217.973L273.811 217.621C273.811 216.982 273.872 216.402 273.995 215.881C274.124 215.354 274.306 214.899 274.54 214.519C274.774 214.132 275.059 213.836 275.393 213.631C275.727 213.42 276.102 213.314 276.518 213.314C276.664 213.314 276.808 213.323 276.948 213.341C277.095 213.358 277.224 213.385 277.335 213.42ZM283.03 220.609V216.689C283.03 216.42 282.992 216.188 282.916 215.995C282.84 215.802 282.72 215.652 282.556 215.547C282.392 215.436 282.172 215.38 281.896 215.38C281.674 215.38 281.483 215.418 281.325 215.494C281.167 215.57 281.047 215.685 280.965 215.837C280.883 215.989 280.842 216.183 280.842 216.417H277.88C277.88 215.978 277.977 215.57 278.17 215.195C278.369 214.814 278.65 214.483 279.014 214.202C279.383 213.921 279.822 213.704 280.332 213.552C280.848 213.394 281.422 213.314 282.055 213.314C282.811 213.314 283.484 213.44 284.076 213.692C284.674 213.944 285.146 214.322 285.491 214.826C285.837 215.324 286.01 215.951 286.01 216.707V220.601C286.01 221.222 286.045 221.693 286.115 222.016C286.186 222.332 286.285 222.61 286.414 222.851V223H283.443C283.303 222.707 283.197 222.35 283.127 221.928C283.062 221.5 283.03 221.061 283.03 220.609ZM283.391 217.19L283.408 218.772H282.099C281.823 218.772 281.589 218.811 281.396 218.887C281.208 218.963 281.056 219.068 280.938 219.203C280.827 219.332 280.745 219.479 280.692 219.643C280.646 219.807 280.622 219.979 280.622 220.161C280.622 220.337 280.663 220.495 280.745 220.636C280.833 220.771 280.95 220.876 281.097 220.952C281.243 221.028 281.407 221.066 281.589 221.066C281.917 221.066 282.195 221.005 282.424 220.882C282.658 220.753 282.837 220.598 282.96 220.416C283.083 220.234 283.145 220.064 283.145 219.906L283.795 221.119C283.678 221.354 283.543 221.591 283.391 221.831C283.244 222.071 283.06 222.294 282.837 222.499C282.62 222.698 282.354 222.862 282.037 222.991C281.721 223.114 281.337 223.176 280.886 223.176C280.3 223.176 279.761 223.056 279.269 222.815C278.782 222.575 278.393 222.241 278.1 221.813C277.807 221.38 277.66 220.882 277.66 220.319C277.66 219.827 277.748 219.388 277.924 219.001C278.105 218.614 278.378 218.286 278.741 218.017C279.104 217.747 279.567 217.542 280.13 217.401C280.692 217.261 281.354 217.19 282.116 217.19H283.391ZM290.94 220.97L292.812 213.49H295.933L292.821 223H290.976L290.94 220.97ZM289.833 213.49L291.679 220.97L291.661 223H289.807L286.704 213.49H289.833ZM301.294 223.176C300.521 223.176 299.829 223.056 299.22 222.815C298.61 222.569 298.095 222.232 297.673 221.805C297.257 221.377 296.938 220.885 296.715 220.328C296.498 219.771 296.39 219.183 296.39 218.562V218.228C296.39 217.53 296.486 216.886 296.68 216.294C296.873 215.696 297.16 215.175 297.541 214.729C297.922 214.284 298.399 213.938 298.974 213.692C299.548 213.44 300.216 213.314 300.978 213.314C301.651 213.314 302.255 213.423 302.788 213.64C303.321 213.856 303.772 214.167 304.142 214.571C304.517 214.976 304.801 215.465 304.994 216.039C305.193 216.613 305.293 217.258 305.293 217.973V219.177H297.523V217.322H302.401V217.094C302.407 216.777 302.352 216.508 302.234 216.285C302.123 216.062 301.959 215.893 301.742 215.775C301.525 215.658 301.262 215.6 300.951 215.6C300.629 215.6 300.362 215.67 300.151 215.811C299.946 215.951 299.785 216.145 299.668 216.391C299.557 216.631 299.478 216.909 299.431 217.226C299.384 217.542 299.36 217.876 299.36 218.228V218.562C299.36 218.913 299.407 219.232 299.501 219.52C299.601 219.807 299.741 220.053 299.923 220.258C300.11 220.457 300.333 220.612 300.591 220.724C300.854 220.835 301.153 220.891 301.487 220.891C301.892 220.891 302.29 220.814 302.683 220.662C303.075 220.51 303.412 220.258 303.693 219.906L305.038 221.506C304.845 221.781 304.569 222.048 304.212 222.306C303.86 222.563 303.438 222.774 302.946 222.938C302.454 223.097 301.903 223.176 301.294 223.176ZM309.626 209.5V223H306.655V209.5H309.626Z" fill="white"/>
<rect x="353" y="196" width="103" height="41" rx="3" fill="#424242"/>
<rect x="353" y="196" width="103" height="41" rx="3" stroke="#424242" stroke-width="4"/>
<path d="M377.72 210.203H380.233L383.09 219.106L385.946 210.203H388.46L384.109 223H382.07L377.72 210.203ZM376.19 210.203H378.792L379.275 220.012V223H376.19V210.203ZM387.388 210.203H389.998V223H386.904V220.012L387.388 210.203ZM394.753 221.884L397.214 213.49H400.396L396.572 224.415C396.49 224.655 396.382 224.913 396.247 225.188C396.112 225.47 395.928 225.736 395.693 225.988C395.459 226.24 395.157 226.445 394.788 226.604C394.425 226.762 393.974 226.841 393.435 226.841C393.147 226.841 392.937 226.826 392.802 226.797C392.673 226.773 392.474 226.729 392.204 226.665V224.547C392.28 224.547 392.345 224.547 392.397 224.547C392.456 224.547 392.521 224.547 392.591 224.547C392.907 224.547 393.159 224.515 393.347 224.45C393.54 224.386 393.687 224.292 393.786 224.169C393.892 224.046 393.974 223.896 394.032 223.721L394.753 221.884ZM394.129 213.49L396.001 220.144L396.326 223.281H394.34L390.956 213.49H394.129ZM407.901 219.599C407.901 219.399 407.872 219.221 407.813 219.062C407.755 218.898 407.646 218.746 407.488 218.605C407.33 218.465 407.102 218.324 406.803 218.184C406.51 218.037 406.123 217.885 405.643 217.727C405.08 217.539 404.538 217.328 404.017 217.094C403.495 216.854 403.029 216.575 402.619 216.259C402.209 215.937 401.884 215.562 401.644 215.134C401.403 214.7 401.283 214.196 401.283 213.622C401.283 213.071 401.406 212.576 401.652 212.137C401.898 211.691 402.241 211.313 402.681 211.003C403.126 210.687 403.647 210.446 404.245 210.282C404.843 210.112 405.496 210.027 406.205 210.027C407.143 210.027 407.969 210.191 408.684 210.52C409.404 210.842 409.967 211.302 410.371 211.899C410.781 212.491 410.986 213.191 410.986 214H407.919C407.919 213.678 407.852 213.394 407.717 213.147C407.588 212.901 407.392 212.708 407.128 212.567C406.864 212.427 406.533 212.356 406.135 212.356C405.748 212.356 405.423 212.415 405.159 212.532C404.896 212.649 404.696 212.808 404.562 213.007C404.427 213.2 404.359 213.414 404.359 213.648C404.359 213.842 404.412 214.018 404.518 214.176C404.629 214.328 404.784 214.472 404.983 214.606C405.188 214.741 405.435 214.87 405.722 214.993C406.015 215.116 406.343 215.236 406.706 215.354C407.386 215.57 407.989 215.813 408.517 216.083C409.05 216.347 409.498 216.648 409.861 216.988C410.23 217.322 410.509 217.703 410.696 218.131C410.89 218.559 410.986 219.042 410.986 219.581C410.986 220.155 410.875 220.665 410.652 221.11C410.43 221.556 410.11 221.934 409.694 222.244C409.278 222.549 408.78 222.78 408.2 222.938C407.62 223.097 406.973 223.176 406.258 223.176C405.602 223.176 404.954 223.094 404.315 222.93C403.683 222.76 403.108 222.502 402.593 222.156C402.077 221.805 401.664 221.356 401.354 220.812C401.049 220.261 400.896 219.607 400.896 218.852H403.99C403.99 219.227 404.04 219.543 404.14 219.801C404.239 220.059 404.386 220.267 404.579 220.425C404.772 220.577 405.01 220.688 405.291 220.759C405.572 220.823 405.895 220.855 406.258 220.855C406.65 220.855 406.967 220.8 407.207 220.688C407.447 220.571 407.623 220.419 407.734 220.231C407.846 220.038 407.901 219.827 407.901 219.599ZM419.714 220.891L423.282 223.721L421.366 225.338L417.859 222.508L419.714 220.891ZM423.432 216.347V216.865C423.432 217.844 423.294 218.723 423.019 219.502C422.749 220.275 422.362 220.938 421.858 221.488C421.36 222.033 420.771 222.452 420.092 222.745C419.412 223.032 418.662 223.176 417.842 223.176C417.016 223.176 416.26 223.032 415.574 222.745C414.895 222.452 414.303 222.033 413.799 221.488C413.301 220.938 412.914 220.275 412.639 219.502C412.369 218.723 412.234 217.844 412.234 216.865V216.347C412.234 215.368 412.369 214.489 412.639 213.71C412.914 212.931 413.298 212.269 413.79 211.724C414.288 211.173 414.877 210.754 415.557 210.467C416.242 210.174 416.998 210.027 417.824 210.027C418.645 210.027 419.395 210.174 420.074 210.467C420.76 210.754 421.352 211.173 421.85 211.724C422.354 212.269 422.743 212.931 423.019 213.71C423.294 214.489 423.432 215.368 423.432 216.347ZM420.294 216.865V216.329C420.294 215.696 420.238 215.14 420.127 214.659C420.021 214.173 419.863 213.766 419.652 213.438C419.441 213.109 419.181 212.863 418.87 212.699C418.565 212.529 418.217 212.444 417.824 212.444C417.414 212.444 417.057 212.529 416.752 212.699C416.447 212.863 416.192 213.109 415.987 213.438C415.782 213.766 415.627 214.173 415.521 214.659C415.422 215.14 415.372 215.696 415.372 216.329V216.865C415.372 217.492 415.422 218.049 415.521 218.535C415.627 219.016 415.782 219.423 415.987 219.757C416.198 220.091 416.456 220.343 416.761 220.513C417.071 220.683 417.432 220.768 417.842 220.768C418.234 220.768 418.583 220.683 418.888 220.513C419.192 220.343 419.447 220.091 419.652 219.757C419.863 219.423 420.021 219.016 420.127 218.535C420.238 218.049 420.294 217.492 420.294 216.865ZM433.46 220.627V223H426.991V220.627H433.46ZM428.09 210.203V223H425.005V210.203H428.09Z" fill="white"/>
<path d="M1066 0H1348C1356.28 0 1363 6.71573 1363 15V282C1363 290.284 1356.28 297 1348 297H1066V0Z" fill="white"/>
<g clip-path="url(#clip0_3_61)">
<g clip-path="url(#clip1_3_61)">
<path d="M1323.45 153.175C1324.23 153.175 1325 152.636 1325 151.737V133.216C1325 132.497 1324.42 131.778 1323.45 131.778C1322.68 131.778 1321.91 132.317 1321.91 133.216V151.737C1321.91 152.636 1322.68 153.175 1323.45 153.175Z" fill="#326789"/>
<path d="M1323.45 165.222C1324.23 165.222 1325 164.683 1325 163.784V157.85C1325 157.131 1324.42 156.412 1323.45 156.412C1322.68 156.412 1321.91 156.951 1321.91 157.85V163.784C1321.91 164.683 1322.68 165.222 1323.45 165.222Z" fill="#326789"/>
<path d="M1163.87 52.8407C1164.06 53.0205 1164.44 53.2003 1164.83 53.2003C1165.22 53.2003 1165.6 53.0205 1165.79 52.8407C1166.37 52.3013 1166.37 51.4022 1165.79 50.8628L1162.71 47.9858C1162.13 47.4464 1161.16 47.4464 1160.58 47.9858C1160.01 48.5252 1160.01 49.4243 1160.58 49.9637L1163.87 52.8407Z" fill="#326789"/>
<path d="M1174.09 62.3707C1174.29 62.5505 1174.67 62.7303 1175.06 62.7303C1175.44 62.7303 1175.83 62.5505 1176.02 62.3707C1176.6 61.8312 1176.6 60.9322 1176.02 60.3928L1172.93 57.5158C1172.36 56.9763 1171.39 56.9763 1170.81 57.5158C1170.23 58.0552 1170.23 58.9543 1170.81 59.4937L1174.09 62.3707Z" fill="#326789"/>
<path d="M1161.74 62.7303C1162.13 62.7303 1162.51 62.5505 1162.71 62.3707L1165.79 59.4937C1166.37 58.9543 1166.37 58.0552 1165.79 57.5158C1165.22 56.9763 1164.25 56.9763 1163.67 57.5158L1160.58 60.3928C1160.01 60.9322 1160.01 61.8312 1160.58 62.3707C1160.97 62.7303 1161.36 62.7303 1161.74 62.7303Z" fill="#326789"/>
<path d="M1171.97 53.3801C1172.36 53.3801 1172.74 53.2003 1172.93 53.0205L1176.02 49.9637C1176.6 49.4243 1176.6 48.5252 1176.02 47.9858C1175.44 47.6262 1174.67 47.6262 1174.09 48.1656L1171.01 51.0426C1170.43 51.582 1170.43 52.4811 1171.01 53.0205C1171.2 53.2003 1171.58 53.3801 1171.97 53.3801Z" fill="#326789"/>
<path d="M1250.51 229.774C1249.93 229.235 1248.97 229.235 1248.39 229.774C1247.81 230.314 1247.81 231.213 1248.39 231.752L1250.7 233.91C1250.9 234.09 1251.28 234.27 1251.67 234.27C1252.05 234.27 1252.44 234.09 1252.63 233.91C1253.21 233.371 1253.21 232.472 1252.63 231.932L1250.51 229.774Z" fill="#326789"/>
<path d="M1258.42 236.967C1257.84 236.427 1256.88 236.427 1256.3 236.967C1255.72 237.506 1255.72 238.405 1256.3 238.945L1258.61 241.103C1258.81 241.282 1259.19 241.462 1259.58 241.462C1259.97 241.462 1260.35 241.282 1260.54 241.103C1261.12 240.563 1261.12 239.664 1260.54 239.125L1258.42 236.967Z" fill="#326789"/>
<path d="M1250.9 236.967L1248.58 239.125C1248 239.664 1248 240.563 1248.58 241.103C1248.77 241.282 1249.16 241.462 1249.54 241.462C1249.93 241.462 1250.32 241.282 1250.51 241.103L1252.83 238.945C1253.4 238.405 1253.4 237.506 1252.83 236.967C1252.44 236.427 1251.47 236.427 1250.9 236.967Z" fill="#326789"/>
<path d="M1258.61 229.774L1256.3 231.932C1255.72 232.472 1255.72 233.371 1256.3 233.91C1256.49 234.09 1256.88 234.27 1257.26 234.27C1257.65 234.27 1258.04 234.09 1258.23 233.91L1260.54 231.752C1261.12 231.213 1261.12 230.314 1260.54 229.774C1260.16 229.235 1259.19 229.235 1258.61 229.774Z" fill="#326789"/>
<path d="M1321.91 195.071C1317.86 195.071 1314.58 198.128 1314.58 201.904C1314.58 205.68 1317.86 208.737 1321.91 208.737C1325.96 208.737 1329.24 205.68 1329.24 201.904C1329.44 198.128 1325.96 195.071 1321.91 195.071ZM1321.91 206.039C1319.4 206.039 1317.47 204.241 1317.47 201.904C1317.47 199.566 1319.4 197.768 1321.91 197.768C1324.42 197.768 1326.35 199.566 1326.35 201.904C1326.35 204.241 1324.42 206.039 1321.91 206.039Z" fill="#326789"/>
<path d="M1154.6 87.0047C1158.08 87.0047 1160.97 84.3076 1160.97 81.071C1160.97 77.8344 1158.08 75.1372 1154.6 75.1372C1151.13 75.1372 1148.23 77.8344 1148.23 81.071C1148.23 84.4874 1151.13 87.0047 1154.6 87.0047ZM1154.6 77.8344C1156.53 77.8344 1158.08 79.2729 1158.08 81.071C1158.08 82.8691 1156.53 84.3076 1154.6 84.3076C1152.67 84.3076 1151.13 82.8691 1151.13 81.071C1151.13 79.2729 1152.67 77.8344 1154.6 77.8344Z" fill="#326789"/>
<path d="M1158.85 241.103H1137.23C1136.46 241.103 1135.69 241.642 1135.69 242.541C1135.69 243.26 1136.27 243.98 1137.23 243.98H1158.85C1159.62 243.98 1160.39 243.44 1160.39 242.541C1160.2 241.642 1159.62 241.103 1158.85 241.103Z" fill="#326789"/>
<path d="M1172.74 241.103H1165.79C1165.02 241.103 1164.25 241.642 1164.25 242.541C1164.25 243.26 1164.83 243.98 1165.79 243.98H1172.74C1173.51 243.98 1174.29 243.44 1174.29 242.541C1174.29 241.642 1173.71 241.103 1172.74 241.103Z" fill="#326789"/>
<path d="M1172.74 234.09H1157.69C1156.92 234.09 1156.15 234.629 1156.15 235.528C1156.15 236.427 1156.73 236.967 1157.69 236.967H1172.74C1173.51 236.967 1174.29 236.427 1174.29 235.528C1174.29 234.629 1173.71 234.09 1172.74 234.09Z" fill="#326789"/>
<path d="M1151.32 236.787C1152.09 236.787 1152.87 236.248 1152.87 235.349C1152.87 234.45 1152.29 233.91 1151.32 233.91H1146.5C1145.73 233.91 1144.95 234.45 1144.95 235.349C1144.95 236.248 1145.53 236.787 1146.5 236.787H1151.32Z" fill="#326789"/>
<path d="M1240.86 249.554H1232.76L1226.2 221.503H1298.37C1304.73 221.503 1309.75 216.648 1309.75 210.894V110.2C1309.75 104.267 1304.54 99.5915 1298.37 99.5915H1261.32C1259.39 98.3328 1257.46 97.2539 1255.14 96.3549C1242.98 91.1404 1236.81 77.6546 1234.49 72.0804C1232.76 62.7303 1229.09 53.5599 1223.69 44.929C1223.69 44.7492 1223.49 44.5694 1223.49 44.5694C1222.14 42.2319 1220.41 39.7145 1218.67 37.377L1216.93 35.0394C1216.35 34.3202 1215 34.3202 1214.62 35.0394L1212.88 37.377C1211.14 39.7145 1209.41 42.2319 1207.86 44.7492C1207.86 44.7492 1207.86 44.7492 1207.86 44.929C1204.58 50.1435 1202.07 55.7177 1200.14 61.2918C1198.79 64.888 1197.83 68.4842 1197.25 72.0804C1195.13 77.295 1188.76 90.7808 1176.6 96.1751C1174.48 97.0741 1172.36 98.3328 1170.43 99.4117H1133.38C1127.01 99.4117 1121.99 104.267 1121.99 110.021V210.715C1121.99 216.648 1127.2 221.323 1133.38 221.323H1205.55L1199.18 249.554H1191.07C1187.21 249.554 1184.13 252.431 1184.13 256.027C1184.13 259.623 1187.21 262.5 1191.07 262.5H1240.86C1244.72 262.5 1247.81 259.623 1247.81 256.027C1247.81 252.431 1244.72 249.554 1240.86 249.554ZM1253.98 98.5126C1256.11 99.4117 1258.23 100.67 1260.16 101.749C1271.74 109.301 1274.82 120.09 1275.6 124.046H1235.26V107.144C1235.26 106.065 1235.26 105.166 1235.07 104.087C1235.07 104.087 1235.07 104.087 1235.07 103.907C1234.88 103.008 1234.69 101.929 1234.49 101.03V100.85C1235.46 95.9953 1236.04 90.9606 1236.04 85.9259C1236.04 84.3076 1236.04 82.5095 1235.84 80.8912C1239.51 87.3644 1245.3 94.7366 1253.98 98.5126ZM1230.44 133.756H1226C1224.84 133.756 1224.07 132.856 1224.07 131.778V125.484V107.323C1224.07 105.345 1224.46 103.188 1225.04 101.21C1225.04 100.85 1225.23 100.491 1225.42 100.311C1226.2 98.3328 1227.16 96.3549 1228.51 94.377C1230.05 96.7145 1231.21 98.8722 1231.79 101.21V101.39C1232.37 103.368 1232.56 105.166 1232.56 107.323V125.484V131.778C1232.37 132.856 1231.6 133.756 1230.44 133.756ZM1201.49 133.756C1200.34 133.756 1199.56 132.856 1199.56 131.778V125.484V107.323C1199.56 105.345 1199.76 103.368 1200.34 101.569C1200.34 101.39 1200.34 101.39 1200.53 101.21C1200.53 100.85 1200.72 100.491 1200.92 100.311C1201.69 98.3328 1202.65 96.3549 1204 94.377C1205.55 96.5347 1206.7 98.8722 1207.28 101.21C1207.86 103.188 1208.25 105.345 1208.25 107.323V131.778C1208.25 132.856 1207.28 133.756 1206.32 133.756H1201.49ZM1210.76 104.986C1210.76 104.806 1210.76 104.626 1210.76 104.446C1210.76 103.727 1210.56 103.008 1210.37 102.109H1221.76C1221.56 102.828 1221.56 103.547 1221.37 104.267C1221.37 104.446 1221.37 104.626 1221.37 104.806C1221.37 105.525 1221.18 106.244 1221.18 107.144V124.046H1210.76V107.144C1210.76 106.424 1210.76 105.705 1210.76 104.986ZM1210.76 131.778V126.923H1220.98V131.778C1220.98 133.935 1222.34 135.554 1224.46 136.273C1224.27 139.509 1223.11 149.219 1215.97 156.052C1208.63 149.219 1207.67 139.33 1207.48 136.273C1209.41 135.554 1210.76 133.935 1210.76 131.778ZM1215.39 38.6356L1215.97 37.9164L1216.55 38.6356C1217.9 40.4338 1218.86 42.0521 1220.02 43.8502H1211.92C1213.07 41.8722 1214.23 40.2539 1215.39 38.6356ZM1203.04 61.8312C1204.78 56.6167 1207.28 51.4022 1210.37 46.5473H1221.76C1226.77 54.9984 1230.25 63.6293 1231.98 72.6199C1232.76 76.9353 1233.34 81.6104 1233.34 86.1057C1233.34 89.3423 1233.14 92.5789 1232.56 95.8155C1231.79 94.5568 1231.02 93.1183 1230.05 91.8596L1229.48 91.1404C1229.28 90.7808 1228.7 90.6009 1228.32 90.6009C1227.93 90.6009 1227.35 90.7808 1227.16 91.1404L1226.58 91.8596C1224.84 94.1972 1223.49 96.7145 1222.53 99.4117V99.5915H1209.6C1208.63 96.8943 1207.28 94.377 1205.55 91.8596L1204.97 91.1404C1204.78 90.7808 1204.2 90.6009 1203.81 90.6009C1203.42 90.6009 1202.85 90.7808 1202.65 91.1404L1202.07 91.8596C1201.11 93.1183 1200.34 94.5568 1199.56 95.8155C1199.18 92.5789 1198.79 89.3423 1198.79 86.1057C1198.79 77.8344 1200.14 69.7429 1203.04 61.8312ZM1177.95 98.5126C1186.64 94.7366 1192.42 87.1845 1196.09 80.8912C1195.9 82.5095 1195.9 84.3076 1195.9 85.9259C1195.9 90.9606 1196.48 95.9953 1197.44 100.85C1196.86 102.828 1196.67 104.986 1196.67 107.144V124.046H1156.34C1157.11 120.09 1160.2 109.301 1171.78 101.749C1173.71 100.67 1175.64 99.5915 1177.95 98.5126ZM1133.38 102.109H1166.76C1166.37 102.468 1165.99 102.648 1165.79 103.008C1165.41 103.188 1165.22 103.547 1164.83 103.727C1164.44 104.087 1163.87 104.626 1163.48 104.986C1163.29 105.166 1163.09 105.525 1162.71 105.705C1162.13 106.244 1161.74 106.784 1161.36 107.323C1161.16 107.503 1161.16 107.503 1160.97 107.683C1160.39 108.402 1159.81 109.121 1159.43 109.661C1159.23 109.841 1159.23 110.021 1159.04 110.2C1158.65 110.74 1158.46 111.099 1158.08 111.639C1157.88 111.819 1157.69 112.178 1157.69 112.358C1157.5 112.718 1157.3 113.257 1156.92 113.617C1156.73 113.976 1156.73 114.156 1156.53 114.336C1156.34 114.696 1156.15 115.055 1155.95 115.415C1155.76 115.595 1155.76 115.954 1155.57 116.134C1155.37 116.494 1155.18 116.853 1155.18 117.213C1154.99 117.393 1154.99 117.752 1154.99 117.932C1154.8 118.292 1154.8 118.651 1154.6 118.831C1154.6 119.011 1154.41 119.371 1154.41 119.55C1154.41 119.91 1154.22 120.09 1154.22 120.45C1154.22 120.629 1154.02 120.809 1154.02 120.989C1154.02 121.169 1153.83 121.528 1153.83 121.708C1153.83 121.888 1153.83 122.068 1153.64 122.248C1153.64 122.427 1153.44 122.787 1153.44 122.967C1153.44 123.147 1153.44 123.326 1153.44 123.326C1153.44 123.506 1153.44 123.686 1153.44 123.866V124.046C1153.44 124.226 1153.44 124.405 1153.44 124.405V124.585C1153.44 124.765 1153.44 124.765 1153.44 124.765C1153.44 125.125 1153.64 125.484 1153.83 125.844C1154.02 126.203 1154.41 126.203 1154.99 126.203H1196.86V131.058C1196.86 133.036 1198.21 134.834 1200.14 135.374C1198.41 143.106 1193.97 149.399 1190.69 152.815C1190.3 151.017 1189.34 149.399 1187.79 148.32C1186.25 147.241 1184.32 146.882 1182.39 147.241H1182.2C1181.62 142.926 1177.76 139.689 1173.13 139.689C1172.36 139.689 1171.58 139.869 1170.81 140.049C1170.62 137.891 1169.27 135.733 1167.15 134.834C1165.6 134.295 1164.06 134.295 1162.51 134.834C1161.74 135.194 1161.16 135.554 1160.58 136.093C1159.62 134.655 1158.08 133.756 1156.34 133.396C1154.6 133.036 1152.67 133.396 1151.13 134.295C1149.39 135.374 1148.43 136.812 1148.04 138.79C1147.85 139.509 1148.43 140.229 1149.2 140.409C1149.97 140.588 1150.74 140.049 1150.94 139.33C1151.13 138.251 1151.9 137.172 1152.87 136.632C1153.83 136.093 1154.8 135.913 1155.95 136.093C1158.27 136.632 1159.81 138.79 1159.23 141.128C1159.04 141.847 1159.62 142.566 1160.39 142.746H1160.58C1161.36 142.746 1161.94 142.386 1161.94 141.667C1162.13 140.948 1162.13 140.049 1161.94 139.33C1162.32 138.431 1162.9 137.891 1163.67 137.532C1164.44 137.172 1165.22 137.172 1165.99 137.532C1167.72 138.251 1168.5 140.049 1167.72 141.667C1166.95 142.207 1166.18 142.926 1165.6 143.645C1165.22 144.185 1165.41 145.084 1165.99 145.443C1166.57 145.803 1167.53 145.623 1167.92 145.084C1169.08 143.465 1171.01 142.566 1172.93 142.566C1176.41 142.566 1179.11 145.263 1179.11 148.68C1178.53 149.219 1177.95 149.759 1177.37 150.298C1176.99 150.838 1177.18 151.737 1177.76 152.096C1178.34 152.456 1179.3 152.276 1179.69 151.737C1180.27 150.838 1181.23 150.118 1182.39 149.938C1183.55 149.759 1184.51 149.938 1185.48 150.658C1187.41 151.916 1187.99 154.614 1186.64 156.591C1186.25 157.131 1186.44 157.85 1186.83 158.39C1187.02 158.569 1187.41 158.749 1187.79 158.749C1188.18 158.749 1188.57 158.569 1188.76 158.39C1189.14 158.03 1199.76 149.039 1202.46 135.913H1204.2C1204.39 139.689 1205.74 150.838 1214.62 158.39C1214.81 158.569 1215.2 158.749 1215.58 158.749C1215.97 158.749 1216.35 158.569 1216.55 158.39C1225.42 150.838 1226.77 139.689 1226.97 135.913H1228.9C1231.6 149.219 1242.21 158.03 1242.6 158.39C1242.79 158.569 1243.18 158.749 1243.56 158.749C1243.95 158.749 1244.33 158.569 1244.53 158.39C1245.11 158.03 1245.11 157.131 1244.72 156.591C1243.37 154.614 1243.95 152.096 1245.88 150.658C1246.84 150.118 1247.81 149.759 1248.97 149.938C1250.12 150.118 1251.09 150.838 1251.67 151.737C1252.05 152.276 1253.02 152.456 1253.6 152.096C1254.18 151.737 1254.37 150.838 1253.98 150.298C1253.6 149.579 1253.02 149.039 1252.25 148.68C1252.25 145.263 1255.14 142.566 1258.42 142.566C1260.35 142.566 1262.28 143.465 1263.44 145.084C1263.82 145.623 1264.79 145.803 1265.37 145.443C1265.95 145.084 1266.14 144.185 1265.75 143.645C1265.18 142.926 1264.4 142.207 1263.63 141.667C1262.86 140.049 1263.82 138.071 1265.37 137.532C1266.14 137.172 1266.91 137.172 1267.68 137.532C1268.46 137.891 1269.23 138.431 1269.42 139.33C1269.23 140.049 1269.23 140.948 1269.42 141.667C1269.61 142.386 1270.19 142.746 1270.77 142.746H1270.96C1271.74 142.566 1272.32 141.847 1272.12 141.128C1271.74 138.79 1273.09 136.632 1275.4 136.093C1276.37 135.913 1277.53 136.093 1278.49 136.632C1279.46 137.172 1280.23 138.251 1280.42 139.33C1280.61 140.049 1281.39 140.588 1282.16 140.409C1282.93 140.229 1283.51 139.509 1283.31 138.79C1282.93 136.992 1281.77 135.374 1280.23 134.295C1278.68 133.396 1276.75 133.036 1275.02 133.396C1273.28 133.756 1271.74 134.834 1270.77 136.093C1270.19 135.554 1269.61 135.194 1268.84 134.834C1267.3 134.295 1265.75 134.295 1264.21 134.834C1261.89 135.733 1260.54 137.891 1260.54 140.049C1259.77 139.869 1259 139.689 1258.23 139.689C1253.6 139.689 1249.74 143.106 1249.16 147.241H1248.97C1247.04 146.882 1245.3 147.241 1243.56 148.32C1242.98 150.298 1242.02 151.916 1241.63 153.715C1238.35 150.118 1233.72 143.825 1232.18 136.273C1233.91 135.554 1235.26 133.935 1235.26 131.957V127.103H1277.14C1277.53 127.103 1277.91 126.923 1278.3 126.743C1278.49 126.383 1278.68 126.024 1278.68 125.664V125.484C1278.68 125.484 1278.68 125.484 1278.68 125.304C1278.68 125.125 1278.68 125.125 1278.68 124.945C1278.68 124.945 1278.68 124.765 1278.68 124.585C1278.68 124.405 1278.68 124.226 1278.68 124.046C1278.68 123.866 1278.68 123.686 1278.68 123.686C1278.68 123.506 1278.68 123.327 1278.49 122.967C1278.49 122.787 1278.49 122.607 1278.3 122.427C1278.3 122.248 1278.1 121.888 1278.1 121.708C1278.1 121.528 1277.91 121.349 1277.91 120.989C1277.91 120.809 1277.72 120.45 1277.72 120.09C1277.72 119.91 1277.53 119.55 1277.53 119.371C1277.33 119.011 1277.33 118.831 1277.14 118.472C1276.95 118.292 1276.95 117.932 1276.75 117.752C1276.56 117.393 1276.56 117.213 1276.37 116.853C1276.17 116.494 1276.17 116.314 1275.98 115.954C1275.79 115.595 1275.6 115.235 1275.4 114.875C1275.21 114.516 1275.02 114.336 1275.02 113.976C1274.82 113.617 1274.63 113.257 1274.44 112.897C1274.25 112.538 1274.05 112.358 1273.86 111.998C1273.67 111.639 1273.28 111.279 1273.09 110.74C1272.89 110.38 1272.7 110.2 1272.51 109.841C1272.12 109.121 1271.54 108.582 1270.96 107.863C1270.77 107.683 1270.58 107.503 1270.39 107.144C1270 106.604 1269.61 106.244 1269.23 105.705C1269.03 105.345 1268.65 105.166 1268.46 104.806C1268.07 104.446 1267.68 104.087 1267.3 103.547C1266.91 103.188 1266.72 103.008 1266.33 102.648C1265.95 102.289 1265.75 102.109 1265.37 101.749H1298.75C1303.38 101.749 1307.24 105.345 1307.24 109.661V197.049H1124.88V110.2C1124.88 105.705 1128.74 102.109 1133.38 102.109ZM1124.88 210.715V200.285H1307.05V210.715C1307.05 215.03 1303.19 218.626 1298.56 218.626H1133.38C1128.74 218.806 1124.88 215.21 1124.88 210.715ZM1208.63 221.503H1223.3L1229.86 249.554H1202.07L1208.63 221.503ZM1240.86 259.803H1191.07C1188.76 259.803 1187.02 258.185 1187.02 256.027C1187.02 253.869 1188.76 252.251 1191.07 252.251H1200.34H1231.6H1240.86C1243.18 252.251 1244.91 253.869 1244.91 256.027C1244.91 258.185 1243.18 259.803 1240.86 259.803Z" fill="#326789"/>
<path d="M1233.72 205.68H1198.21C1195.9 205.68 1193.97 207.478 1193.97 209.636C1193.97 211.793 1195.9 213.591 1198.21 213.591H1233.72C1236.04 213.591 1237.97 211.793 1237.97 209.636C1237.97 207.298 1236.04 205.68 1233.72 205.68ZM1233.72 210.894H1198.21C1197.44 210.894 1196.86 210.355 1196.86 209.636C1196.86 208.916 1197.44 208.377 1198.21 208.377H1233.72C1234.49 208.377 1235.07 208.916 1235.07 209.636C1235.07 210.355 1234.49 210.894 1233.72 210.894Z" fill="#326789"/>
<path d="M1266.53 116.134C1266.72 116.494 1267.3 116.853 1267.68 116.853C1267.88 116.853 1268.26 116.853 1268.46 116.673C1269.23 116.314 1269.42 115.415 1268.84 114.875C1267.49 112.718 1265.75 110.74 1263.82 108.942C1263.25 108.402 1262.28 108.402 1261.7 108.942C1261.12 109.481 1261.12 110.38 1261.7 110.92C1263.63 112.178 1265.18 114.156 1266.53 116.134Z" fill="#326789"/>
<path d="M1248.97 102.289C1249.35 102.468 1249.74 102.648 1250.12 102.828C1252.44 103.907 1254.75 105.166 1256.88 106.424C1257.07 106.604 1257.46 106.604 1257.65 106.604C1258.04 106.604 1258.61 106.424 1258.81 106.065C1259.19 105.525 1259.19 104.626 1258.42 104.087C1256.3 102.648 1253.79 101.21 1251.28 100.131C1250.9 99.9511 1250.51 99.7713 1250.12 99.5915C1249.35 99.2319 1248.58 99.4117 1248.19 100.131C1248 101.03 1248.39 101.929 1248.97 102.289Z" fill="#326789"/>
<path d="M1242.98 98.3328C1243.18 98.5126 1243.56 98.6925 1243.95 98.6925C1244.33 98.6925 1244.72 98.5126 1245.11 98.153C1245.69 97.6136 1245.49 96.7145 1244.91 96.1751C1243.18 94.7366 1241.44 93.1183 1239.7 91.1404C1239.12 90.601 1238.35 90.4212 1237.58 90.9606C1237 91.5 1236.81 92.2193 1237.39 92.9385C1239.32 95.0962 1241.05 96.8944 1242.98 98.3328Z" fill="#326789"/>
<path d="M1188.37 98.6925C1188.76 98.6925 1188.95 98.5126 1189.34 98.3328C1191.27 96.7145 1193.2 94.9164 1194.93 92.9385C1195.51 92.3991 1195.32 91.5 1194.74 90.9606C1194.16 90.4212 1193.2 90.601 1192.62 91.1404C1191.07 93.1183 1189.34 94.7366 1187.41 96.1751C1186.83 96.7145 1186.64 97.4338 1187.21 98.153C1187.6 98.5126 1187.99 98.6925 1188.37 98.6925Z" fill="#326789"/>
<path d="M1174.67 106.784C1175.06 106.784 1175.25 106.784 1175.44 106.604C1177.57 105.166 1179.69 103.907 1182.2 103.008C1182.58 102.828 1182.97 102.648 1183.36 102.468C1184.13 102.109 1184.32 101.21 1183.93 100.67C1183.55 99.9511 1182.58 99.7713 1182 100.131C1181.62 100.311 1181.23 100.491 1180.85 100.67C1178.34 101.749 1175.83 103.188 1173.71 104.626C1173.13 104.986 1172.93 105.885 1173.32 106.604C1173.71 106.604 1174.09 106.784 1174.67 106.784Z" fill="#326789"/>
<path d="M1168.3 108.762C1166.37 110.56 1164.83 112.538 1163.29 114.696C1162.9 115.415 1163.09 116.134 1163.67 116.494C1163.87 116.673 1164.25 116.673 1164.44 116.673C1164.83 116.673 1165.41 116.494 1165.6 115.954C1166.95 113.976 1168.5 112.178 1170.23 110.56C1170.81 110.02 1170.81 109.121 1170.23 108.582C1169.85 108.222 1168.88 108.222 1168.3 108.762Z" fill="#326789"/>
<path d="M1226.77 81.071C1226.77 81.7903 1227.35 82.5095 1228.12 82.5095C1228.9 82.5095 1229.67 81.9701 1229.67 81.2508C1229.67 69.3833 1222.91 55.3581 1222.72 54.8186C1222.34 54.0994 1221.56 53.9196 1220.79 54.0994C1220.02 54.459 1219.83 55.1783 1220.02 55.8975C1220.21 55.8975 1226.77 69.7429 1226.77 81.071Z" fill="#326789"/>
<path d="M1204.2 82.5095C1204.97 82.5095 1205.74 81.9701 1205.74 81.071C1205.74 69.7429 1212.3 55.8975 1212.49 55.7177C1212.88 54.9984 1212.49 54.2792 1211.72 53.9196C1210.95 53.56 1210.18 53.9196 1209.79 54.6388C1209.6 55.1783 1202.65 69.2035 1202.85 81.071C1202.65 81.7902 1203.42 82.5095 1204.2 82.5095Z" fill="#326789"/>
<path d="M1269.61 152.276C1269.81 152.276 1270 152.456 1270.19 152.456C1270.77 152.456 1271.35 152.096 1271.54 151.737C1271.54 151.557 1273.67 147.421 1279.84 149.039C1280.61 149.219 1281.39 148.86 1281.58 148.14C1281.77 147.421 1281.39 146.702 1280.61 146.522C1273.86 144.724 1270 148.5 1268.84 150.838C1268.46 151.197 1268.84 151.916 1269.61 152.276Z" fill="#326789"/>
<path d="M1253.4 159.468C1253.79 159.468 1254.37 159.289 1254.56 158.929C1254.56 158.929 1255.72 157.491 1257.07 157.311C1257.84 157.311 1258.61 157.491 1259.19 158.03C1259.77 158.569 1260.74 158.39 1261.32 157.85C1261.89 157.311 1261.7 156.412 1261.12 155.872C1259.39 154.434 1257.84 154.254 1256.68 154.434C1253.98 154.793 1252.25 156.771 1252.05 157.131C1251.67 157.67 1251.67 158.569 1252.44 159.109C1252.63 159.468 1253.02 159.468 1253.4 159.468Z" fill="#326789"/>
<path d="M1266.53 160.367C1266.72 160.547 1267.11 160.547 1267.3 160.547C1267.88 160.547 1268.26 160.368 1268.46 159.828C1268.46 159.648 1270.19 157.131 1272.89 157.491C1273.67 157.491 1274.44 156.951 1274.44 156.232C1274.44 155.513 1273.86 154.793 1273.09 154.793C1268.46 154.434 1265.95 158.39 1265.95 158.569C1265.56 159.109 1265.95 160.008 1266.53 160.367Z" fill="#326789"/>
<path d="M1152.09 148.86C1158.08 147.421 1160.2 151.197 1160.39 151.557C1160.58 152.096 1161.16 152.276 1161.74 152.276C1161.94 152.276 1162.13 152.276 1162.32 152.096C1163.09 151.737 1163.29 151.017 1163.09 150.298C1161.94 148.14 1158.08 144.364 1151.32 145.983C1150.55 146.162 1150.16 146.882 1150.36 147.601C1150.55 148.68 1151.32 149.039 1152.09 148.86Z" fill="#326789"/>
<path d="M1172.74 158.21C1173.51 157.67 1174.29 157.311 1174.86 157.491C1176.02 157.67 1177.18 158.569 1177.57 159.109C1177.76 159.468 1178.34 159.648 1178.72 159.648C1179.11 159.648 1179.3 159.648 1179.5 159.468C1180.07 159.109 1180.27 158.21 1179.88 157.491C1179.69 157.311 1177.95 155.153 1175.25 154.793C1174.09 154.614 1172.55 154.793 1170.81 156.232C1170.23 156.771 1170.04 157.491 1170.62 158.21C1171.2 158.569 1171.97 158.749 1172.74 158.21Z" fill="#326789"/>
<path d="M1157.3 156.232C1157.3 156.951 1158.08 157.491 1158.85 157.491C1161.55 157.311 1163.29 159.828 1163.29 159.828C1163.48 160.188 1164.06 160.547 1164.44 160.547C1164.64 160.547 1165.02 160.547 1165.22 160.367C1165.99 160.008 1166.18 159.109 1165.79 158.569C1165.6 158.39 1163.09 154.434 1158.65 154.793C1157.88 154.973 1157.3 155.513 1157.3 156.232Z" fill="#326789"/>
</g>
</g>
<defs>
<clipPath id="clip0_3_61">
<rect width="229.5" height="228" fill="white" transform="translate(1099.75 34.5)"/>
</clipPath>
<clipPath id="clip1_3_61">
<rect width="229.5" height="228" fill="white" transform="translate(1099.75 34.5)"/>
</clipPath>
</defs>
</svg>
