<svg width="1363" height="163" viewBox="0 0 1363 163" fill="none" xmlns="http://www.w3.org/2000/svg">
<path d="M0 15C0 6.71573 6.71573 0 15 0H37V163H15C6.71573 163 0 156.284 0 148V15Z" fill="#424242"/>
<rect width="1097" height="163" transform="translate(37)" fill="#F0F0F0"/>
<path d="M101.906 53.9219L94.3945 51.2383V48.0859L104.602 52.375V54.6367L101.906 53.9219ZM94.3945 56.1719L101.918 53.4297L104.602 52.7852V55.0352L94.3945 59.3242V56.1719ZM123.867 58.2578V61H115.277V58.2578H123.867ZM116.414 43.9375V61H112.898V43.9375H116.414ZM132.516 58.1406V52.4922C132.516 52.0859 132.449 51.7383 132.316 51.4492C132.184 51.1523 131.977 50.9219 131.695 50.7578C131.422 50.5938 131.066 50.5117 130.629 50.5117C130.254 50.5117 129.93 50.5781 129.656 50.7109C129.383 50.8359 129.172 51.0195 129.023 51.2617C128.875 51.4961 128.801 51.7734 128.801 52.0938H125.426C125.426 51.5547 125.551 51.043 125.801 50.5586C126.051 50.0742 126.414 49.6484 126.891 49.2812C127.367 48.9062 127.934 48.6133 128.59 48.4023C129.254 48.1914 129.996 48.0859 130.816 48.0859C131.801 48.0859 132.676 48.25 133.441 48.5781C134.207 48.9062 134.809 49.3984 135.246 50.0547C135.691 50.7109 135.914 51.5312 135.914 52.5156V57.9414C135.914 58.6367 135.957 59.207 136.043 59.6523C136.129 60.0898 136.254 60.4727 136.418 60.8008V61H133.008C132.844 60.6562 132.719 60.2266 132.633 59.7109C132.555 59.1875 132.516 58.6641 132.516 58.1406ZM132.961 53.2773L132.984 55.1875H131.098C130.652 55.1875 130.266 55.2383 129.938 55.3398C129.609 55.4414 129.34 55.5859 129.129 55.7734C128.918 55.9531 128.762 56.1641 128.66 56.4062C128.566 56.6484 128.52 56.9141 128.52 57.2031C128.52 57.4922 128.586 57.7539 128.719 57.9883C128.852 58.2148 129.043 58.3945 129.293 58.5273C129.543 58.6523 129.836 58.7148 130.172 58.7148C130.68 58.7148 131.121 58.6133 131.496 58.4102C131.871 58.207 132.16 57.957 132.363 57.6602C132.574 57.3633 132.684 57.082 132.691 56.8164L133.582 58.2461C133.457 58.5664 133.285 58.8984 133.066 59.2422C132.855 59.5859 132.586 59.9102 132.258 60.2148C131.93 60.5117 131.535 60.7578 131.074 60.9531C130.613 61.1406 130.066 61.2344 129.434 61.2344C128.629 61.2344 127.898 61.0742 127.242 60.7539C126.594 60.4258 126.078 59.9766 125.695 59.4062C125.32 58.8281 125.133 58.1719 125.133 57.4375C125.133 56.7734 125.258 56.1836 125.508 55.668C125.758 55.1523 126.125 54.7188 126.609 54.3672C127.102 54.0078 127.715 53.7383 128.449 53.5586C129.184 53.3711 130.035 53.2773 131.004 53.2773H132.961ZM146.016 57.9648V48.3203H149.391V61H146.215L146.016 57.9648ZM146.391 55.3633L147.387 55.3398C147.387 56.1836 147.289 56.9688 147.094 57.6953C146.898 58.4141 146.605 59.0391 146.215 59.5703C145.824 60.0938 145.332 60.5039 144.738 60.8008C144.145 61.0898 143.445 61.2344 142.641 61.2344C142.023 61.2344 141.453 61.1484 140.93 60.9766C140.414 60.7969 139.969 60.5195 139.594 60.1445C139.227 59.7617 138.938 59.2734 138.727 58.6797C138.523 58.0781 138.422 57.3555 138.422 56.5117V48.3203H141.797V56.5352C141.797 56.9102 141.84 57.2266 141.926 57.4844C142.02 57.7422 142.148 57.9531 142.312 58.1172C142.477 58.2812 142.668 58.3984 142.887 58.4688C143.113 58.5391 143.363 58.5742 143.637 58.5742C144.332 58.5742 144.879 58.4336 145.277 58.1523C145.684 57.8711 145.969 57.4883 146.133 57.0039C146.305 56.5117 146.391 55.9648 146.391 55.3633ZM155.273 51.0273V61H151.898V48.3203H155.062L155.273 51.0273ZM154.781 54.2148H153.867C153.867 53.2773 153.988 52.4336 154.23 51.6836C154.473 50.9258 154.812 50.2812 155.25 49.75C155.688 49.2109 156.207 48.8008 156.809 48.5195C157.418 48.2305 158.098 48.0859 158.848 48.0859C159.441 48.0859 159.984 48.1719 160.477 48.3438C160.969 48.5156 161.391 48.7891 161.742 49.1641C162.102 49.5391 162.375 50.0352 162.562 50.6523C162.758 51.2695 162.855 52.0234 162.855 52.9141V61H159.457V52.9023C159.457 52.3398 159.379 51.9023 159.223 51.5898C159.066 51.2773 158.836 51.0586 158.531 50.9336C158.234 50.8008 157.867 50.7344 157.43 50.7344C156.977 50.7344 156.582 50.8242 156.246 51.0039C155.918 51.1836 155.645 51.4336 155.426 51.7539C155.215 52.0664 155.055 52.4336 154.945 52.8555C154.836 53.2773 154.781 53.7305 154.781 54.2148ZM170.66 58.5977C171.074 58.5977 171.441 58.5195 171.762 58.3633C172.082 58.1992 172.332 57.9727 172.512 57.6836C172.699 57.3867 172.797 57.0391 172.805 56.6406H175.98C175.973 57.5312 175.734 58.3242 175.266 59.0195C174.797 59.707 174.168 60.25 173.379 60.6484C172.59 61.0391 171.707 61.2344 170.73 61.2344C169.746 61.2344 168.887 61.0703 168.152 60.7422C167.426 60.4141 166.82 59.9609 166.336 59.3828C165.852 58.7969 165.488 58.1172 165.246 57.3438C165.004 56.5625 164.883 55.7266 164.883 54.8359V54.4961C164.883 53.5977 165.004 52.7617 165.246 51.9883C165.488 51.207 165.852 50.5273 166.336 49.9492C166.82 49.3633 167.426 48.9062 168.152 48.5781C168.879 48.25 169.73 48.0859 170.707 48.0859C171.746 48.0859 172.656 48.2852 173.438 48.6836C174.227 49.082 174.844 49.6523 175.289 50.3945C175.742 51.1289 175.973 52 175.98 53.0078H172.805C172.797 52.5859 172.707 52.2031 172.535 51.8594C172.371 51.5156 172.129 51.2422 171.809 51.0391C171.496 50.8281 171.109 50.7227 170.648 50.7227C170.156 50.7227 169.754 50.8281 169.441 51.0391C169.129 51.2422 168.887 51.5234 168.715 51.8828C168.543 52.2344 168.422 52.6367 168.352 53.0898C168.289 53.5352 168.258 54.0039 168.258 54.4961V54.8359C168.258 55.3281 168.289 55.8008 168.352 56.2539C168.414 56.707 168.531 57.1094 168.703 57.4609C168.883 57.8125 169.129 58.0898 169.441 58.293C169.754 58.4961 170.16 58.5977 170.66 58.5977ZM181.23 43V61H177.855V43H181.23ZM180.75 54.2148H179.824C179.832 53.332 179.949 52.5195 180.176 51.7773C180.402 51.0273 180.727 50.3789 181.148 49.832C181.57 49.2773 182.074 48.8477 182.66 48.543C183.254 48.2383 183.91 48.0859 184.629 48.0859C185.254 48.0859 185.82 48.1758 186.328 48.3555C186.844 48.5273 187.285 48.8086 187.652 49.1992C188.027 49.582 188.316 50.0859 188.52 50.7109C188.723 51.3359 188.824 52.0938 188.824 52.9844V61H185.426V52.9609C185.426 52.3984 185.344 51.957 185.18 51.6367C185.023 51.3086 184.793 51.0781 184.488 50.9453C184.191 50.8047 183.824 50.7344 183.387 50.7344C182.902 50.7344 182.488 50.8242 182.145 51.0039C181.809 51.1836 181.539 51.4336 181.336 51.7539C181.133 52.0664 180.984 52.4336 180.891 52.8555C180.797 53.2773 180.75 53.7305 180.75 54.2148ZM202.98 50.8867V53.6289H194.074V50.8867H202.98ZM195.117 43.9375V61H191.602V43.9375H195.117ZM205.488 43.9375V61H201.984V43.9375H205.488ZM215.836 57.9648V48.3203H219.211V61H216.035L215.836 57.9648ZM216.211 55.3633L217.207 55.3398C217.207 56.1836 217.109 56.9688 216.914 57.6953C216.719 58.4141 216.426 59.0391 216.035 59.5703C215.645 60.0938 215.152 60.5039 214.559 60.8008C213.965 61.0898 213.266 61.2344 212.461 61.2344C211.844 61.2344 211.273 61.1484 210.75 60.9766C210.234 60.7969 209.789 60.5195 209.414 60.1445C209.047 59.7617 208.758 59.2734 208.547 58.6797C208.344 58.0781 208.242 57.3555 208.242 56.5117V48.3203H211.617V56.5352C211.617 56.9102 211.66 57.2266 211.746 57.4844C211.84 57.7422 211.969 57.9531 212.133 58.1172C212.297 58.2812 212.488 58.3984 212.707 58.4688C212.934 58.5391 213.184 58.5742 213.457 58.5742C214.152 58.5742 214.699 58.4336 215.098 58.1523C215.504 57.8711 215.789 57.4883 215.953 57.0039C216.125 56.5117 216.211 55.9648 216.211 55.3633ZM221.789 43H225.164V58.0938L224.824 61H221.789V43ZM233.191 54.5312V54.7773C233.191 55.7227 233.09 56.5898 232.887 57.3789C232.691 58.168 232.387 58.8516 231.973 59.4297C231.559 60 231.043 60.4453 230.426 60.7656C229.816 61.0781 229.098 61.2344 228.27 61.2344C227.496 61.2344 226.824 61.0781 226.254 60.7656C225.691 60.4531 225.219 60.0117 224.836 59.4414C224.453 58.8711 224.145 58.2031 223.91 57.4375C223.676 56.6719 223.5 55.8359 223.383 54.9297V54.3906C223.5 53.4844 223.676 52.6484 223.91 51.8828C224.145 51.1172 224.453 50.4492 224.836 49.8789C225.219 49.3086 225.691 48.8672 226.254 48.5547C226.816 48.2422 227.48 48.0859 228.246 48.0859C229.082 48.0859 229.809 48.2461 230.426 48.5664C231.051 48.8789 231.566 49.3242 231.973 49.9023C232.387 50.4727 232.691 51.1523 232.887 51.9414C233.09 52.7227 233.191 53.5859 233.191 54.5312ZM229.816 54.7773V54.5312C229.816 54.0156 229.777 53.5312 229.699 53.0781C229.629 52.6172 229.504 52.2148 229.324 51.8711C229.145 51.5195 228.898 51.2422 228.586 51.0391C228.281 50.8359 227.887 50.7344 227.402 50.7344C226.941 50.7344 226.551 50.8125 226.23 50.9688C225.91 51.125 225.645 51.3438 225.434 51.625C225.23 51.9062 225.078 52.2422 224.977 52.6328C224.875 53.0156 224.812 53.4375 224.789 53.8984V55.4336C224.812 56.0508 224.914 56.5977 225.094 57.0742C225.281 57.543 225.562 57.9141 225.938 58.1875C226.32 58.4531 226.816 58.5859 227.426 58.5859C227.902 58.5859 228.297 58.4922 228.609 58.3047C228.922 58.1172 229.164 57.8516 229.336 57.5078C229.516 57.1641 229.641 56.7617 229.711 56.3008C229.781 55.832 229.816 55.3242 229.816 54.7773Z" fill="#888888"/>
<path d="M112.125 84.875V119H103.898V84.875H112.125ZM122.391 84.875V91.2266H93.8672V84.875H122.391ZM135.68 119.469C133.617 119.469 131.773 119.148 130.148 118.508C128.523 117.852 127.148 116.953 126.023 115.812C124.914 114.672 124.062 113.359 123.469 111.875C122.891 110.391 122.602 108.82 122.602 107.164V106.273C122.602 104.414 122.859 102.695 123.375 101.117C123.891 99.5234 124.656 98.1328 125.672 96.9453C126.688 95.7578 127.961 94.8359 129.492 94.1797C131.023 93.5078 132.805 93.1719 134.836 93.1719C136.633 93.1719 138.242 93.4609 139.664 94.0391C141.086 94.6172 142.289 95.4453 143.273 96.5234C144.273 97.6016 145.031 98.9062 145.547 100.438C146.078 101.969 146.344 103.688 146.344 105.594V108.805H125.625V103.859H138.633V103.25C138.648 102.406 138.5 101.688 138.188 101.094C137.891 100.5 137.453 100.047 136.875 99.7344C136.297 99.4219 135.594 99.2656 134.766 99.2656C133.906 99.2656 133.195 99.4531 132.633 99.8281C132.086 100.203 131.656 100.719 131.344 101.375C131.047 102.016 130.836 102.758 130.711 103.602C130.586 104.445 130.523 105.336 130.523 106.273V107.164C130.523 108.102 130.648 108.953 130.898 109.719C131.164 110.484 131.539 111.141 132.023 111.688C132.523 112.219 133.117 112.633 133.805 112.93C134.508 113.227 135.305 113.375 136.195 113.375C137.273 113.375 138.336 113.172 139.383 112.766C140.43 112.359 141.328 111.688 142.078 110.75L145.664 115.016C145.148 115.75 144.414 116.461 143.461 117.148C142.523 117.836 141.398 118.398 140.086 118.836C138.773 119.258 137.305 119.469 135.68 119.469ZM160.266 113.375C161 113.375 161.625 113.242 162.141 112.977C162.672 112.695 163.07 112.305 163.336 111.805C163.617 111.289 163.75 110.672 163.734 109.953H171.164C171.18 111.859 170.711 113.531 169.758 114.969C168.82 116.391 167.539 117.5 165.914 118.297C164.305 119.078 162.484 119.469 160.453 119.469C158.469 119.469 156.734 119.148 155.25 118.508C153.766 117.852 152.523 116.945 151.523 115.789C150.539 114.617 149.797 113.25 149.297 111.688C148.812 110.125 148.57 108.43 148.57 106.602V106.062C148.57 104.234 148.812 102.539 149.297 100.977C149.797 99.3984 150.539 98.0312 151.523 96.875C152.523 95.7031 153.758 94.7969 155.227 94.1562C156.711 93.5 158.438 93.1719 160.406 93.1719C162.516 93.1719 164.375 93.5703 165.984 94.3672C167.609 95.1641 168.883 96.3203 169.805 97.8359C170.727 99.3516 171.18 101.188 171.164 103.344H163.734C163.75 102.578 163.633 101.891 163.383 101.281C163.133 100.672 162.742 100.188 162.211 99.8281C161.695 99.4531 161.031 99.2656 160.219 99.2656C159.406 99.2656 158.75 99.4453 158.25 99.8047C157.75 100.164 157.367 100.664 157.102 101.305C156.852 101.93 156.68 102.648 156.586 103.461C156.508 104.273 156.469 105.141 156.469 106.062V106.602C156.469 107.539 156.508 108.422 156.586 109.25C156.68 110.062 156.859 110.781 157.125 111.406C157.391 112.016 157.773 112.5 158.273 112.859C158.773 113.203 159.438 113.375 160.266 113.375ZM182.273 83V119H174.375V83H182.273ZM181.336 105.453L179.484 105.5C179.484 103.719 179.703 102.078 180.141 100.578C180.578 99.0781 181.203 97.7734 182.016 96.6641C182.828 95.5547 183.805 94.6953 184.945 94.0859C186.086 93.4766 187.352 93.1719 188.742 93.1719C189.992 93.1719 191.133 93.3516 192.164 93.7109C193.211 94.0703 194.109 94.6484 194.859 95.4453C195.625 96.2422 196.211 97.2812 196.617 98.5625C197.039 99.8438 197.25 101.406 197.25 103.25V119H189.305V103.203C189.305 102.172 189.156 101.375 188.859 100.812C188.578 100.234 188.172 99.8359 187.641 99.6172C187.109 99.3828 186.461 99.2656 185.695 99.2656C184.773 99.2656 184.023 99.4219 183.445 99.7344C182.867 100.047 182.422 100.484 182.109 101.047C181.812 101.594 181.609 102.242 181.5 102.992C181.391 103.742 181.336 104.562 181.336 105.453ZM231.539 109.93C231.539 109.398 231.461 108.922 231.305 108.5C231.148 108.062 230.859 107.656 230.438 107.281C230.016 106.906 229.406 106.531 228.609 106.156C227.828 105.766 226.797 105.359 225.516 104.938C224.016 104.438 222.57 103.875 221.18 103.25C219.789 102.609 218.547 101.867 217.453 101.023C216.359 100.164 215.492 99.1641 214.852 98.0234C214.211 96.8672 213.891 95.5234 213.891 93.9922C213.891 92.5234 214.219 91.2031 214.875 90.0312C215.531 88.8438 216.445 87.8359 217.617 87.0078C218.805 86.1641 220.195 85.5234 221.789 85.0859C223.383 84.6328 225.125 84.4062 227.016 84.4062C229.516 84.4062 231.719 84.8438 233.625 85.7188C235.547 86.5781 237.047 87.8047 238.125 89.3984C239.219 90.9766 239.766 92.8438 239.766 95H231.586C231.586 94.1406 231.406 93.3828 231.047 92.7266C230.703 92.0703 230.18 91.5547 229.477 91.1797C228.773 90.8047 227.891 90.6172 226.828 90.6172C225.797 90.6172 224.93 90.7734 224.227 91.0859C223.523 91.3984 222.992 91.8203 222.633 92.3516C222.273 92.8672 222.094 93.4375 222.094 94.0625C222.094 94.5781 222.234 95.0469 222.516 95.4688C222.812 95.875 223.227 96.2578 223.758 96.6172C224.305 96.9766 224.961 97.3203 225.727 97.6484C226.508 97.9766 227.383 98.2969 228.352 98.6094C230.164 99.1875 231.773 99.8359 233.18 100.555C234.602 101.258 235.797 102.062 236.766 102.969C237.75 103.859 238.492 104.875 238.992 106.016C239.508 107.156 239.766 108.445 239.766 109.883C239.766 111.414 239.469 112.773 238.875 113.961C238.281 115.148 237.43 116.156 236.32 116.984C235.211 117.797 233.883 118.414 232.336 118.836C230.789 119.258 229.062 119.469 227.156 119.469C225.406 119.469 223.68 119.25 221.977 118.812C220.289 118.359 218.758 117.672 217.383 116.75C216.008 115.812 214.906 114.617 214.078 113.164C213.266 111.695 212.859 109.953 212.859 107.938H221.109C221.109 108.938 221.242 109.781 221.508 110.469C221.773 111.156 222.164 111.711 222.68 112.133C223.195 112.539 223.828 112.836 224.578 113.023C225.328 113.195 226.188 113.281 227.156 113.281C228.203 113.281 229.047 113.133 229.688 112.836C230.328 112.523 230.797 112.117 231.094 111.617C231.391 111.102 231.539 110.539 231.539 109.93ZM256.992 93.6406V99.125H241.711V93.6406H256.992ZM244.922 87.3359H252.82V110.727C252.82 111.398 252.898 111.922 253.055 112.297C253.211 112.656 253.477 112.914 253.852 113.07C254.242 113.211 254.758 113.281 255.398 113.281C255.852 113.281 256.227 113.273 256.523 113.258C256.82 113.227 257.102 113.188 257.367 113.141V118.789C256.695 119.008 255.992 119.172 255.258 119.281C254.523 119.406 253.742 119.469 252.914 119.469C251.227 119.469 249.781 119.203 248.578 118.672C247.391 118.141 246.484 117.305 245.859 116.164C245.234 115.023 244.922 113.539 244.922 111.711V87.3359ZM273.305 112.625V102.172C273.305 101.453 273.203 100.836 273 100.32C272.797 99.8047 272.477 99.4062 272.039 99.125C271.602 98.8281 271.016 98.6797 270.281 98.6797C269.688 98.6797 269.18 98.7812 268.758 98.9844C268.336 99.1875 268.016 99.4922 267.797 99.8984C267.578 100.305 267.469 100.82 267.469 101.445H259.57C259.57 100.273 259.828 99.1875 260.344 98.1875C260.875 97.1719 261.625 96.2891 262.594 95.5391C263.578 94.7891 264.75 94.2109 266.109 93.8047C267.484 93.3828 269.016 93.1719 270.703 93.1719C272.719 93.1719 274.516 93.5078 276.094 94.1797C277.688 94.8516 278.945 95.8594 279.867 97.2031C280.789 98.5312 281.25 100.203 281.25 102.219V112.602C281.25 114.258 281.344 115.516 281.531 116.375C281.719 117.219 281.984 117.961 282.328 118.602V119H274.406C274.031 118.219 273.75 117.266 273.562 116.141C273.391 115 273.305 113.828 273.305 112.625ZM274.266 103.508L274.312 107.727H270.82C270.086 107.727 269.461 107.828 268.945 108.031C268.445 108.234 268.039 108.516 267.727 108.875C267.43 109.219 267.211 109.609 267.07 110.047C266.945 110.484 266.883 110.945 266.883 111.43C266.883 111.898 266.992 112.32 267.211 112.695C267.445 113.055 267.758 113.336 268.148 113.539C268.539 113.742 268.977 113.844 269.461 113.844C270.336 113.844 271.078 113.68 271.688 113.352C272.312 113.008 272.789 112.594 273.117 112.109C273.445 111.625 273.609 111.172 273.609 110.75L275.344 113.984C275.031 114.609 274.672 115.242 274.266 115.883C273.875 116.523 273.383 117.117 272.789 117.664C272.211 118.195 271.5 118.633 270.656 118.977C269.812 119.305 268.789 119.469 267.586 119.469C266.023 119.469 264.586 119.148 263.273 118.508C261.977 117.867 260.938 116.977 260.156 115.836C259.375 114.68 258.984 113.352 258.984 111.852C258.984 110.539 259.219 109.367 259.688 108.336C260.172 107.305 260.898 106.43 261.867 105.711C262.836 104.992 264.07 104.445 265.57 104.07C267.07 103.695 268.836 103.508 270.867 103.508H274.266ZM296.344 113.375C297.078 113.375 297.703 113.242 298.219 112.977C298.75 112.695 299.148 112.305 299.414 111.805C299.695 111.289 299.828 110.672 299.812 109.953H307.242C307.258 111.859 306.789 113.531 305.836 114.969C304.898 116.391 303.617 117.5 301.992 118.297C300.383 119.078 298.562 119.469 296.531 119.469C294.547 119.469 292.812 119.148 291.328 118.508C289.844 117.852 288.602 116.945 287.602 115.789C286.617 114.617 285.875 113.25 285.375 111.688C284.891 110.125 284.648 108.43 284.648 106.602V106.062C284.648 104.234 284.891 102.539 285.375 100.977C285.875 99.3984 286.617 98.0312 287.602 96.875C288.602 95.7031 289.836 94.7969 291.305 94.1562C292.789 93.5 294.516 93.1719 296.484 93.1719C298.594 93.1719 300.453 93.5703 302.062 94.3672C303.688 95.1641 304.961 96.3203 305.883 97.8359C306.805 99.3516 307.258 101.188 307.242 103.344H299.812C299.828 102.578 299.711 101.891 299.461 101.281C299.211 100.672 298.82 100.188 298.289 99.8281C297.773 99.4531 297.109 99.2656 296.297 99.2656C295.484 99.2656 294.828 99.4453 294.328 99.8047C293.828 100.164 293.445 100.664 293.18 101.305C292.93 101.93 292.758 102.648 292.664 103.461C292.586 104.273 292.547 105.141 292.547 106.062V106.602C292.547 107.539 292.586 108.422 292.664 109.25C292.758 110.062 292.938 110.781 293.203 111.406C293.469 112.016 293.852 112.5 294.352 112.859C294.852 113.203 295.516 113.375 296.344 113.375ZM318.586 82.9766V119H310.688V82.9766H318.586ZM334.805 93.6406L323.789 106.555L318.023 112.32L314.578 107.305L319.383 101.047L325.336 93.6406H334.805ZM326.344 119L319.57 107.445L325.406 103.297L335.391 119H326.344Z" fill="black"/>
<path d="M1134 0H1348C1356.28 0 1363 6.71573 1363 15V148C1363 156.284 1356.28 163 1348 163H1134V0Z" fill="#326789"/>
<path fill-rule="evenodd" clip-rule="evenodd" d="M1218.75 53C1218.62 53 1218.49 53.0527 1218.4 53.1464C1218.3 53.2402 1218.25 53.3674 1218.25 53.5V109.5C1218.25 109.633 1218.3 109.76 1218.4 109.854C1218.49 109.947 1218.62 110 1218.75 110H1278.25C1278.38 110 1278.51 109.947 1278.6 109.854C1278.7 109.76 1278.75 109.633 1278.75 109.5V64C1278.75 63.8674 1278.7 63.7402 1278.6 63.6464C1278.51 63.5527 1278.38 63.5 1278.25 63.5H1248.5C1247.61 63.5 1246.77 63.1045 1246.2 62.4206L1238.34 53H1218.75ZM1214.15 48.9038C1215.37 47.6848 1217.03 47 1218.75 47H1239.75C1240.64 47 1241.48 47.3955 1242.05 48.0794L1249.91 57.5H1278.25C1279.97 57.5 1281.63 58.1848 1282.85 59.4038C1284.07 60.6228 1284.75 62.2761 1284.75 64V109.5C1284.75 111.224 1284.07 112.877 1282.85 114.096C1281.63 115.315 1279.97 116 1278.25 116H1218.75C1217.03 116 1215.37 115.315 1214.15 114.096C1212.93 112.877 1212.25 111.224 1212.25 109.5V53.5C1212.25 51.7761 1212.93 50.1228 1214.15 48.9038Z" fill="white"/>
<path fill-rule="evenodd" clip-rule="evenodd" d="M1243.97 75.5251C1245.34 76.892 1245.34 79.108 1243.97 80.4749L1237.7 86.75L1243.97 93.0251C1245.34 94.392 1245.34 96.608 1243.97 97.9749C1242.61 99.3417 1240.39 99.3417 1239.03 97.9749L1230.28 89.2249C1228.91 87.858 1228.91 85.642 1230.28 84.2751L1239.03 75.5251C1240.39 74.1583 1242.61 74.1583 1243.97 75.5251Z" fill="white"/>
<path fill-rule="evenodd" clip-rule="evenodd" d="M1252.28 97.9749C1250.91 96.608 1250.91 94.392 1252.28 93.0251L1258.55 86.75L1252.28 80.4749C1250.91 79.108 1250.91 76.892 1252.28 75.5251C1253.64 74.1583 1255.86 74.1583 1257.22 75.5251L1265.97 84.2751C1267.34 85.642 1267.34 87.858 1265.97 89.2249L1257.22 97.9749C1255.86 99.3417 1253.64 99.3417 1252.28 97.9749Z" fill="white"/>
</svg>
