<svg width="1363" height="297" viewBox="0 0 1363 297" fill="none" xmlns="http://www.w3.org/2000/svg">
<path d="M0 15C0 6.71573 6.71573 0 15 0H37V297H15C6.71573 297 0 290.284 0 282V15Z" fill="#326789"/>
<path d="M37 0H1066V297H37V0Z" fill="#F0F0F0"/>
<path d="M105.691 53.7832L98.7305 75H93.123L102.633 49.4062H106.201L105.691 53.7832ZM111.475 75L104.496 53.7832L103.934 49.4062H107.537L117.1 75H111.475ZM111.158 65.4727V69.6035H97.6406V65.4727H111.158ZM124.5 48V75H119.42V48H124.5ZM134.027 55.9805V75H128.947V55.9805H134.027ZM128.631 51.0234C128.631 50.2852 128.889 49.6758 129.404 49.1953C129.92 48.7148 130.611 48.4746 131.479 48.4746C132.334 48.4746 133.02 48.7148 133.535 49.1953C134.062 49.6758 134.326 50.2852 134.326 51.0234C134.326 51.7617 134.062 52.3711 133.535 52.8516C133.02 53.332 132.334 53.5723 131.479 53.5723C130.611 53.5723 129.92 53.332 129.404 52.8516C128.889 52.3711 128.631 51.7617 128.631 51.0234ZM164.666 70.8867V75H151.043V70.8867H164.666ZM152.766 49.4062V75H147.492V49.4062H152.766ZM162.891 59.8301V63.8379H151.043V59.8301H162.891ZM164.648 49.4062V53.5371H151.043V49.4062H164.648ZM172.77 48V75H167.689V48H172.77ZM184.811 71.3965C185.432 71.3965 185.982 71.2793 186.463 71.0449C186.943 70.7988 187.318 70.459 187.588 70.0254C187.869 69.5801 188.016 69.0586 188.027 68.4609H192.791C192.779 69.7969 192.422 70.9863 191.719 72.0293C191.016 73.0605 190.072 73.875 188.889 74.4727C187.705 75.0586 186.381 75.3516 184.916 75.3516C183.439 75.3516 182.15 75.1055 181.049 74.6133C179.959 74.1211 179.051 73.4414 178.324 72.5742C177.598 71.6953 177.053 70.6758 176.689 69.5156C176.326 68.3438 176.145 67.0898 176.145 65.7539V65.2441C176.145 63.8965 176.326 62.6426 176.689 61.4824C177.053 60.3105 177.598 59.291 178.324 58.4238C179.051 57.5449 179.959 56.8594 181.049 56.3672C182.139 55.875 183.416 55.6289 184.881 55.6289C186.439 55.6289 187.805 55.9277 188.977 56.5254C190.16 57.123 191.086 57.9785 191.754 59.0918C192.434 60.1934 192.779 61.5 192.791 63.0117H188.027C188.016 62.3789 187.881 61.8047 187.623 61.2891C187.377 60.7734 187.014 60.3633 186.533 60.0586C186.064 59.7422 185.484 59.584 184.793 59.584C184.055 59.584 183.451 59.7422 182.982 60.0586C182.514 60.3633 182.15 60.7852 181.893 61.3242C181.635 61.8516 181.453 62.4551 181.348 63.1348C181.254 63.8027 181.207 64.5059 181.207 65.2441V65.7539C181.207 66.4922 181.254 67.2012 181.348 67.8809C181.441 68.5605 181.617 69.1641 181.875 69.6914C182.145 70.2188 182.514 70.6348 182.982 70.9395C183.451 71.2441 184.061 71.3965 184.811 71.3965ZM200.666 48V75H195.604V48H200.666ZM199.945 64.8223H198.557C198.568 63.498 198.744 62.2793 199.084 61.166C199.424 60.041 199.91 59.0684 200.543 58.248C201.176 57.416 201.932 56.7715 202.811 56.3145C203.701 55.8574 204.686 55.6289 205.764 55.6289C206.701 55.6289 207.551 55.7637 208.312 56.0332C209.086 56.291 209.748 56.7129 210.299 57.2988C210.861 57.873 211.295 58.6289 211.6 59.5664C211.904 60.5039 212.057 61.6406 212.057 62.9766V75H206.959V62.9414C206.959 62.0977 206.836 61.4355 206.59 60.9551C206.355 60.4629 206.01 60.1172 205.553 59.918C205.107 59.707 204.557 59.6016 203.9 59.6016C203.174 59.6016 202.553 59.7363 202.037 60.0059C201.533 60.2754 201.129 60.6504 200.824 61.1309C200.52 61.5996 200.297 62.1504 200.156 62.7832C200.016 63.416 199.945 64.0957 199.945 64.8223ZM226.172 70.7109V62.2383C226.172 61.6289 226.072 61.1074 225.873 60.6738C225.674 60.2285 225.363 59.8828 224.941 59.6367C224.531 59.3906 223.998 59.2676 223.342 59.2676C222.779 59.2676 222.293 59.3672 221.883 59.5664C221.473 59.7539 221.156 60.0293 220.934 60.3926C220.711 60.7441 220.6 61.1602 220.6 61.6406H215.537C215.537 60.832 215.725 60.0645 216.1 59.3379C216.475 58.6113 217.02 57.9727 217.734 57.4219C218.449 56.8594 219.299 56.4199 220.283 56.1035C221.279 55.7871 222.393 55.6289 223.623 55.6289C225.1 55.6289 226.412 55.875 227.561 56.3672C228.709 56.8594 229.611 57.5977 230.268 58.582C230.936 59.5664 231.27 60.7969 231.27 62.2734V70.4121C231.27 71.4551 231.334 72.3105 231.463 72.9785C231.592 73.6348 231.779 74.209 232.025 74.7012V75H226.91C226.664 74.4844 226.477 73.8398 226.348 73.0664C226.23 72.2812 226.172 71.4961 226.172 70.7109ZM226.84 63.416L226.875 66.2812H224.045C223.377 66.2812 222.797 66.3574 222.305 66.5098C221.812 66.6621 221.408 66.8789 221.092 67.1602C220.775 67.4297 220.541 67.7461 220.389 68.1094C220.248 68.4727 220.178 68.8711 220.178 69.3047C220.178 69.7383 220.277 70.1309 220.477 70.4824C220.676 70.8223 220.963 71.0918 221.338 71.291C221.713 71.4785 222.152 71.5723 222.656 71.5723C223.418 71.5723 224.08 71.4199 224.643 71.1152C225.205 70.8105 225.639 70.4355 225.943 69.9902C226.26 69.5449 226.424 69.123 226.436 68.7246L227.771 70.8691C227.584 71.3496 227.326 71.8477 226.998 72.3633C226.682 72.8789 226.277 73.3652 225.785 73.8223C225.293 74.2676 224.701 74.6367 224.01 74.9297C223.318 75.2109 222.498 75.3516 221.549 75.3516C220.342 75.3516 219.246 75.1113 218.262 74.6309C217.289 74.1387 216.516 73.4648 215.941 72.6094C215.379 71.7422 215.098 70.7578 215.098 69.6562C215.098 68.6602 215.285 67.7754 215.66 67.002C216.035 66.2285 216.586 65.5781 217.312 65.0508C218.051 64.5117 218.971 64.1074 220.072 63.8379C221.174 63.5566 222.451 63.416 223.904 63.416H226.84ZM235.172 48H240.234V70.6406L239.725 75H235.172V48ZM252.275 65.2969V65.666C252.275 67.084 252.123 68.3848 251.818 69.5684C251.525 70.752 251.068 71.7773 250.447 72.6445C249.826 73.5 249.053 74.168 248.127 74.6484C247.213 75.1172 246.135 75.3516 244.893 75.3516C243.732 75.3516 242.725 75.1172 241.869 74.6484C241.025 74.1797 240.316 73.5176 239.742 72.6621C239.168 71.8066 238.705 70.8047 238.354 69.6562C238.002 68.5078 237.738 67.2539 237.562 65.8945V65.0859C237.738 63.7266 238.002 62.4727 238.354 61.3242C238.705 60.1758 239.168 59.1738 239.742 58.3184C240.316 57.4629 241.025 56.8008 241.869 56.332C242.713 55.8633 243.709 55.6289 244.857 55.6289C246.111 55.6289 247.201 55.8691 248.127 56.3496C249.064 56.8184 249.838 57.4863 250.447 58.3535C251.068 59.209 251.525 60.2285 251.818 61.4121C252.123 62.584 252.275 63.8789 252.275 65.2969ZM247.213 65.666V65.2969C247.213 64.5234 247.154 63.7969 247.037 63.1172C246.932 62.4258 246.744 61.8223 246.475 61.3066C246.205 60.7793 245.836 60.3633 245.367 60.0586C244.91 59.7539 244.318 59.6016 243.592 59.6016C242.9 59.6016 242.314 59.7188 241.834 59.9531C241.354 60.1875 240.955 60.5156 240.639 60.9375C240.334 61.3594 240.105 61.8633 239.953 62.4492C239.801 63.0234 239.707 63.6562 239.672 64.3477V66.6504C239.707 67.5762 239.859 68.3965 240.129 69.1113C240.41 69.8145 240.832 70.3711 241.395 70.7812C241.969 71.1797 242.713 71.3789 243.627 71.3789C244.342 71.3789 244.934 71.2383 245.402 70.957C245.871 70.6758 246.234 70.2773 246.492 69.7617C246.762 69.2461 246.949 68.6426 247.055 67.9512C247.16 67.248 247.213 66.4863 247.213 65.666Z" fill="#888888"/>
<path d="M122.34 132.617V140H102.215V132.617H122.34ZM105.633 100.188V140H96.0352V100.188H105.633ZM141.316 132.562V120.367C141.316 119.529 141.198 118.809 140.961 118.207C140.724 117.605 140.35 117.141 139.84 116.812C139.329 116.466 138.646 116.293 137.789 116.293C137.096 116.293 136.504 116.411 136.012 116.648C135.52 116.885 135.146 117.241 134.891 117.715C134.635 118.189 134.508 118.79 134.508 119.52H125.293C125.293 118.152 125.594 116.885 126.195 115.719C126.815 114.534 127.69 113.504 128.82 112.629C129.969 111.754 131.336 111.079 132.922 110.605C134.526 110.113 136.312 109.867 138.281 109.867C140.633 109.867 142.729 110.259 144.57 111.043C146.43 111.827 147.897 113.003 148.973 114.57C150.048 116.12 150.586 118.07 150.586 120.422V132.535C150.586 134.467 150.695 135.935 150.914 136.938C151.133 137.922 151.443 138.788 151.844 139.535V140H142.602C142.164 139.089 141.836 137.977 141.617 136.664C141.417 135.333 141.316 133.966 141.316 132.562ZM142.438 121.926L142.492 126.848H138.418C137.561 126.848 136.832 126.966 136.23 127.203C135.647 127.44 135.173 127.768 134.809 128.188C134.462 128.589 134.207 129.044 134.043 129.555C133.897 130.065 133.824 130.603 133.824 131.168C133.824 131.715 133.952 132.207 134.207 132.645C134.48 133.064 134.845 133.392 135.301 133.629C135.757 133.866 136.267 133.984 136.832 133.984C137.853 133.984 138.719 133.793 139.43 133.41C140.159 133.009 140.715 132.526 141.098 131.961C141.48 131.396 141.672 130.867 141.672 130.375L143.695 134.148C143.331 134.878 142.911 135.616 142.438 136.363C141.982 137.111 141.408 137.803 140.715 138.441C140.04 139.061 139.211 139.572 138.227 139.973C137.242 140.355 136.048 140.547 134.645 140.547C132.822 140.547 131.145 140.173 129.613 139.426C128.1 138.678 126.888 137.639 125.977 136.309C125.065 134.96 124.609 133.41 124.609 131.66C124.609 130.129 124.883 128.762 125.43 127.559C125.995 126.355 126.842 125.335 127.973 124.496C129.103 123.658 130.543 123.02 132.293 122.582C134.043 122.145 136.103 121.926 138.473 121.926H142.438ZM172.98 132.809V110.414H182.223V140H173.582L172.98 132.809ZM173.855 126.793L176.262 126.738C176.262 128.725 176.025 130.566 175.551 132.262C175.077 133.939 174.375 135.397 173.445 136.637C172.534 137.876 171.404 138.842 170.055 139.535C168.724 140.21 167.184 140.547 165.434 140.547C163.975 140.547 162.635 140.346 161.414 139.945C160.211 139.526 159.172 138.879 158.297 138.004C157.422 137.111 156.738 135.971 156.246 134.586C155.772 133.182 155.535 131.505 155.535 129.555V110.414H164.75V129.609C164.75 130.266 164.832 130.831 164.996 131.305C165.16 131.779 165.397 132.18 165.707 132.508C166.017 132.818 166.4 133.055 166.855 133.219C167.329 133.365 167.867 133.438 168.469 133.438C169.854 133.438 170.939 133.146 171.723 132.562C172.507 131.979 173.053 131.186 173.363 130.184C173.691 129.181 173.855 128.051 173.855 126.793ZM196.359 116.73V140H187.145V110.414H195.785L196.359 116.73ZM195.266 124.195L193.105 124.25C193.105 121.99 193.379 119.975 193.926 118.207C194.473 116.421 195.247 114.908 196.25 113.668C197.253 112.428 198.447 111.49 199.832 110.852C201.236 110.195 202.794 109.867 204.508 109.867C205.875 109.867 207.124 110.068 208.254 110.469C209.402 110.87 210.387 111.517 211.207 112.41C212.046 113.303 212.684 114.488 213.121 115.965C213.577 117.423 213.805 119.228 213.805 121.379V140H204.535V121.352C204.535 120.167 204.371 119.264 204.043 118.645C203.715 118.007 203.241 117.569 202.621 117.332C202.001 117.095 201.245 116.977 200.352 116.977C199.404 116.977 198.602 117.159 197.945 117.523C197.289 117.888 196.76 118.398 196.359 119.055C195.977 119.693 195.694 120.449 195.512 121.324C195.348 122.199 195.266 123.156 195.266 124.195ZM231.414 133.438C232.271 133.438 233 133.283 233.602 132.973C234.221 132.645 234.686 132.189 234.996 131.605C235.324 131.004 235.479 130.284 235.461 129.445H244.129C244.147 131.669 243.6 133.62 242.488 135.297C241.395 136.956 239.9 138.25 238.004 139.18C236.126 140.091 234.003 140.547 231.633 140.547C229.318 140.547 227.294 140.173 225.562 139.426C223.831 138.66 222.382 137.603 221.215 136.254C220.066 134.887 219.201 133.292 218.617 131.469C218.052 129.646 217.77 127.668 217.77 125.535V124.906C217.77 122.773 218.052 120.796 218.617 118.973C219.201 117.132 220.066 115.536 221.215 114.188C222.382 112.82 223.822 111.763 225.535 111.016C227.267 110.25 229.281 109.867 231.578 109.867C234.039 109.867 236.208 110.332 238.086 111.262C239.982 112.191 241.467 113.54 242.543 115.309C243.618 117.077 244.147 119.219 244.129 121.734H235.461C235.479 120.841 235.342 120.039 235.051 119.328C234.759 118.617 234.303 118.052 233.684 117.633C233.082 117.195 232.307 116.977 231.359 116.977C230.411 116.977 229.646 117.186 229.062 117.605C228.479 118.025 228.033 118.608 227.723 119.355C227.431 120.085 227.23 120.923 227.121 121.871C227.03 122.819 226.984 123.831 226.984 124.906V125.535C226.984 126.629 227.03 127.659 227.121 128.625C227.23 129.573 227.44 130.411 227.75 131.141C228.06 131.852 228.507 132.417 229.09 132.836C229.673 133.237 230.448 133.438 231.414 133.438ZM257.09 98V140H247.875V98H257.09ZM255.996 124.195L253.836 124.25C253.836 122.172 254.091 120.258 254.602 118.508C255.112 116.758 255.841 115.236 256.789 113.941C257.737 112.647 258.876 111.645 260.207 110.934C261.538 110.223 263.014 109.867 264.637 109.867C266.095 109.867 267.426 110.077 268.629 110.496C269.85 110.915 270.898 111.59 271.773 112.52C272.667 113.449 273.35 114.661 273.824 116.156C274.316 117.651 274.562 119.474 274.562 121.625V140H265.293V121.57C265.293 120.367 265.12 119.438 264.773 118.781C264.445 118.107 263.971 117.642 263.352 117.387C262.732 117.113 261.975 116.977 261.082 116.977C260.007 116.977 259.132 117.159 258.457 117.523C257.783 117.888 257.263 118.398 256.898 119.055C256.552 119.693 256.315 120.449 256.188 121.324C256.06 122.199 255.996 123.156 255.996 124.195ZM306.938 115.992V123.375H286.512V115.992H306.938ZM289.711 100.188V140H280.113V100.188H289.711ZM313.391 100.188V140H303.82V100.188H313.391ZM336.332 132.809V110.414H345.574V140H336.934L336.332 132.809ZM337.207 126.793L339.613 126.738C339.613 128.725 339.376 130.566 338.902 132.262C338.428 133.939 337.727 135.397 336.797 136.637C335.885 137.876 334.755 138.842 333.406 139.535C332.076 140.21 330.535 140.547 328.785 140.547C327.327 140.547 325.987 140.346 324.766 139.945C323.562 139.526 322.523 138.879 321.648 138.004C320.773 137.111 320.09 135.971 319.598 134.586C319.124 133.182 318.887 131.505 318.887 129.555V110.414H328.102V129.609C328.102 130.266 328.184 130.831 328.348 131.305C328.512 131.779 328.749 132.18 329.059 132.508C329.368 132.818 329.751 133.055 330.207 133.219C330.681 133.365 331.219 133.438 331.82 133.438C333.206 133.438 334.29 133.146 335.074 132.562C335.858 131.979 336.405 131.186 336.715 130.184C337.043 129.181 337.207 128.051 337.207 126.793ZM350.742 98H359.957V132.727L359 140H350.742V98ZM378.113 124.879V125.453C378.113 127.695 377.885 129.737 377.43 131.578C376.974 133.419 376.272 135.014 375.324 136.363C374.376 137.694 373.182 138.724 371.742 139.453C370.302 140.182 368.598 140.547 366.629 140.547C364.842 140.547 363.311 140.164 362.035 139.398C360.759 138.615 359.693 137.539 358.836 136.172C357.979 134.786 357.286 133.191 356.758 131.387C356.229 129.564 355.81 127.613 355.5 125.535V124.852C355.81 122.792 356.229 120.859 356.758 119.055C357.286 117.232 357.979 115.637 358.836 114.27C359.693 112.884 360.75 111.809 362.008 111.043C363.284 110.259 364.806 109.867 366.574 109.867C368.561 109.867 370.275 110.241 371.715 110.988C373.173 111.736 374.376 112.784 375.324 114.133C376.272 115.482 376.974 117.068 377.43 118.891C377.885 120.714 378.113 122.71 378.113 124.879ZM368.898 125.453V124.879C368.898 123.803 368.835 122.792 368.707 121.844C368.579 120.896 368.352 120.057 368.023 119.328C367.695 118.599 367.23 118.025 366.629 117.605C366.027 117.186 365.243 116.977 364.277 116.977C363.293 116.977 362.464 117.141 361.789 117.469C361.133 117.797 360.604 118.271 360.203 118.891C359.82 119.492 359.547 120.24 359.383 121.133C359.219 122.008 359.146 123.001 359.164 124.113V126.273C359.128 127.786 359.264 129.081 359.574 130.156C359.884 131.232 360.422 132.052 361.188 132.617C361.953 133.182 363.001 133.465 364.332 133.465C365.316 133.465 366.109 133.273 366.711 132.891C367.331 132.508 367.796 131.961 368.105 131.25C368.415 130.539 368.625 129.691 368.734 128.707C368.844 127.723 368.898 126.638 368.898 125.453Z" fill="black"/>
<rect x="93" y="178" width="917" height="77" rx="10" fill="#D3D3D3"/>
<rect x="111" y="196" width="98" height="41" rx="3" fill="#424242"/>
<rect x="111" y="196" width="98" height="41" rx="3" stroke="#424242" stroke-width="4"/>
<path d="M137.078 210.203V223H133.993V210.203H137.078ZM142.053 215.529V217.902H136.199V215.529H142.053ZM142.554 210.203V212.585H136.199V210.203H142.554ZM146.825 209.5V223H143.854V209.5H146.825ZM154.208 220.688V213.49H157.179V223H154.401L154.208 220.688ZM154.489 218.755L155.263 218.737C155.263 219.376 155.187 219.968 155.034 220.513C154.882 221.052 154.656 221.521 154.357 221.919C154.064 222.317 153.701 222.628 153.268 222.851C152.84 223.067 152.345 223.176 151.782 223.176C151.313 223.176 150.883 223.111 150.49 222.982C150.104 222.848 149.77 222.64 149.488 222.358C149.207 222.071 148.987 221.705 148.829 221.26C148.677 220.809 148.601 220.27 148.601 219.643V213.49H151.562V219.66C151.562 219.871 151.589 220.053 151.642 220.205C151.694 220.357 151.771 220.486 151.87 220.592C151.97 220.691 152.093 220.768 152.239 220.82C152.392 220.867 152.564 220.891 152.758 220.891C153.203 220.891 153.552 220.797 153.804 220.609C154.056 220.422 154.231 220.167 154.331 219.845C154.437 219.522 154.489 219.159 154.489 218.755ZM163.823 213.49V215.547H158.093V213.49H163.823ZM159.297 211.126H162.259V219.897C162.259 220.149 162.288 220.346 162.347 220.486C162.405 220.621 162.505 220.718 162.646 220.776C162.792 220.829 162.985 220.855 163.226 220.855C163.396 220.855 163.536 220.853 163.647 220.847C163.759 220.835 163.864 220.82 163.964 220.803V222.921C163.712 223.003 163.448 223.064 163.173 223.105C162.897 223.152 162.604 223.176 162.294 223.176C161.661 223.176 161.119 223.076 160.668 222.877C160.223 222.678 159.883 222.364 159.648 221.937C159.414 221.509 159.297 220.952 159.297 220.267V211.126ZM170.011 213.49V215.547H164.28V213.49H170.011ZM165.484 211.126H168.446V219.897C168.446 220.149 168.476 220.346 168.534 220.486C168.593 220.621 168.692 220.718 168.833 220.776C168.979 220.829 169.173 220.855 169.413 220.855C169.583 220.855 169.724 220.853 169.835 220.847C169.946 220.835 170.052 220.82 170.151 220.803V222.921C169.899 223.003 169.636 223.064 169.36 223.105C169.085 223.152 168.792 223.176 168.481 223.176C167.849 223.176 167.307 223.076 166.855 222.877C166.41 222.678 166.07 222.364 165.836 221.937C165.602 221.509 165.484 220.952 165.484 220.267V211.126ZM175.794 223.176C175.021 223.176 174.329 223.056 173.72 222.815C173.11 222.569 172.595 222.232 172.173 221.805C171.757 221.377 171.438 220.885 171.215 220.328C170.998 219.771 170.89 219.183 170.89 218.562V218.228C170.89 217.53 170.986 216.886 171.18 216.294C171.373 215.696 171.66 215.175 172.041 214.729C172.422 214.284 172.899 213.938 173.474 213.692C174.048 213.44 174.716 213.314 175.478 213.314C176.151 213.314 176.755 213.423 177.288 213.64C177.821 213.856 178.272 214.167 178.642 214.571C179.017 214.976 179.301 215.465 179.494 216.039C179.693 216.613 179.793 217.258 179.793 217.973V219.177H172.023V217.322H176.901V217.094C176.907 216.777 176.852 216.508 176.734 216.285C176.623 216.062 176.459 215.893 176.242 215.775C176.025 215.658 175.762 215.6 175.451 215.6C175.129 215.6 174.862 215.67 174.651 215.811C174.446 215.951 174.285 216.145 174.168 216.391C174.057 216.631 173.978 216.909 173.931 217.226C173.884 217.542 173.86 217.876 173.86 218.228V218.562C173.86 218.913 173.907 219.232 174.001 219.52C174.101 219.807 174.241 220.053 174.423 220.258C174.61 220.457 174.833 220.612 175.091 220.724C175.354 220.835 175.653 220.891 175.987 220.891C176.392 220.891 176.79 220.814 177.183 220.662C177.575 220.51 177.912 220.258 178.193 219.906L179.538 221.506C179.345 221.781 179.069 222.048 178.712 222.306C178.36 222.563 177.938 222.774 177.446 222.938C176.954 223.097 176.403 223.176 175.794 223.176ZM183.985 215.846V223H181.023V213.49H183.792L183.985 215.846ZM186.798 213.42L186.745 216.171C186.628 216.159 186.47 216.145 186.271 216.127C186.071 216.109 185.904 216.101 185.77 216.101C185.424 216.101 185.125 216.142 184.873 216.224C184.627 216.3 184.422 216.417 184.258 216.575C184.1 216.728 183.982 216.921 183.906 217.155C183.836 217.39 183.804 217.662 183.81 217.973L183.273 217.621C183.273 216.982 183.335 216.402 183.458 215.881C183.587 215.354 183.769 214.899 184.003 214.519C184.237 214.132 184.521 213.836 184.855 213.631C185.189 213.42 185.564 213.314 185.98 213.314C186.127 213.314 186.271 213.323 186.411 213.341C186.558 213.358 186.687 213.385 186.798 213.42Z" fill="white"/>
<rect x="229" y="196" width="112" height="41" rx="3" fill="#424242"/>
<rect x="229" y="196" width="112" height="41" rx="3" stroke="#424242" stroke-width="4"/>
<path d="M261.19 220.627V223H254.37V220.627H261.19ZM255.469 210.203V223H252.384V210.203H255.469ZM260.312 215.283V217.577H254.37V215.283H260.312ZM261.217 210.203V212.585H254.37V210.203H261.217ZM265.444 209.5V223H262.474V209.5H265.444ZM271.878 223.176C271.104 223.176 270.413 223.056 269.804 222.815C269.194 222.569 268.679 222.232 268.257 221.805C267.841 221.377 267.521 220.885 267.299 220.328C267.082 219.771 266.974 219.183 266.974 218.562V218.228C266.974 217.53 267.07 216.886 267.264 216.294C267.457 215.696 267.744 215.175 268.125 214.729C268.506 214.284 268.983 213.938 269.558 213.692C270.132 213.44 270.8 213.314 271.562 213.314C272.235 213.314 272.839 213.423 273.372 213.64C273.905 213.856 274.356 214.167 274.726 214.571C275.101 214.976 275.385 215.465 275.578 216.039C275.777 216.613 275.877 217.258 275.877 217.973V219.177H268.107V217.322H272.985V217.094C272.991 216.777 272.936 216.508 272.818 216.285C272.707 216.062 272.543 215.893 272.326 215.775C272.109 215.658 271.846 215.6 271.535 215.6C271.213 215.6 270.946 215.67 270.735 215.811C270.53 215.951 270.369 216.145 270.252 216.391C270.141 216.631 270.062 216.909 270.015 217.226C269.968 217.542 269.944 217.876 269.944 218.228V218.562C269.944 218.913 269.991 219.232 270.085 219.52C270.185 219.807 270.325 220.053 270.507 220.258C270.694 220.457 270.917 220.612 271.175 220.724C271.438 220.835 271.737 220.891 272.071 220.891C272.476 220.891 272.874 220.814 273.267 220.662C273.659 220.51 273.996 220.258 274.277 219.906L275.622 221.506C275.429 221.781 275.153 222.048 274.796 222.306C274.444 222.563 274.022 222.774 273.53 222.938C273.038 223.097 272.487 223.176 271.878 223.176ZM281.098 220.891C281.373 220.891 281.607 220.841 281.801 220.741C282 220.636 282.149 220.489 282.249 220.302C282.354 220.108 282.404 219.877 282.398 219.607H285.185C285.19 220.322 285.015 220.949 284.657 221.488C284.306 222.021 283.825 222.438 283.216 222.736C282.612 223.029 281.93 223.176 281.168 223.176C280.424 223.176 279.773 223.056 279.217 222.815C278.66 222.569 278.194 222.229 277.819 221.796C277.45 221.356 277.172 220.844 276.984 220.258C276.803 219.672 276.712 219.036 276.712 218.351V218.148C276.712 217.463 276.803 216.827 276.984 216.241C277.172 215.649 277.45 215.137 277.819 214.703C278.194 214.264 278.657 213.924 279.208 213.684C279.765 213.438 280.412 213.314 281.15 213.314C281.941 213.314 282.639 213.464 283.242 213.763C283.852 214.062 284.329 214.495 284.675 215.063C285.021 215.632 285.19 216.32 285.185 217.129H282.398C282.404 216.842 282.36 216.584 282.267 216.355C282.173 216.127 282.026 215.945 281.827 215.811C281.634 215.67 281.385 215.6 281.08 215.6C280.775 215.6 280.529 215.667 280.342 215.802C280.154 215.937 280.011 216.124 279.911 216.364C279.817 216.599 279.753 216.868 279.718 217.173C279.688 217.478 279.674 217.803 279.674 218.148V218.351C279.674 218.702 279.688 219.033 279.718 219.344C279.753 219.648 279.82 219.918 279.92 220.152C280.02 220.381 280.163 220.562 280.351 220.697C280.538 220.826 280.787 220.891 281.098 220.891ZM291.46 213.49V215.547H285.729V213.49H291.46ZM286.934 211.126H289.896V219.897C289.896 220.149 289.925 220.346 289.983 220.486C290.042 220.621 290.142 220.718 290.282 220.776C290.429 220.829 290.622 220.855 290.862 220.855C291.032 220.855 291.173 220.853 291.284 220.847C291.396 220.835 291.501 220.82 291.601 220.803V222.921C291.349 223.003 291.085 223.064 290.81 223.105C290.534 223.152 290.241 223.176 289.931 223.176C289.298 223.176 288.756 223.076 288.305 222.877C287.859 222.678 287.52 222.364 287.285 221.937C287.051 221.509 286.934 220.952 286.934 220.267V211.126ZM295.626 215.846V223H292.664V213.49H295.433L295.626 215.846ZM298.438 213.42L298.386 216.171C298.269 216.159 298.11 216.145 297.911 216.127C297.712 216.109 297.545 216.101 297.41 216.101C297.064 216.101 296.766 216.142 296.514 216.224C296.268 216.3 296.062 216.417 295.898 216.575C295.74 216.728 295.623 216.921 295.547 217.155C295.477 217.39 295.444 217.662 295.45 217.973L294.914 217.621C294.914 216.982 294.976 216.402 295.099 215.881C295.228 215.354 295.409 214.899 295.644 214.519C295.878 214.132 296.162 213.836 296.496 213.631C296.83 213.42 297.205 213.314 297.621 213.314C297.768 213.314 297.911 213.323 298.052 213.341C298.198 213.358 298.327 213.385 298.438 213.42ZM298.772 218.342V218.157C298.772 217.46 298.872 216.818 299.071 216.232C299.271 215.641 299.563 215.128 299.95 214.694C300.337 214.261 300.814 213.924 301.383 213.684C301.951 213.438 302.607 213.314 303.352 213.314C304.102 213.314 304.761 213.438 305.329 213.684C305.903 213.924 306.384 214.261 306.771 214.694C307.157 215.128 307.45 215.641 307.649 216.232C307.849 216.818 307.948 217.46 307.948 218.157V218.342C307.948 219.033 307.849 219.675 307.649 220.267C307.45 220.853 307.157 221.365 306.771 221.805C306.384 222.238 305.906 222.575 305.338 222.815C304.77 223.056 304.113 223.176 303.369 223.176C302.625 223.176 301.966 223.056 301.392 222.815C300.817 222.575 300.337 222.238 299.95 221.805C299.563 221.365 299.271 220.853 299.071 220.267C298.872 219.675 298.772 219.033 298.772 218.342ZM301.734 218.157V218.342C301.734 218.699 301.761 219.033 301.813 219.344C301.866 219.654 301.954 219.927 302.077 220.161C302.2 220.39 302.367 220.568 302.578 220.697C302.789 220.826 303.053 220.891 303.369 220.891C303.68 220.891 303.938 220.826 304.143 220.697C304.354 220.568 304.521 220.39 304.644 220.161C304.767 219.927 304.854 219.654 304.907 219.344C304.96 219.033 304.986 218.699 304.986 218.342V218.157C304.986 217.812 304.96 217.486 304.907 217.182C304.854 216.871 304.767 216.599 304.644 216.364C304.521 216.124 304.354 215.937 304.143 215.802C303.932 215.667 303.668 215.6 303.352 215.6C303.041 215.6 302.78 215.667 302.569 215.802C302.364 215.937 302.2 216.124 302.077 216.364C301.954 216.599 301.866 216.871 301.813 217.182C301.761 217.486 301.734 217.812 301.734 218.157ZM312.176 215.521V223H309.214V213.49H311.991L312.176 215.521ZM311.824 217.92L311.13 217.938C311.13 217.211 311.218 216.563 311.394 215.995C311.569 215.421 311.818 214.935 312.141 214.536C312.463 214.138 312.847 213.836 313.292 213.631C313.743 213.42 314.244 213.314 314.795 213.314C315.234 213.314 315.636 213.379 315.999 213.508C316.368 213.637 316.685 213.845 316.948 214.132C317.218 214.419 317.423 214.8 317.563 215.274C317.71 215.743 317.783 216.323 317.783 217.015V223H314.804V217.006C314.804 216.625 314.751 216.335 314.646 216.136C314.54 215.931 314.388 215.79 314.188 215.714C313.989 215.638 313.746 215.6 313.459 215.6C313.154 215.6 312.896 215.658 312.686 215.775C312.475 215.893 312.305 216.057 312.176 216.268C312.053 216.473 311.962 216.716 311.903 216.997C311.851 217.278 311.824 217.586 311.824 217.92Z" fill="white"/>
<rect x="361" y="196" width="104" height="41" rx="3" fill="#424242"/>
<rect x="361" y="196" width="104" height="41" rx="3" stroke="#424242" stroke-width="4"/>
<path d="M392.812 220.627V223H386.343V220.627H392.812ZM387.441 210.203V223H384.356V210.203H387.441ZM398.911 220.609V216.689C398.911 216.42 398.873 216.188 398.797 215.995C398.721 215.802 398.601 215.652 398.437 215.547C398.272 215.436 398.053 215.38 397.777 215.38C397.555 215.38 397.364 215.418 397.206 215.494C397.048 215.57 396.928 215.685 396.846 215.837C396.764 215.989 396.723 216.183 396.723 216.417H393.761C393.761 215.978 393.857 215.57 394.051 215.195C394.25 214.814 394.531 214.483 394.895 214.202C395.264 213.921 395.703 213.704 396.213 213.552C396.729 213.394 397.303 213.314 397.936 213.314C398.691 213.314 399.365 213.44 399.957 213.692C400.555 213.944 401.026 214.322 401.372 214.826C401.718 215.324 401.891 215.951 401.891 216.707V220.601C401.891 221.222 401.926 221.693 401.996 222.016C402.066 222.332 402.166 222.61 402.295 222.851V223H399.324C399.184 222.707 399.078 222.35 399.008 221.928C398.943 221.5 398.911 221.061 398.911 220.609ZM399.271 217.19L399.289 218.772H397.979C397.704 218.772 397.47 218.811 397.276 218.887C397.089 218.963 396.937 219.068 396.819 219.203C396.708 219.332 396.626 219.479 396.573 219.643C396.526 219.807 396.503 219.979 396.503 220.161C396.503 220.337 396.544 220.495 396.626 220.636C396.714 220.771 396.831 220.876 396.978 220.952C397.124 221.028 397.288 221.066 397.47 221.066C397.798 221.066 398.076 221.005 398.305 220.882C398.539 220.753 398.718 220.598 398.841 220.416C398.964 220.234 399.025 220.064 399.025 219.906L399.676 221.119C399.559 221.354 399.424 221.591 399.271 221.831C399.125 222.071 398.94 222.294 398.718 222.499C398.501 222.698 398.234 222.862 397.918 222.991C397.602 223.114 397.218 223.176 396.767 223.176C396.181 223.176 395.642 223.056 395.149 222.815C394.663 222.575 394.273 222.241 393.98 221.813C393.688 221.38 393.541 220.882 393.541 220.319C393.541 219.827 393.629 219.388 393.805 219.001C393.986 218.614 394.259 218.286 394.622 218.017C394.985 217.747 395.448 217.542 396.011 217.401C396.573 217.261 397.235 217.19 397.997 217.19H399.271ZM406.522 215.846V223H403.561V213.49H406.329L406.522 215.846ZM409.335 213.42L409.282 216.171C409.165 216.159 409.007 216.145 408.808 216.127C408.608 216.109 408.441 216.101 408.307 216.101C407.961 216.101 407.662 216.142 407.41 216.224C407.164 216.3 406.959 216.417 406.795 216.575C406.637 216.728 406.52 216.921 406.443 217.155C406.373 217.39 406.341 217.662 406.347 217.973L405.811 217.621C405.811 216.982 405.872 216.402 405.995 215.881C406.124 215.354 406.306 214.899 406.54 214.519C406.774 214.132 407.059 213.836 407.393 213.631C407.727 213.42 408.102 213.314 408.518 213.314C408.664 213.314 408.808 213.323 408.948 213.341C409.095 213.358 409.224 213.385 409.335 213.42ZM415.03 220.609V216.689C415.03 216.42 414.992 216.188 414.916 215.995C414.84 215.802 414.72 215.652 414.556 215.547C414.392 215.436 414.172 215.38 413.896 215.38C413.674 215.38 413.483 215.418 413.325 215.494C413.167 215.57 413.047 215.685 412.965 215.837C412.883 215.989 412.842 216.183 412.842 216.417H409.88C409.88 215.978 409.977 215.57 410.17 215.195C410.369 214.814 410.65 214.483 411.014 214.202C411.383 213.921 411.822 213.704 412.332 213.552C412.848 213.394 413.422 213.314 414.055 213.314C414.811 213.314 415.484 213.44 416.076 213.692C416.674 213.944 417.146 214.322 417.491 214.826C417.837 215.324 418.01 215.951 418.01 216.707V220.601C418.01 221.222 418.045 221.693 418.115 222.016C418.186 222.332 418.285 222.61 418.414 222.851V223H415.443C415.303 222.707 415.197 222.35 415.127 221.928C415.062 221.5 415.03 221.061 415.03 220.609ZM415.391 217.19L415.408 218.772H414.099C413.823 218.772 413.589 218.811 413.396 218.887C413.208 218.963 413.056 219.068 412.938 219.203C412.827 219.332 412.745 219.479 412.692 219.643C412.646 219.807 412.622 219.979 412.622 220.161C412.622 220.337 412.663 220.495 412.745 220.636C412.833 220.771 412.95 220.876 413.097 220.952C413.243 221.028 413.407 221.066 413.589 221.066C413.917 221.066 414.195 221.005 414.424 220.882C414.658 220.753 414.837 220.598 414.96 220.416C415.083 220.234 415.145 220.064 415.145 219.906L415.795 221.119C415.678 221.354 415.543 221.591 415.391 221.831C415.244 222.071 415.06 222.294 414.837 222.499C414.62 222.698 414.354 222.862 414.037 222.991C413.721 223.114 413.337 223.176 412.886 223.176C412.3 223.176 411.761 223.056 411.269 222.815C410.782 222.575 410.393 222.241 410.1 221.813C409.807 221.38 409.66 220.882 409.66 220.319C409.66 219.827 409.748 219.388 409.924 219.001C410.105 218.614 410.378 218.286 410.741 218.017C411.104 217.747 411.567 217.542 412.13 217.401C412.692 217.261 413.354 217.19 414.116 217.19H415.391ZM422.94 220.97L424.812 213.49H427.933L424.821 223H422.976L422.94 220.97ZM421.833 213.49L423.679 220.97L423.661 223H421.807L418.704 213.49H421.833ZM433.294 223.176C432.521 223.176 431.829 223.056 431.22 222.815C430.61 222.569 430.095 222.232 429.673 221.805C429.257 221.377 428.938 220.885 428.715 220.328C428.498 219.771 428.39 219.183 428.39 218.562V218.228C428.39 217.53 428.486 216.886 428.68 216.294C428.873 215.696 429.16 215.175 429.541 214.729C429.922 214.284 430.399 213.938 430.974 213.692C431.548 213.44 432.216 213.314 432.978 213.314C433.651 213.314 434.255 213.423 434.788 213.64C435.321 213.856 435.772 214.167 436.142 214.571C436.517 214.976 436.801 215.465 436.994 216.039C437.193 216.613 437.293 217.258 437.293 217.973V219.177H429.523V217.322H434.401V217.094C434.407 216.777 434.352 216.508 434.234 216.285C434.123 216.062 433.959 215.893 433.742 215.775C433.525 215.658 433.262 215.6 432.951 215.6C432.629 215.6 432.362 215.67 432.151 215.811C431.946 215.951 431.785 216.145 431.668 216.391C431.557 216.631 431.478 216.909 431.431 217.226C431.384 217.542 431.36 217.876 431.36 218.228V218.562C431.36 218.913 431.407 219.232 431.501 219.52C431.601 219.807 431.741 220.053 431.923 220.258C432.11 220.457 432.333 220.612 432.591 220.724C432.854 220.835 433.153 220.891 433.487 220.891C433.892 220.891 434.29 220.814 434.683 220.662C435.075 220.51 435.412 220.258 435.693 219.906L437.038 221.506C436.845 221.781 436.569 222.048 436.212 222.306C435.86 222.563 435.438 222.774 434.946 222.938C434.454 223.097 433.903 223.176 433.294 223.176ZM441.626 209.5V223H438.655V209.5H441.626Z" fill="white"/>
<rect x="485" y="196" width="103" height="41" rx="3" fill="#424242"/>
<rect x="485" y="196" width="103" height="41" rx="3" stroke="#424242" stroke-width="4"/>
<path d="M509.72 210.203H512.233L515.09 219.106L517.946 210.203H520.46L516.109 223H514.07L509.72 210.203ZM508.19 210.203H510.792L511.275 220.012V223H508.19V210.203ZM519.388 210.203H521.998V223H518.904V220.012L519.388 210.203ZM526.753 221.884L529.214 213.49H532.396L528.572 224.415C528.49 224.655 528.382 224.913 528.247 225.188C528.112 225.47 527.928 225.736 527.693 225.988C527.459 226.24 527.157 226.445 526.788 226.604C526.425 226.762 525.974 226.841 525.435 226.841C525.147 226.841 524.937 226.826 524.802 226.797C524.673 226.773 524.474 226.729 524.204 226.665V224.547C524.28 224.547 524.345 224.547 524.397 224.547C524.456 224.547 524.521 224.547 524.591 224.547C524.907 224.547 525.159 224.515 525.347 224.45C525.54 224.386 525.687 224.292 525.786 224.169C525.892 224.046 525.974 223.896 526.032 223.721L526.753 221.884ZM526.129 213.49L528.001 220.144L528.326 223.281H526.34L522.956 213.49H526.129ZM539.901 219.599C539.901 219.399 539.872 219.221 539.813 219.062C539.755 218.898 539.646 218.746 539.488 218.605C539.33 218.465 539.102 218.324 538.803 218.184C538.51 218.037 538.123 217.885 537.643 217.727C537.08 217.539 536.538 217.328 536.017 217.094C535.495 216.854 535.029 216.575 534.619 216.259C534.209 215.937 533.884 215.562 533.644 215.134C533.403 214.7 533.283 214.196 533.283 213.622C533.283 213.071 533.406 212.576 533.652 212.137C533.898 211.691 534.241 211.313 534.681 211.003C535.126 210.687 535.647 210.446 536.245 210.282C536.843 210.112 537.496 210.027 538.205 210.027C539.143 210.027 539.969 210.191 540.684 210.52C541.404 210.842 541.967 211.302 542.371 211.899C542.781 212.491 542.986 213.191 542.986 214H539.919C539.919 213.678 539.852 213.394 539.717 213.147C539.588 212.901 539.392 212.708 539.128 212.567C538.864 212.427 538.533 212.356 538.135 212.356C537.748 212.356 537.423 212.415 537.159 212.532C536.896 212.649 536.696 212.808 536.562 213.007C536.427 213.2 536.359 213.414 536.359 213.648C536.359 213.842 536.412 214.018 536.518 214.176C536.629 214.328 536.784 214.472 536.983 214.606C537.188 214.741 537.435 214.87 537.722 214.993C538.015 215.116 538.343 215.236 538.706 215.354C539.386 215.57 539.989 215.813 540.517 216.083C541.05 216.347 541.498 216.648 541.861 216.988C542.23 217.322 542.509 217.703 542.696 218.131C542.89 218.559 542.986 219.042 542.986 219.581C542.986 220.155 542.875 220.665 542.652 221.11C542.43 221.556 542.11 221.934 541.694 222.244C541.278 222.549 540.78 222.78 540.2 222.938C539.62 223.097 538.973 223.176 538.258 223.176C537.602 223.176 536.954 223.094 536.315 222.93C535.683 222.76 535.108 222.502 534.593 222.156C534.077 221.805 533.664 221.356 533.354 220.812C533.049 220.261 532.896 219.607 532.896 218.852H535.99C535.99 219.227 536.04 219.543 536.14 219.801C536.239 220.059 536.386 220.267 536.579 220.425C536.772 220.577 537.01 220.688 537.291 220.759C537.572 220.823 537.895 220.855 538.258 220.855C538.65 220.855 538.967 220.8 539.207 220.688C539.447 220.571 539.623 220.419 539.734 220.231C539.846 220.038 539.901 219.827 539.901 219.599ZM551.714 220.891L555.282 223.721L553.366 225.338L549.859 222.508L551.714 220.891ZM555.432 216.347V216.865C555.432 217.844 555.294 218.723 555.019 219.502C554.749 220.275 554.362 220.938 553.858 221.488C553.36 222.033 552.771 222.452 552.092 222.745C551.412 223.032 550.662 223.176 549.842 223.176C549.016 223.176 548.26 223.032 547.574 222.745C546.895 222.452 546.303 222.033 545.799 221.488C545.301 220.938 544.914 220.275 544.639 219.502C544.369 218.723 544.234 217.844 544.234 216.865V216.347C544.234 215.368 544.369 214.489 544.639 213.71C544.914 212.931 545.298 212.269 545.79 211.724C546.288 211.173 546.877 210.754 547.557 210.467C548.242 210.174 548.998 210.027 549.824 210.027C550.645 210.027 551.395 210.174 552.074 210.467C552.76 210.754 553.352 211.173 553.85 211.724C554.354 212.269 554.743 212.931 555.019 213.71C555.294 214.489 555.432 215.368 555.432 216.347ZM552.294 216.865V216.329C552.294 215.696 552.238 215.14 552.127 214.659C552.021 214.173 551.863 213.766 551.652 213.438C551.441 213.109 551.181 212.863 550.87 212.699C550.565 212.529 550.217 212.444 549.824 212.444C549.414 212.444 549.057 212.529 548.752 212.699C548.447 212.863 548.192 213.109 547.987 213.438C547.782 213.766 547.627 214.173 547.521 214.659C547.422 215.14 547.372 215.696 547.372 216.329V216.865C547.372 217.492 547.422 218.049 547.521 218.535C547.627 219.016 547.782 219.423 547.987 219.757C548.198 220.091 548.456 220.343 548.761 220.513C549.071 220.683 549.432 220.768 549.842 220.768C550.234 220.768 550.583 220.683 550.888 220.513C551.192 220.343 551.447 220.091 551.652 219.757C551.863 219.423 552.021 219.016 552.127 218.535C552.238 218.049 552.294 217.492 552.294 216.865ZM565.46 220.627V223H558.991V220.627H565.46ZM560.09 210.203V223H557.005V210.203H560.09Z" fill="white"/>
<rect x="608" y="196" width="114" height="41" rx="3" fill="#424242"/>
<rect x="608" y="196" width="114" height="41" rx="3" stroke="#424242" stroke-width="4"/>
<path d="M634.062 210.203V223H630.978V210.203H634.062ZM639.037 215.529V217.902H633.184V215.529H639.037ZM639.538 210.203V212.585H633.184V210.203H639.538ZM643.81 213.49V223H640.839V213.49H643.81ZM640.663 211.038C640.663 210.616 640.815 210.271 641.12 210.001C641.425 209.731 641.82 209.597 642.307 209.597C642.793 209.597 643.188 209.731 643.493 210.001C643.798 210.271 643.95 210.616 643.95 211.038C643.95 211.46 643.798 211.806 643.493 212.075C643.188 212.345 642.793 212.479 642.307 212.479C641.82 212.479 641.425 212.345 641.12 212.075C640.815 211.806 640.663 211.46 640.663 211.038ZM648.626 215.846V223H645.664V213.49H648.433L648.626 215.846ZM651.438 213.42L651.386 216.171C651.269 216.159 651.11 216.145 650.911 216.127C650.712 216.109 650.545 216.101 650.41 216.101C650.064 216.101 649.766 216.142 649.514 216.224C649.268 216.3 649.062 216.417 648.898 216.575C648.74 216.728 648.623 216.921 648.547 217.155C648.477 217.39 648.444 217.662 648.45 217.973L647.914 217.621C647.914 216.982 647.976 216.402 648.099 215.881C648.228 215.354 648.409 214.899 648.644 214.519C648.878 214.132 649.162 213.836 649.496 213.631C649.83 213.42 650.205 213.314 650.621 213.314C650.768 213.314 650.911 213.323 651.052 213.341C651.198 213.358 651.327 213.385 651.438 213.42ZM656.888 223.176C656.114 223.176 655.423 223.056 654.813 222.815C654.204 222.569 653.688 222.232 653.267 221.805C652.851 221.377 652.531 220.885 652.309 220.328C652.092 219.771 651.983 219.183 651.983 218.562V218.228C651.983 217.53 652.08 216.886 652.273 216.294C652.467 215.696 652.754 215.175 653.135 214.729C653.516 214.284 653.993 213.938 654.567 213.692C655.142 213.44 655.81 213.314 656.571 213.314C657.245 213.314 657.849 213.423 658.382 213.64C658.915 213.856 659.366 214.167 659.735 214.571C660.11 214.976 660.395 215.465 660.588 216.039C660.787 216.613 660.887 217.258 660.887 217.973V219.177H653.117V217.322H657.995V217.094C658.001 216.777 657.945 216.508 657.828 216.285C657.717 216.062 657.553 215.893 657.336 215.775C657.119 215.658 656.855 215.6 656.545 215.6C656.223 215.6 655.956 215.67 655.745 215.811C655.54 215.951 655.379 216.145 655.262 216.391C655.15 216.631 655.071 216.909 655.024 217.226C654.978 217.542 654.954 217.876 654.954 218.228V218.562C654.954 218.913 655.001 219.232 655.095 219.52C655.194 219.807 655.335 220.053 655.517 220.258C655.704 220.457 655.927 220.612 656.185 220.724C656.448 220.835 656.747 220.891 657.081 220.891C657.485 220.891 657.884 220.814 658.276 220.662C658.669 220.51 659.006 220.258 659.287 219.906L660.632 221.506C660.438 221.781 660.163 222.048 659.806 222.306C659.454 222.563 659.032 222.774 658.54 222.938C658.048 223.097 657.497 223.176 656.888 223.176ZM662.117 209.5H665.079V220.662L664.771 223H662.117V209.5ZM670.915 218.14V218.324C670.915 219.045 670.842 219.701 670.695 220.293C670.549 220.885 670.323 221.397 670.019 221.831C669.714 222.259 669.33 222.59 668.867 222.824C668.404 223.059 667.856 223.176 667.224 223.176C666.649 223.176 666.157 223.053 665.747 222.807C665.337 222.555 664.994 222.209 664.719 221.77C664.443 221.324 664.221 220.812 664.051 220.231C663.881 219.646 663.746 219.019 663.646 218.351V218.131C663.746 217.469 663.881 216.848 664.051 216.268C664.221 215.682 664.443 215.169 664.719 214.729C664.994 214.284 665.334 213.938 665.738 213.692C666.148 213.44 666.638 213.314 667.206 213.314C667.845 213.314 668.396 213.435 668.858 213.675C669.327 213.915 669.714 214.252 670.019 214.686C670.323 215.119 670.549 215.629 670.695 216.215C670.842 216.801 670.915 217.442 670.915 218.14ZM667.953 218.324V218.14C667.953 217.794 667.933 217.469 667.892 217.164C667.851 216.859 667.777 216.59 667.672 216.355C667.566 216.121 667.417 215.937 667.224 215.802C667.03 215.667 666.778 215.6 666.468 215.6C666.151 215.6 665.885 215.652 665.668 215.758C665.457 215.863 665.287 216.016 665.158 216.215C665.035 216.408 664.947 216.648 664.895 216.936C664.842 217.217 664.818 217.536 664.824 217.894V218.588C664.812 219.074 664.856 219.49 664.956 219.836C665.056 220.182 665.229 220.445 665.475 220.627C665.721 220.809 666.058 220.899 666.485 220.899C666.802 220.899 667.057 220.838 667.25 220.715C667.449 220.592 667.599 220.416 667.698 220.188C667.798 219.959 667.865 219.687 667.9 219.37C667.936 219.054 667.953 218.705 667.953 218.324ZM677.173 220.609V216.689C677.173 216.42 677.135 216.188 677.059 215.995C676.982 215.802 676.862 215.652 676.698 215.547C676.534 215.436 676.314 215.38 676.039 215.38C675.816 215.38 675.626 215.418 675.468 215.494C675.31 215.57 675.189 215.685 675.107 215.837C675.025 215.989 674.984 216.183 674.984 216.417H672.022C672.022 215.978 672.119 215.57 672.312 215.195C672.512 214.814 672.793 214.483 673.156 214.202C673.525 213.921 673.965 213.704 674.475 213.552C674.99 213.394 675.564 213.314 676.197 213.314C676.953 213.314 677.627 213.44 678.219 213.692C678.816 213.944 679.288 214.322 679.634 214.826C679.979 215.324 680.152 215.951 680.152 216.707V220.601C680.152 221.222 680.188 221.693 680.258 222.016C680.328 222.332 680.428 222.61 680.557 222.851V223H677.586C677.445 222.707 677.34 222.35 677.27 221.928C677.205 221.5 677.173 221.061 677.173 220.609ZM677.533 217.19L677.551 218.772H676.241C675.966 218.772 675.731 218.811 675.538 218.887C675.351 218.963 675.198 219.068 675.081 219.203C674.97 219.332 674.888 219.479 674.835 219.643C674.788 219.807 674.765 219.979 674.765 220.161C674.765 220.337 674.806 220.495 674.888 220.636C674.976 220.771 675.093 220.876 675.239 220.952C675.386 221.028 675.55 221.066 675.731 221.066C676.06 221.066 676.338 221.005 676.566 220.882C676.801 220.753 676.979 220.598 677.103 220.416C677.226 220.234 677.287 220.064 677.287 219.906L677.938 221.119C677.82 221.354 677.686 221.591 677.533 221.831C677.387 222.071 677.202 222.294 676.979 222.499C676.763 222.698 676.496 222.862 676.18 222.991C675.863 223.114 675.479 223.176 675.028 223.176C674.442 223.176 673.903 223.056 673.411 222.815C672.925 222.575 672.535 222.241 672.242 221.813C671.949 221.38 671.803 220.882 671.803 220.319C671.803 219.827 671.891 219.388 672.066 219.001C672.248 218.614 672.521 218.286 672.884 218.017C673.247 217.747 673.71 217.542 674.272 217.401C674.835 217.261 675.497 217.19 676.259 217.19H677.533ZM686.779 220.328C686.779 220.164 686.724 220.023 686.612 219.906C686.507 219.783 686.319 219.672 686.05 219.572C685.78 219.467 685.402 219.361 684.916 219.256C684.453 219.156 684.017 219.024 683.606 218.86C683.202 218.696 682.848 218.497 682.543 218.263C682.238 218.028 681.998 217.75 681.822 217.428C681.652 217.105 681.567 216.736 681.567 216.32C681.567 215.916 681.652 215.535 681.822 215.178C681.998 214.814 682.253 214.495 682.587 214.22C682.927 213.938 683.34 213.719 683.826 213.561C684.312 213.396 684.866 213.314 685.487 213.314C686.343 213.314 687.081 213.446 687.702 213.71C688.323 213.968 688.801 214.331 689.135 214.8C689.475 215.263 689.645 215.799 689.645 216.408H686.683C686.683 216.168 686.642 215.963 686.56 215.793C686.483 215.623 686.357 215.494 686.182 215.406C686.006 215.312 685.771 215.266 685.479 215.266C685.273 215.266 685.086 215.304 684.916 215.38C684.752 215.456 684.62 215.562 684.521 215.696C684.421 215.831 684.371 215.989 684.371 216.171C684.371 216.3 684.4 216.417 684.459 216.522C684.523 216.622 684.62 216.716 684.749 216.804C684.878 216.886 685.042 216.962 685.241 217.032C685.44 217.097 685.681 217.155 685.962 217.208C686.601 217.325 687.198 217.492 687.755 217.709C688.312 217.926 688.763 218.233 689.108 218.632C689.46 219.03 689.636 219.566 689.636 220.24C689.636 220.662 689.539 221.052 689.346 221.409C689.152 221.761 688.874 222.071 688.511 222.341C688.147 222.604 687.711 222.81 687.201 222.956C686.691 223.103 686.117 223.176 685.479 223.176C684.57 223.176 683.803 223.015 683.176 222.692C682.549 222.364 682.074 221.954 681.752 221.462C681.436 220.964 681.277 220.46 681.277 219.95H684.037C684.049 220.243 684.119 220.483 684.248 220.671C684.383 220.858 684.562 220.996 684.784 221.084C685.007 221.172 685.265 221.216 685.558 221.216C685.827 221.216 686.05 221.178 686.226 221.102C686.407 221.025 686.545 220.923 686.639 220.794C686.732 220.659 686.779 220.504 686.779 220.328ZM695.63 223.176C694.856 223.176 694.165 223.056 693.556 222.815C692.946 222.569 692.431 222.232 692.009 221.805C691.593 221.377 691.273 220.885 691.051 220.328C690.834 219.771 690.726 219.183 690.726 218.562V218.228C690.726 217.53 690.822 216.886 691.016 216.294C691.209 215.696 691.496 215.175 691.877 214.729C692.258 214.284 692.735 213.938 693.31 213.692C693.884 213.44 694.552 213.314 695.313 213.314C695.987 213.314 696.591 213.423 697.124 213.64C697.657 213.856 698.108 214.167 698.478 214.571C698.853 214.976 699.137 215.465 699.33 216.039C699.529 216.613 699.629 217.258 699.629 217.973V219.177H691.859V217.322H696.737V217.094C696.743 216.777 696.688 216.508 696.57 216.285C696.459 216.062 696.295 215.893 696.078 215.775C695.861 215.658 695.598 215.6 695.287 215.6C694.965 215.6 694.698 215.67 694.487 215.811C694.282 215.951 694.121 216.145 694.004 216.391C693.893 216.631 693.813 216.909 693.767 217.226C693.72 217.542 693.696 217.876 693.696 218.228V218.562C693.696 218.913 693.743 219.232 693.837 219.52C693.937 219.807 694.077 220.053 694.259 220.258C694.446 220.457 694.669 220.612 694.927 220.724C695.19 220.835 695.489 220.891 695.823 220.891C696.228 220.891 696.626 220.814 697.019 220.662C697.411 220.51 697.748 220.258 698.029 219.906L699.374 221.506C699.181 221.781 698.905 222.048 698.548 222.306C698.196 222.563 697.774 222.774 697.282 222.938C696.79 223.097 696.239 223.176 695.63 223.176Z" fill="white"/>
<path d="M1066 0H1348C1356.28 0 1363 6.71573 1363 15V282C1363 290.284 1356.28 297 1348 297H1066V0Z" fill="white"/>
<g clip-path="url(#clip0_281_654)">
<path d="M1335.56 153.729C1336.42 153.729 1337.27 153.125 1337.27 152.12V131.406C1337.27 130.602 1336.63 129.797 1335.56 129.797C1334.7 129.797 1333.84 130.401 1333.84 131.406V152.12C1333.84 153.125 1334.7 153.729 1335.56 153.729Z" fill="#326789"/>
<path d="M1335.56 167.203C1336.42 167.203 1337.27 166.599 1337.27 165.594V158.957C1337.27 158.153 1336.63 157.349 1335.56 157.349C1334.7 157.349 1333.84 157.952 1333.84 158.957V165.594C1333.84 166.599 1334.7 167.203 1335.56 167.203Z" fill="#326789"/>
<path d="M1158.24 41.5127C1158.45 41.7138 1158.88 41.9149 1159.31 41.9149C1159.74 41.9149 1160.17 41.7138 1160.38 41.5127C1161.03 40.9094 1161.03 39.9038 1160.38 39.3005L1156.95 36.0829C1156.31 35.4795 1155.24 35.4795 1154.59 36.0829C1153.95 36.6862 1153.95 37.6917 1154.59 38.295L1158.24 41.5127Z" fill="#326789"/>
<path d="M1169.6 52.1714C1169.82 52.3725 1170.25 52.5736 1170.67 52.5736C1171.1 52.5736 1171.53 52.3725 1171.75 52.1714C1172.39 51.568 1172.39 50.5625 1171.75 49.9592L1168.32 46.7415C1167.67 46.1382 1166.6 46.1382 1165.96 46.7415C1165.31 47.3449 1165.31 48.3504 1165.96 48.9537L1169.6 52.1714Z" fill="#326789"/>
<path d="M1155.88 52.5736C1156.31 52.5736 1156.74 52.3725 1156.95 52.1714L1160.38 48.9537C1161.03 48.3504 1161.03 47.3449 1160.38 46.7415C1159.74 46.1382 1158.67 46.1382 1158.02 46.7415L1154.59 49.9592C1153.95 50.5625 1153.95 51.568 1154.59 52.1714C1155.02 52.5736 1155.45 52.5736 1155.88 52.5736Z" fill="#326789"/>
<path d="M1167.24 42.1162C1167.67 42.1162 1168.1 41.9151 1168.32 41.714L1171.75 38.2952C1172.39 37.6919 1172.39 36.6864 1171.75 36.083C1171.1 35.6808 1170.25 35.6808 1169.6 36.2842L1166.17 39.5018C1165.53 40.1051 1165.53 41.1107 1166.17 41.714C1166.39 41.9151 1166.82 42.1162 1167.24 42.1162Z" fill="#326789"/>
<path d="M1254.51 239.399C1253.87 238.796 1252.8 238.796 1252.15 239.399C1251.51 240.003 1251.51 241.008 1252.15 241.611L1254.73 244.025C1254.94 244.226 1255.37 244.427 1255.8 244.427C1256.23 244.427 1256.65 244.226 1256.87 244.025C1257.51 243.421 1257.51 242.416 1256.87 241.813L1254.51 239.399Z" fill="#326789"/>
<path d="M1263.3 247.443C1262.66 246.84 1261.59 246.84 1260.94 247.443C1260.3 248.047 1260.3 249.052 1260.94 249.655L1263.52 252.069C1263.73 252.27 1264.16 252.471 1264.59 252.471C1265.02 252.471 1265.45 252.27 1265.66 252.069C1266.3 251.465 1266.3 250.46 1265.66 249.856L1263.3 247.443Z" fill="#326789"/>
<path d="M1254.94 247.443L1252.37 249.856C1251.72 250.46 1251.72 251.465 1252.37 252.069C1252.58 252.27 1253.01 252.471 1253.44 252.471C1253.87 252.471 1254.3 252.27 1254.51 252.069L1257.08 249.655C1257.73 249.052 1257.73 248.047 1257.08 247.443C1256.65 246.84 1255.58 246.84 1254.94 247.443Z" fill="#326789"/>
<path d="M1263.52 239.399L1260.94 241.813C1260.3 242.416 1260.3 243.421 1260.94 244.025C1261.16 244.226 1261.59 244.427 1262.02 244.427C1262.44 244.427 1262.87 244.226 1263.09 244.025L1265.66 241.611C1266.3 241.008 1266.3 240.003 1265.66 239.399C1265.23 238.796 1264.16 238.796 1263.52 239.399Z" fill="#326789"/>
<path d="M1333.84 200.586C1329.34 200.586 1325.7 204.005 1325.7 208.228C1325.7 212.451 1329.34 215.87 1333.84 215.87C1338.35 215.87 1341.99 212.451 1341.99 208.228C1342.21 204.005 1338.35 200.586 1333.84 200.586ZM1333.84 212.853C1331.06 212.853 1328.91 210.842 1328.91 208.228C1328.91 205.614 1331.06 203.602 1333.84 203.602C1336.63 203.602 1338.78 205.614 1338.78 208.228C1338.78 210.842 1336.63 212.853 1333.84 212.853Z" fill="#326789"/>
<path d="M1147.95 79.7226C1151.81 79.7226 1155.02 76.706 1155.02 73.0861C1155.02 69.4663 1151.81 66.4497 1147.95 66.4497C1144.09 66.4497 1140.87 69.4663 1140.87 73.0861C1140.87 76.9071 1144.09 79.7226 1147.95 79.7226ZM1147.95 69.4663C1150.09 69.4663 1151.81 71.0751 1151.81 73.0861C1151.81 75.0972 1150.09 76.706 1147.95 76.706C1145.8 76.706 1144.09 75.0972 1144.09 73.0861C1144.09 71.0751 1145.8 69.4663 1147.95 69.4663Z" fill="#326789"/>
<path d="M1152.66 252.069H1128.65C1127.79 252.069 1126.93 252.672 1126.93 253.678C1126.93 254.482 1127.58 255.287 1128.65 255.287H1152.66C1153.52 255.287 1154.38 254.683 1154.38 253.678C1154.17 252.672 1153.52 252.069 1152.66 252.069Z" fill="#326789"/>
<path d="M1168.1 252.069H1160.38C1159.53 252.069 1158.67 252.672 1158.67 253.678C1158.67 254.482 1159.31 255.287 1160.38 255.287H1168.1C1168.96 255.287 1169.82 254.683 1169.82 253.678C1169.82 252.672 1169.17 252.069 1168.1 252.069Z" fill="#326789"/>
<path d="M1168.1 244.226H1151.38C1150.52 244.226 1149.66 244.829 1149.66 245.834C1149.66 246.84 1150.31 247.443 1151.38 247.443H1168.1C1168.96 247.443 1169.82 246.84 1169.82 245.834C1169.82 244.829 1169.17 244.226 1168.1 244.226Z" fill="#326789"/>
<path d="M1144.3 247.242C1145.16 247.242 1146.02 246.639 1146.02 245.633C1146.02 244.628 1145.37 244.024 1144.3 244.024H1138.94C1138.08 244.024 1137.23 244.628 1137.23 245.633C1137.23 246.639 1137.87 247.242 1138.94 247.242H1144.3Z" fill="#326789"/>
<path d="M1243.79 261.521H1234.78L1227.49 230.148H1307.69C1314.76 230.148 1320.34 224.718 1320.34 218.283V105.665C1320.34 99.0284 1314.55 93.7997 1307.69 93.7997H1266.52C1264.37 92.392 1262.23 91.1853 1259.66 90.1798C1246.15 84.3478 1239.29 69.265 1236.71 63.0308C1234.78 52.5733 1230.71 42.317 1224.71 32.664C1224.71 32.4629 1224.49 32.2618 1224.49 32.2618C1222.99 29.6475 1221.06 26.832 1219.13 24.2177L1217.2 21.6033C1216.56 20.7989 1215.06 20.7989 1214.63 21.6033L1212.7 24.2177C1210.77 26.832 1208.84 29.6475 1207.13 32.4629C1207.13 32.4629 1207.13 32.4629 1207.13 32.664C1203.48 38.4961 1200.69 44.7303 1198.55 50.9645C1197.05 54.9866 1195.98 59.0087 1195.33 63.0308C1192.97 68.8628 1185.9 83.9456 1172.39 89.9787C1170.03 90.9842 1167.67 92.3919 1165.53 93.5986H1124.36C1117.29 93.5986 1111.71 99.0284 1111.71 105.464V218.082C1111.71 224.718 1117.5 229.947 1124.36 229.947H1204.55L1197.48 261.521H1188.47C1184.18 261.521 1180.75 264.738 1180.75 268.76C1180.75 272.782 1184.18 276 1188.47 276H1243.79C1248.08 276 1251.51 272.782 1251.51 268.76C1251.51 264.738 1248.08 261.521 1243.79 261.521ZM1258.37 92.5931C1260.73 93.5986 1263.09 95.0063 1265.23 96.2129C1278.1 104.659 1281.53 116.726 1282.38 121.15H1237.57V102.246C1237.57 101.039 1237.57 100.034 1237.36 98.8273C1237.36 98.8273 1237.36 98.8273 1237.36 98.6262C1237.14 97.6207 1236.93 96.414 1236.71 95.4085V95.2074C1237.79 89.7776 1238.43 84.1467 1238.43 78.5158C1238.43 76.7058 1238.43 74.6948 1238.22 72.8849C1242.29 80.1246 1248.72 88.3699 1258.37 92.5931ZM1232.21 132.009H1227.28C1225.99 132.009 1225.14 131.004 1225.14 129.797V122.759V102.447C1225.14 100.235 1225.56 97.8218 1226.21 95.6096C1226.21 95.2074 1226.42 94.8052 1226.64 94.6041C1227.49 92.3919 1228.57 90.1798 1230.07 87.9677C1231.78 90.582 1233.07 92.9953 1233.71 95.6096V95.8107C1234.36 98.0229 1234.57 100.034 1234.57 102.447V122.759V129.797C1234.36 131.004 1233.5 132.009 1232.21 132.009ZM1200.05 132.009C1198.76 132.009 1197.91 131.004 1197.91 129.797V122.759V102.447C1197.91 100.235 1198.12 98.0229 1198.76 96.0118C1198.76 95.8107 1198.76 95.8107 1198.98 95.6096C1198.98 95.2074 1199.19 94.8052 1199.41 94.6041C1200.26 92.3919 1201.34 90.1798 1202.84 87.9677C1204.55 90.3809 1205.84 92.9953 1206.48 95.6096C1207.13 97.8218 1207.55 100.235 1207.55 102.447V129.797C1207.55 131.004 1206.48 132.009 1205.41 132.009H1200.05ZM1210.34 99.8328C1210.34 99.6317 1210.34 99.4306 1210.34 99.2295C1210.34 98.4251 1210.13 97.6207 1209.91 96.6151H1222.56C1222.35 97.4196 1222.35 98.224 1222.13 99.0284C1222.13 99.2295 1222.13 99.4306 1222.13 99.6317C1222.13 100.436 1221.92 101.241 1221.92 102.246V121.15H1210.34V102.246C1210.34 101.442 1210.34 100.637 1210.34 99.8328ZM1210.34 129.797V124.367H1221.71V129.797C1221.71 132.211 1223.21 134.02 1225.56 134.825C1225.35 138.445 1224.06 149.304 1216.13 156.946C1207.98 149.304 1206.91 138.244 1206.7 134.825C1208.84 134.02 1210.34 132.211 1210.34 129.797ZM1215.49 25.6254L1216.13 24.821L1216.77 25.6254C1218.27 27.6364 1219.35 29.4464 1220.63 31.4574H1211.63C1212.91 29.2453 1214.2 27.4353 1215.49 25.6254ZM1201.76 51.5678C1203.69 45.7358 1206.48 39.9038 1209.91 34.474H1222.56C1228.14 43.9259 1232 53.5789 1233.93 63.6341C1234.78 68.4606 1235.43 73.6893 1235.43 78.7169C1235.43 82.3367 1235.21 85.9566 1234.57 89.5765C1233.71 88.1688 1232.85 86.5599 1231.78 85.1522L1231.14 84.3478C1230.93 83.9456 1230.28 83.7445 1229.85 83.7445C1229.42 83.7445 1228.78 83.9456 1228.57 84.3478L1227.92 85.1522C1225.99 87.7666 1224.49 90.582 1223.42 93.5986V93.7997H1209.05C1207.98 90.7831 1206.48 87.9677 1204.55 85.1522L1203.91 84.3478C1203.69 83.9456 1203.05 83.7445 1202.62 83.7445C1202.19 83.7445 1201.55 83.9456 1201.34 84.3478L1200.69 85.1522C1199.62 86.5599 1198.76 88.1688 1197.91 89.5765C1197.48 85.9566 1197.05 82.3367 1197.05 78.7169C1197.05 69.4661 1198.55 60.4164 1201.76 51.5678ZM1173.89 92.5931C1183.54 88.3699 1189.97 79.9235 1194.05 72.8849C1193.83 74.6948 1193.83 76.7058 1193.83 78.5158C1193.83 84.1467 1194.47 89.7776 1195.55 95.2074C1194.9 97.4196 1194.69 99.8328 1194.69 102.246V121.15H1149.88C1150.73 116.726 1154.17 104.659 1167.03 96.2129C1169.17 95.0063 1171.32 93.7997 1173.89 92.5931ZM1124.36 96.6151H1161.46C1161.03 97.0173 1160.6 97.2184 1160.38 97.6207C1159.95 97.8218 1159.74 98.224 1159.31 98.4251C1158.88 98.8273 1158.24 99.4306 1157.81 99.8328C1157.6 100.034 1157.38 100.436 1156.95 100.637C1156.31 101.241 1155.88 101.844 1155.45 102.447C1155.24 102.648 1155.24 102.648 1155.02 102.849C1154.38 103.654 1153.74 104.458 1153.31 105.062C1153.09 105.263 1153.09 105.464 1152.88 105.665C1152.45 106.268 1152.24 106.67 1151.81 107.274C1151.59 107.475 1151.38 107.877 1151.38 108.078C1151.16 108.48 1150.95 109.084 1150.52 109.486C1150.31 109.888 1150.31 110.089 1150.09 110.29C1149.88 110.692 1149.66 111.095 1149.45 111.497C1149.23 111.698 1149.23 112.1 1149.02 112.301C1148.8 112.703 1148.59 113.106 1148.59 113.508C1148.38 113.709 1148.38 114.111 1148.38 114.312C1148.16 114.715 1148.16 115.117 1147.95 115.318C1147.95 115.519 1147.73 115.921 1147.73 116.122C1147.73 116.524 1147.52 116.726 1147.52 117.128C1147.52 117.329 1147.3 117.53 1147.3 117.731C1147.3 117.932 1147.09 118.334 1147.09 118.535C1147.09 118.737 1147.09 118.938 1146.88 119.139C1146.88 119.34 1146.66 119.742 1146.66 119.943C1146.66 120.144 1146.66 120.345 1146.66 120.345C1146.66 120.547 1146.66 120.748 1146.66 120.949V121.15C1146.66 121.351 1146.66 121.552 1146.66 121.552V121.753C1146.66 121.954 1146.66 121.954 1146.66 121.954C1146.66 122.356 1146.88 122.759 1147.09 123.161C1147.3 123.563 1147.73 123.563 1148.38 123.563H1194.9V128.993C1194.9 131.205 1196.4 133.216 1198.55 133.819C1196.62 142.467 1191.69 149.506 1188.04 153.326C1187.61 151.315 1186.54 149.506 1184.83 148.299C1183.11 147.092 1180.97 146.69 1178.82 147.092H1178.61C1177.97 142.266 1173.68 138.646 1168.53 138.646C1167.67 138.646 1166.82 138.847 1165.96 139.048C1165.74 136.635 1164.24 134.222 1161.88 133.216C1160.17 132.613 1158.45 132.613 1156.74 133.216C1155.88 133.618 1155.24 134.021 1154.59 134.624C1153.52 133.015 1151.81 132.009 1149.88 131.607C1147.95 131.205 1145.8 131.607 1144.09 132.613C1142.16 133.819 1141.09 135.428 1140.66 137.64C1140.44 138.445 1141.09 139.249 1141.94 139.45C1142.8 139.651 1143.66 139.048 1143.87 138.244C1144.09 137.037 1144.95 135.83 1146.02 135.227C1147.09 134.624 1148.16 134.423 1149.45 134.624C1152.02 135.227 1153.74 137.64 1153.09 140.255C1152.88 141.059 1153.52 141.864 1154.38 142.065H1154.59C1155.45 142.065 1156.09 141.662 1156.09 140.858C1156.31 140.054 1156.31 139.048 1156.09 138.244C1156.52 137.238 1157.17 136.635 1158.02 136.233C1158.88 135.83 1159.74 135.83 1160.6 136.233C1162.53 137.037 1163.38 139.048 1162.53 140.858C1161.67 141.461 1160.81 142.266 1160.17 143.07C1159.74 143.673 1159.95 144.679 1160.6 145.081C1161.24 145.483 1162.31 145.282 1162.74 144.679C1164.03 142.869 1166.17 141.864 1168.32 141.864C1172.18 141.864 1175.18 144.88 1175.18 148.701C1174.53 149.304 1173.89 149.908 1173.25 150.511C1172.82 151.114 1173.03 152.12 1173.68 152.522C1174.32 152.924 1175.39 152.723 1175.82 152.12C1176.46 151.114 1177.54 150.31 1178.82 150.109C1180.11 149.908 1181.18 150.109 1182.25 150.913C1184.4 152.321 1185.04 155.338 1183.54 157.55C1183.11 158.153 1183.33 158.957 1183.75 159.561C1183.97 159.762 1184.4 159.963 1184.83 159.963C1185.26 159.963 1185.68 159.762 1185.9 159.561C1186.33 159.159 1198.12 149.103 1201.12 134.423H1203.05C1203.27 138.646 1204.77 151.114 1214.63 159.561C1214.84 159.762 1215.27 159.963 1215.7 159.963C1216.13 159.963 1216.56 159.762 1216.77 159.561C1226.64 151.114 1228.14 138.646 1228.35 134.423H1230.5C1233.5 149.304 1245.29 159.159 1245.72 159.561C1245.93 159.762 1246.36 159.963 1246.79 159.963C1247.22 159.963 1247.65 159.762 1247.86 159.561C1248.51 159.159 1248.51 158.153 1248.08 157.55C1246.58 155.338 1247.22 152.522 1249.36 150.913C1250.44 150.31 1251.51 149.908 1252.8 150.109C1254.08 150.31 1255.15 151.114 1255.8 152.12C1256.23 152.723 1257.3 152.924 1257.94 152.522C1258.58 152.12 1258.8 151.114 1258.37 150.511C1257.94 149.707 1257.3 149.103 1256.44 148.701C1256.44 144.88 1259.66 141.864 1263.3 141.864C1265.45 141.864 1267.59 142.869 1268.88 144.679C1269.31 145.282 1270.38 145.483 1271.02 145.081C1271.66 144.679 1271.88 143.673 1271.45 143.07C1270.81 142.266 1269.95 141.461 1269.09 140.858C1268.23 139.048 1269.31 136.836 1271.02 136.233C1271.88 135.83 1272.74 135.83 1273.59 136.233C1274.45 136.635 1275.31 137.238 1275.52 138.244C1275.31 139.048 1275.31 140.054 1275.52 140.858C1275.74 141.662 1276.38 142.065 1277.02 142.065H1277.24C1278.1 141.864 1278.74 141.059 1278.53 140.255C1278.1 137.64 1279.6 135.227 1282.17 134.624C1283.24 134.423 1284.53 134.624 1285.6 135.227C1286.67 135.83 1287.53 137.037 1287.74 138.244C1287.96 139.048 1288.82 139.651 1289.67 139.45C1290.53 139.249 1291.18 138.445 1290.96 137.64C1290.53 135.629 1289.25 133.819 1287.53 132.613C1285.82 131.607 1283.67 131.205 1281.74 131.607C1279.81 132.009 1278.1 133.216 1277.02 134.624C1276.38 134.021 1275.74 133.618 1274.88 133.216C1273.16 132.613 1271.45 132.613 1269.73 133.216C1267.16 134.222 1265.66 136.635 1265.66 139.048C1264.8 138.847 1263.94 138.646 1263.09 138.646C1257.94 138.646 1253.65 142.467 1253.01 147.092H1252.8C1250.65 146.69 1248.72 147.092 1246.79 148.299C1246.15 150.511 1245.08 152.321 1244.65 154.332C1241 150.31 1235.86 143.271 1234.14 134.825C1236.07 134.02 1237.57 132.211 1237.57 129.998V124.569H1284.1C1284.53 124.569 1284.96 124.368 1285.39 124.166C1285.6 123.764 1285.82 123.362 1285.82 122.96V122.759C1285.82 122.759 1285.82 122.759 1285.82 122.558C1285.82 122.356 1285.82 122.356 1285.82 122.155C1285.82 122.155 1285.82 121.954 1285.82 121.753C1285.82 121.552 1285.82 121.351 1285.82 121.15C1285.82 120.949 1285.82 120.748 1285.82 120.748C1285.82 120.547 1285.82 120.345 1285.6 119.943C1285.6 119.742 1285.6 119.541 1285.39 119.34C1285.39 119.139 1285.17 118.737 1285.17 118.535C1285.17 118.334 1284.96 118.133 1284.96 117.731C1284.96 117.53 1284.74 117.128 1284.74 116.726C1284.74 116.524 1284.53 116.122 1284.53 115.921C1284.31 115.519 1284.31 115.318 1284.1 114.916C1283.89 114.715 1283.89 114.312 1283.67 114.111C1283.46 113.709 1283.46 113.508 1283.24 113.106C1283.03 112.703 1283.03 112.502 1282.81 112.1C1282.6 111.698 1282.38 111.296 1282.17 110.894C1281.96 110.491 1281.74 110.29 1281.74 109.888C1281.53 109.486 1281.31 109.084 1281.1 108.681C1280.88 108.279 1280.67 108.078 1280.45 107.676C1280.24 107.274 1279.81 106.871 1279.6 106.268C1279.38 105.866 1279.17 105.665 1278.95 105.263C1278.53 104.458 1277.88 103.855 1277.24 103.05C1277.02 102.849 1276.81 102.648 1276.6 102.246C1276.17 101.643 1275.74 101.241 1275.31 100.637C1275.09 100.235 1274.67 100.034 1274.45 99.6317C1274.02 99.2295 1273.59 98.8273 1273.16 98.224C1272.74 97.8218 1272.52 97.6207 1272.09 97.2184C1271.66 96.8162 1271.45 96.6151 1271.02 96.2129H1308.11C1313.26 96.2129 1317.55 100.235 1317.55 105.062V202.798H1114.93V105.665C1114.93 100.637 1119.22 96.6151 1124.36 96.6151ZM1114.93 218.082V206.418H1317.33V218.082C1317.33 222.909 1313.05 226.931 1307.9 226.931H1124.36C1119.22 227.132 1114.93 223.11 1114.93 218.082ZM1207.98 230.148H1224.28L1231.57 261.521H1200.69L1207.98 230.148ZM1243.79 272.983H1188.47C1185.9 272.983 1183.97 271.174 1183.97 268.76C1183.97 266.347 1185.9 264.537 1188.47 264.537H1198.76H1233.5H1243.79C1246.36 264.537 1248.29 266.347 1248.29 268.76C1248.29 271.174 1246.36 272.983 1243.79 272.983Z" fill="#326789"/>
<path d="M1235.86 212.451H1196.4C1193.83 212.451 1191.69 214.462 1191.69 216.875C1191.69 219.289 1193.83 221.3 1196.4 221.3H1235.86C1238.43 221.3 1240.57 219.289 1240.57 216.875C1240.57 214.261 1238.43 212.451 1235.86 212.451ZM1235.86 218.283H1196.4C1195.55 218.283 1194.9 217.68 1194.9 216.875C1194.9 216.071 1195.55 215.468 1196.4 215.468H1235.86C1236.71 215.468 1237.36 216.071 1237.36 216.875C1237.36 217.68 1236.71 218.283 1235.86 218.283Z" fill="#326789"/>
<path d="M1272.31 112.301C1272.52 112.704 1273.16 113.106 1273.59 113.106C1273.81 113.106 1274.24 113.106 1274.45 112.905C1275.31 112.502 1275.52 111.497 1274.88 110.894C1273.38 108.48 1271.45 106.268 1269.31 104.257C1268.66 103.654 1267.59 103.654 1266.95 104.257C1266.3 104.86 1266.3 105.866 1266.95 106.469C1269.09 107.877 1270.81 110.089 1272.31 112.301Z" fill="#326789"/>
<path d="M1252.8 96.8163C1253.22 97.0174 1253.65 97.2185 1254.08 97.4196C1256.65 98.6262 1259.23 100.034 1261.59 101.442C1261.8 101.643 1262.23 101.643 1262.44 101.643C1262.87 101.643 1263.52 101.442 1263.73 101.039C1264.16 100.436 1264.16 99.4307 1263.3 98.8273C1260.94 97.2185 1258.16 95.6097 1255.37 94.403C1254.94 94.2019 1254.51 94.0008 1254.08 93.7997C1253.22 93.3975 1252.37 93.5986 1251.94 94.403C1251.72 95.4086 1252.15 96.4141 1252.8 96.8163Z" fill="#326789"/>
<path d="M1246.15 92.3918C1246.36 92.5929 1246.79 92.794 1247.22 92.794C1247.65 92.794 1248.08 92.5929 1248.51 92.1907C1249.15 91.5874 1248.94 90.5818 1248.29 89.9785C1246.36 88.3697 1244.43 86.5598 1242.5 84.3476C1241.86 83.7443 1241 83.5432 1240.15 84.1465C1239.5 84.7498 1239.29 85.5542 1239.93 86.3587C1242.07 88.7719 1244 90.7829 1246.15 92.3918Z" fill="#326789"/>
<path d="M1185.47 92.794C1185.9 92.794 1186.11 92.5929 1186.54 92.3918C1188.69 90.5818 1190.83 88.5708 1192.76 86.3587C1193.4 85.7553 1193.19 84.7498 1192.55 84.1465C1191.9 83.5432 1190.83 83.7443 1190.19 84.3476C1188.47 86.5598 1186.54 88.3697 1184.4 89.9785C1183.75 90.5818 1183.54 91.3862 1184.18 92.1907C1184.61 92.5929 1185.04 92.794 1185.47 92.794Z" fill="#326789"/>
<path d="M1170.25 101.844C1170.68 101.844 1170.89 101.844 1171.1 101.643C1173.46 100.034 1175.82 98.6259 1178.61 97.6204C1179.04 97.4193 1179.47 97.2182 1179.89 97.0171C1180.75 96.6149 1180.97 95.6094 1180.54 95.0061C1180.11 94.2017 1179.04 94.0006 1178.39 94.4028C1177.97 94.6039 1177.54 94.805 1177.11 95.0061C1174.32 96.2127 1171.53 97.8215 1169.17 99.4304C1168.53 99.8326 1168.32 100.838 1168.75 101.643C1169.17 101.643 1169.6 101.844 1170.25 101.844Z" fill="#326789"/>
<path d="M1163.17 104.056C1161.03 106.067 1159.31 108.279 1157.6 110.693C1157.17 111.497 1157.38 112.301 1158.02 112.704C1158.24 112.905 1158.67 112.905 1158.88 112.905C1159.31 112.905 1159.95 112.704 1160.17 112.1C1161.67 109.888 1163.38 107.877 1165.31 106.067C1165.96 105.464 1165.96 104.458 1165.31 103.855C1164.89 103.453 1163.81 103.453 1163.17 104.056Z" fill="#326789"/>
<path d="M1228.14 73.0858C1228.14 73.8902 1228.78 74.6946 1229.64 74.6946C1230.5 74.6946 1231.35 74.0913 1231.35 73.2869C1231.35 60.014 1223.85 44.3279 1223.64 43.7246C1223.21 42.9202 1222.35 42.7191 1221.49 42.9202C1220.63 43.3224 1220.42 44.1268 1220.63 44.9312C1220.85 44.9312 1228.14 60.4162 1228.14 73.0858Z" fill="#326789"/>
<path d="M1203.05 74.6949C1203.91 74.6949 1204.77 74.0916 1204.77 73.086C1204.77 60.4165 1212.06 44.9315 1212.27 44.7304C1212.7 43.9259 1212.27 43.1215 1211.41 42.7193C1210.56 42.3171 1209.7 42.7193 1209.27 43.5237C1209.05 44.127 1201.34 59.8132 1201.55 73.086C1201.34 73.8904 1202.19 74.6949 1203.05 74.6949Z" fill="#326789"/>
<path d="M1275.74 152.723C1275.95 152.723 1276.17 152.924 1276.38 152.924C1277.02 152.924 1277.67 152.522 1277.88 152.12C1277.88 151.919 1280.24 147.294 1287.1 149.103C1287.96 149.305 1288.82 148.902 1289.03 148.098C1289.25 147.294 1288.82 146.489 1287.96 146.288C1280.45 144.277 1276.17 148.5 1274.88 151.115C1274.45 151.517 1274.88 152.321 1275.74 152.723Z" fill="#326789"/>
<path d="M1257.73 160.768C1258.16 160.768 1258.8 160.566 1259.01 160.164C1259.01 160.164 1260.3 158.555 1261.8 158.354C1262.66 158.354 1263.52 158.555 1264.16 159.159C1264.8 159.762 1265.87 159.561 1266.52 158.958C1267.16 158.354 1266.95 157.349 1266.3 156.745C1264.37 155.137 1262.66 154.936 1261.37 155.137C1258.37 155.539 1256.44 157.751 1256.23 158.153C1255.8 158.756 1255.8 159.762 1256.65 160.365C1256.87 160.768 1257.3 160.768 1257.73 160.768Z" fill="#326789"/>
<path d="M1272.31 161.773C1272.52 161.974 1272.95 161.974 1273.16 161.974C1273.81 161.974 1274.24 161.773 1274.45 161.169C1274.45 160.968 1276.38 158.153 1279.38 158.555C1280.24 158.555 1281.1 157.952 1281.1 157.147C1281.1 156.343 1280.45 155.539 1279.6 155.539C1274.45 155.136 1271.66 159.561 1271.66 159.762C1271.23 160.365 1271.66 161.371 1272.31 161.773Z" fill="#326789"/>
<path d="M1145.16 148.902C1151.81 147.293 1154.17 151.517 1154.38 151.919C1154.59 152.522 1155.24 152.723 1155.88 152.723C1156.09 152.723 1156.31 152.723 1156.52 152.522C1157.38 152.12 1157.6 151.316 1157.38 150.511C1156.09 148.098 1151.81 143.875 1144.3 145.685C1143.44 145.886 1143.02 146.69 1143.23 147.495C1143.44 148.701 1144.3 149.103 1145.16 148.902Z" fill="#326789"/>
<path d="M1168.1 159.359C1168.96 158.756 1169.82 158.354 1170.46 158.555C1171.75 158.756 1173.03 159.762 1173.46 160.365C1173.68 160.767 1174.32 160.968 1174.75 160.968C1175.18 160.968 1175.39 160.968 1175.61 160.767C1176.25 160.365 1176.46 159.359 1176.04 158.555C1175.82 158.354 1173.89 155.941 1170.89 155.538C1169.6 155.337 1167.89 155.538 1165.96 157.147C1165.31 157.751 1165.1 158.555 1165.74 159.359C1166.39 159.762 1167.24 159.963 1168.1 159.359Z" fill="#326789"/>
<path d="M1150.95 157.147C1150.95 157.952 1151.81 158.555 1152.66 158.555C1155.67 158.354 1157.6 161.169 1157.6 161.169C1157.81 161.572 1158.45 161.974 1158.88 161.974C1159.1 161.974 1159.53 161.974 1159.74 161.773C1160.6 161.371 1160.81 160.365 1160.38 159.762C1160.17 159.561 1157.38 155.136 1152.45 155.539C1151.59 155.74 1150.95 156.343 1150.95 157.147Z" fill="#326789"/>
</g>
<defs>
<clipPath id="clip0_281_654">
<rect width="255" height="255" fill="white" transform="translate(1087 21)"/>
</clipPath>
</defs>
</svg>
