<svg width="1363" height="163" viewBox="0 0 1363 163" fill="none" xmlns="http://www.w3.org/2000/svg">
<path d="M0 15C0 6.71573 6.71573 0 15 0H37V163H15C6.71573 163 0 156.284 0 148V15Z" fill="#424242"/>
<rect width="1097" height="163" transform="translate(37)" fill="#F0F0F0"/>
<path d="M101.906 53.9219L94.3945 51.2383V48.0859L104.602 52.375V54.6367L101.906 53.9219ZM94.3945 56.1719L101.918 53.4297L104.602 52.7852V55.0352L94.3945 59.3242V56.1719ZM123.867 58.2578V61H115.277V58.2578H123.867ZM116.414 43.9375V61H112.898V43.9375H116.414ZM132.516 58.1406V52.4922C132.516 52.0859 132.449 51.7383 132.316 51.4492C132.184 51.1523 131.977 50.9219 131.695 50.7578C131.422 50.5938 131.066 50.5117 130.629 50.5117C130.254 50.5117 129.93 50.5781 129.656 50.7109C129.383 50.8359 129.172 51.0195 129.023 51.2617C128.875 51.4961 128.801 51.7734 128.801 52.0938H125.426C125.426 51.5547 125.551 51.043 125.801 50.5586C126.051 50.0742 126.414 49.6484 126.891 49.2812C127.367 48.9062 127.934 48.6133 128.59 48.4023C129.254 48.1914 129.996 48.0859 130.816 48.0859C131.801 48.0859 132.676 48.25 133.441 48.5781C134.207 48.9062 134.809 49.3984 135.246 50.0547C135.691 50.7109 135.914 51.5312 135.914 52.5156V57.9414C135.914 58.6367 135.957 59.207 136.043 59.6523C136.129 60.0898 136.254 60.4727 136.418 60.8008V61H133.008C132.844 60.6562 132.719 60.2266 132.633 59.7109C132.555 59.1875 132.516 58.6641 132.516 58.1406ZM132.961 53.2773L132.984 55.1875H131.098C130.652 55.1875 130.266 55.2383 129.938 55.3398C129.609 55.4414 129.34 55.5859 129.129 55.7734C128.918 55.9531 128.762 56.1641 128.66 56.4062C128.566 56.6484 128.52 56.9141 128.52 57.2031C128.52 57.4922 128.586 57.7539 128.719 57.9883C128.852 58.2148 129.043 58.3945 129.293 58.5273C129.543 58.6523 129.836 58.7148 130.172 58.7148C130.68 58.7148 131.121 58.6133 131.496 58.4102C131.871 58.207 132.16 57.957 132.363 57.6602C132.574 57.3633 132.684 57.082 132.691 56.8164L133.582 58.2461C133.457 58.5664 133.285 58.8984 133.066 59.2422C132.855 59.5859 132.586 59.9102 132.258 60.2148C131.93 60.5117 131.535 60.7578 131.074 60.9531C130.613 61.1406 130.066 61.2344 129.434 61.2344C128.629 61.2344 127.898 61.0742 127.242 60.7539C126.594 60.4258 126.078 59.9766 125.695 59.4062C125.32 58.8281 125.133 58.1719 125.133 57.4375C125.133 56.7734 125.258 56.1836 125.508 55.668C125.758 55.1523 126.125 54.7188 126.609 54.3672C127.102 54.0078 127.715 53.7383 128.449 53.5586C129.184 53.3711 130.035 53.2773 131.004 53.2773H132.961ZM146.016 57.9648V48.3203H149.391V61H146.215L146.016 57.9648ZM146.391 55.3633L147.387 55.3398C147.387 56.1836 147.289 56.9688 147.094 57.6953C146.898 58.4141 146.605 59.0391 146.215 59.5703C145.824 60.0938 145.332 60.5039 144.738 60.8008C144.145 61.0898 143.445 61.2344 142.641 61.2344C142.023 61.2344 141.453 61.1484 140.93 60.9766C140.414 60.7969 139.969 60.5195 139.594 60.1445C139.227 59.7617 138.938 59.2734 138.727 58.6797C138.523 58.0781 138.422 57.3555 138.422 56.5117V48.3203H141.797V56.5352C141.797 56.9102 141.84 57.2266 141.926 57.4844C142.02 57.7422 142.148 57.9531 142.312 58.1172C142.477 58.2812 142.668 58.3984 142.887 58.4688C143.113 58.5391 143.363 58.5742 143.637 58.5742C144.332 58.5742 144.879 58.4336 145.277 58.1523C145.684 57.8711 145.969 57.4883 146.133 57.0039C146.305 56.5117 146.391 55.9648 146.391 55.3633ZM155.273 51.0273V61H151.898V48.3203H155.062L155.273 51.0273ZM154.781 54.2148H153.867C153.867 53.2773 153.988 52.4336 154.23 51.6836C154.473 50.9258 154.812 50.2812 155.25 49.75C155.688 49.2109 156.207 48.8008 156.809 48.5195C157.418 48.2305 158.098 48.0859 158.848 48.0859C159.441 48.0859 159.984 48.1719 160.477 48.3438C160.969 48.5156 161.391 48.7891 161.742 49.1641C162.102 49.5391 162.375 50.0352 162.562 50.6523C162.758 51.2695 162.855 52.0234 162.855 52.9141V61H159.457V52.9023C159.457 52.3398 159.379 51.9023 159.223 51.5898C159.066 51.2773 158.836 51.0586 158.531 50.9336C158.234 50.8008 157.867 50.7344 157.43 50.7344C156.977 50.7344 156.582 50.8242 156.246 51.0039C155.918 51.1836 155.645 51.4336 155.426 51.7539C155.215 52.0664 155.055 52.4336 154.945 52.8555C154.836 53.2773 154.781 53.7305 154.781 54.2148ZM170.66 58.5977C171.074 58.5977 171.441 58.5195 171.762 58.3633C172.082 58.1992 172.332 57.9727 172.512 57.6836C172.699 57.3867 172.797 57.0391 172.805 56.6406H175.98C175.973 57.5312 175.734 58.3242 175.266 59.0195C174.797 59.707 174.168 60.25 173.379 60.6484C172.59 61.0391 171.707 61.2344 170.73 61.2344C169.746 61.2344 168.887 61.0703 168.152 60.7422C167.426 60.4141 166.82 59.9609 166.336 59.3828C165.852 58.7969 165.488 58.1172 165.246 57.3438C165.004 56.5625 164.883 55.7266 164.883 54.8359V54.4961C164.883 53.5977 165.004 52.7617 165.246 51.9883C165.488 51.207 165.852 50.5273 166.336 49.9492C166.82 49.3633 167.426 48.9062 168.152 48.5781C168.879 48.25 169.73 48.0859 170.707 48.0859C171.746 48.0859 172.656 48.2852 173.438 48.6836C174.227 49.082 174.844 49.6523 175.289 50.3945C175.742 51.1289 175.973 52 175.98 53.0078H172.805C172.797 52.5859 172.707 52.2031 172.535 51.8594C172.371 51.5156 172.129 51.2422 171.809 51.0391C171.496 50.8281 171.109 50.7227 170.648 50.7227C170.156 50.7227 169.754 50.8281 169.441 51.0391C169.129 51.2422 168.887 51.5234 168.715 51.8828C168.543 52.2344 168.422 52.6367 168.352 53.0898C168.289 53.5352 168.258 54.0039 168.258 54.4961V54.8359C168.258 55.3281 168.289 55.8008 168.352 56.2539C168.414 56.707 168.531 57.1094 168.703 57.4609C168.883 57.8125 169.129 58.0898 169.441 58.293C169.754 58.4961 170.16 58.5977 170.66 58.5977ZM181.23 43V61H177.855V43H181.23ZM180.75 54.2148H179.824C179.832 53.332 179.949 52.5195 180.176 51.7773C180.402 51.0273 180.727 50.3789 181.148 49.832C181.57 49.2773 182.074 48.8477 182.66 48.543C183.254 48.2383 183.91 48.0859 184.629 48.0859C185.254 48.0859 185.82 48.1758 186.328 48.3555C186.844 48.5273 187.285 48.8086 187.652 49.1992C188.027 49.582 188.316 50.0859 188.52 50.7109C188.723 51.3359 188.824 52.0938 188.824 52.9844V61H185.426V52.9609C185.426 52.3984 185.344 51.957 185.18 51.6367C185.023 51.3086 184.793 51.0781 184.488 50.9453C184.191 50.8047 183.824 50.7344 183.387 50.7344C182.902 50.7344 182.488 50.8242 182.145 51.0039C181.809 51.1836 181.539 51.4336 181.336 51.7539C181.133 52.0664 180.984 52.4336 180.891 52.8555C180.797 53.2773 180.75 53.7305 180.75 54.2148ZM202.98 50.8867V53.6289H194.074V50.8867H202.98ZM195.117 43.9375V61H191.602V43.9375H195.117ZM205.488 43.9375V61H201.984V43.9375H205.488ZM215.836 57.9648V48.3203H219.211V61H216.035L215.836 57.9648ZM216.211 55.3633L217.207 55.3398C217.207 56.1836 217.109 56.9688 216.914 57.6953C216.719 58.4141 216.426 59.0391 216.035 59.5703C215.645 60.0938 215.152 60.5039 214.559 60.8008C213.965 61.0898 213.266 61.2344 212.461 61.2344C211.844 61.2344 211.273 61.1484 210.75 60.9766C210.234 60.7969 209.789 60.5195 209.414 60.1445C209.047 59.7617 208.758 59.2734 208.547 58.6797C208.344 58.0781 208.242 57.3555 208.242 56.5117V48.3203H211.617V56.5352C211.617 56.9102 211.66 57.2266 211.746 57.4844C211.84 57.7422 211.969 57.9531 212.133 58.1172C212.297 58.2812 212.488 58.3984 212.707 58.4688C212.934 58.5391 213.184 58.5742 213.457 58.5742C214.152 58.5742 214.699 58.4336 215.098 58.1523C215.504 57.8711 215.789 57.4883 215.953 57.0039C216.125 56.5117 216.211 55.9648 216.211 55.3633ZM221.789 43H225.164V58.0938L224.824 61H221.789V43ZM233.191 54.5312V54.7773C233.191 55.7227 233.09 56.5898 232.887 57.3789C232.691 58.168 232.387 58.8516 231.973 59.4297C231.559 60 231.043 60.4453 230.426 60.7656C229.816 61.0781 229.098 61.2344 228.27 61.2344C227.496 61.2344 226.824 61.0781 226.254 60.7656C225.691 60.4531 225.219 60.0117 224.836 59.4414C224.453 58.8711 224.145 58.2031 223.91 57.4375C223.676 56.6719 223.5 55.8359 223.383 54.9297V54.3906C223.5 53.4844 223.676 52.6484 223.91 51.8828C224.145 51.1172 224.453 50.4492 224.836 49.8789C225.219 49.3086 225.691 48.8672 226.254 48.5547C226.816 48.2422 227.48 48.0859 228.246 48.0859C229.082 48.0859 229.809 48.2461 230.426 48.5664C231.051 48.8789 231.566 49.3242 231.973 49.9023C232.387 50.4727 232.691 51.1523 232.887 51.9414C233.09 52.7227 233.191 53.5859 233.191 54.5312ZM229.816 54.7773V54.5312C229.816 54.0156 229.777 53.5312 229.699 53.0781C229.629 52.6172 229.504 52.2148 229.324 51.8711C229.145 51.5195 228.898 51.2422 228.586 51.0391C228.281 50.8359 227.887 50.7344 227.402 50.7344C226.941 50.7344 226.551 50.8125 226.23 50.9688C225.91 51.125 225.645 51.3438 225.434 51.625C225.23 51.9062 225.078 52.2422 224.977 52.6328C224.875 53.0156 224.812 53.4375 224.789 53.8984V55.4336C224.812 56.0508 224.914 56.5977 225.094 57.0742C225.281 57.543 225.562 57.9141 225.938 58.1875C226.32 58.4531 226.816 58.5859 227.426 58.5859C227.902 58.5859 228.297 58.4922 228.609 58.3047C228.922 58.1172 229.164 57.8516 229.336 57.5078C229.516 57.1641 229.641 56.7617 229.711 56.3008C229.781 55.832 229.816 55.3242 229.816 54.7773Z" fill="#888888"/>
<path d="M114.117 84.875H122.344V107.164C122.344 109.82 121.789 112.07 120.68 113.914C119.57 115.742 118.016 117.125 116.016 118.062C114.016 119 111.664 119.469 108.961 119.469C106.289 119.469 103.938 119 101.906 118.062C99.8906 117.125 98.3125 115.742 97.1719 113.914C96.0469 112.07 95.4844 109.82 95.4844 107.164V84.875H103.734V107.164C103.734 108.57 103.938 109.719 104.344 110.609C104.75 111.484 105.344 112.125 106.125 112.531C106.906 112.938 107.852 113.141 108.961 113.141C110.086 113.141 111.031 112.938 111.797 112.531C112.562 112.125 113.141 111.484 113.531 110.609C113.922 109.719 114.117 108.57 114.117 107.164V84.875ZM136.266 84.875V119H128.062V84.875H136.266ZM172.523 84.875H180.75V107.164C180.75 109.82 180.195 112.07 179.086 113.914C177.977 115.742 176.422 117.125 174.422 118.062C172.422 119 170.07 119.469 167.367 119.469C164.695 119.469 162.344 119 160.312 118.062C158.297 117.125 156.719 115.742 155.578 113.914C154.453 112.07 153.891 109.82 153.891 107.164V84.875H162.141V107.164C162.141 108.57 162.344 109.719 162.75 110.609C163.156 111.484 163.75 112.125 164.531 112.531C165.312 112.938 166.258 113.141 167.367 113.141C168.492 113.141 169.438 112.938 170.203 112.531C170.969 112.125 171.547 111.484 171.938 110.609C172.328 109.719 172.523 108.57 172.523 107.164V84.875ZM193.078 84.875L198.656 96.2188L204.234 84.875H213.609L204.094 101.797L213.867 119H204.398L198.656 107.445L192.914 119H183.422L193.219 101.797L183.68 84.875H193.078Z" fill="black"/>
<path d="M1134 0H1348C1356.28 0 1363 6.71573 1363 15V148C1363 156.284 1356.28 163 1348 163H1134V0Z" fill="#326789"/>
<path d="M1248.5 111.917C1244.51 111.917 1240.55 111.13 1236.86 109.601C1233.17 108.073 1229.82 105.832 1226.99 103.008C1221.29 97.3036 1218.08 89.567 1218.08 81.5C1218.08 73.433 1221.29 65.6964 1226.99 59.9922C1232.7 54.2879 1240.43 51.0833 1248.5 51.0833C1265.23 51.0833 1278.92 63.25 1278.92 78.4583C1278.92 83.2985 1276.99 87.9405 1273.57 91.363C1270.15 94.7856 1265.51 96.7083 1260.67 96.7083H1255.19C1254.28 96.7083 1253.67 97.3167 1253.67 98.2292C1253.67 98.5333 1253.97 98.8375 1253.97 99.1417C1255.19 100.662 1255.8 102.487 1255.8 104.312C1256.1 108.571 1252.76 111.917 1248.5 111.917ZM1248.5 57.1667C1242.05 57.1667 1235.86 59.7303 1231.29 64.2937C1226.73 68.8571 1224.17 75.0464 1224.17 81.5C1224.17 87.9536 1226.73 94.1429 1231.29 98.7063C1235.86 103.27 1242.05 105.833 1248.5 105.833C1249.41 105.833 1250.02 105.225 1250.02 104.312C1250.02 103.704 1249.72 103.4 1249.72 103.096C1248.5 101.575 1247.89 100.054 1247.89 98.2292C1247.89 93.9708 1251.24 90.625 1255.5 90.625H1260.67C1263.89 90.625 1266.99 89.3432 1269.27 87.0615C1271.55 84.7798 1272.83 81.6851 1272.83 78.4583C1272.83 66.5958 1261.88 57.1667 1248.5 57.1667ZM1231.77 75.4167C1234.2 75.4167 1236.33 77.5458 1236.33 79.9792C1236.33 82.4125 1234.2 84.5417 1231.77 84.5417C1229.34 84.5417 1227.21 82.4125 1227.21 79.9792C1227.21 77.5458 1229.34 75.4167 1231.77 75.4167ZM1240.9 63.25C1243.33 63.25 1245.46 65.3792 1245.46 67.8125C1245.46 70.2458 1243.33 72.375 1240.9 72.375C1238.46 72.375 1236.33 70.2458 1236.33 67.8125C1236.33 65.3792 1238.46 63.25 1240.9 63.25ZM1256.1 63.25C1258.54 63.25 1260.67 65.3792 1260.67 67.8125C1260.67 70.2458 1258.54 72.375 1256.1 72.375C1253.67 72.375 1251.54 70.2458 1251.54 67.8125C1251.54 65.3792 1253.67 63.25 1256.1 63.25ZM1265.23 75.4167C1267.66 75.4167 1269.79 77.5458 1269.79 79.9792C1269.79 82.4125 1267.66 84.5417 1265.23 84.5417C1262.8 84.5417 1260.67 82.4125 1260.67 79.9792C1260.67 77.5458 1262.8 75.4167 1265.23 75.4167Z" fill="white"/>
</svg>
